Italic_opsz9.ufo
<glyph name="comma" format="2">
  <advance width="285"/>
  <unicode hex="002C"/>
  <outline>
    <contour>
      <point x="88" y="54" type="curve" smooth="yes"/>
      <point x="88" y="26"/>
      <point x="108" y="0"/>
      <point x="142" y="0" type="curve" smooth="yes"/>
      <point x="157" y="0"/>
      <point x="172" y="5"/>
      <point x="182" y="16" type="curve"/>
      <point x="182" y="16" type="line"/>
      <point x="182" y="16" type="line"/>
      <point x="182" y="-17"/>
      <point x="182" y="-99"/>
      <point x="108" y="-170" type="curve" smooth="yes"/>
      <point x="102" y="-176"/>
      <point x="102" y="-177"/>
      <point x="102" y="-181" type="curve" smooth="yes"/>
      <point x="102" y="-188"/>
      <point x="109" y="-193"/>
      <point x="115" y="-193" type="curve" smooth="yes"/>
      <point x="126" y="-193"/>
      <point x="207" y="-115"/>
      <point x="207" y="2" type="curve" smooth="yes"/>
      <point x="207" y="64"/>
      <point x="185" y="108"/>
      <point x="142" y="108" type="curve" smooth="yes"/>
      <point x="108" y="108"/>
      <point x="88" y="82"/>
    </contour>
  </outline>
</glyph>
<glyph name="three" format="2">
  <advance width="513"/>
  <unicode hex="0033"/>
  <outline>
    <contour>
      <point x="252" y="-216" type="curve" smooth="yes"/>
      <point x="379" y="-216"/>
      <point x="470" y="-127"/>
      <point x="470" y="-29" type="curve" smooth="yes"/>
      <point x="470" y="50"/>
      <point x="408" y="125"/>
      <point x="306" y="148" type="curve"/>
      <point x="387" y="176"/>
      <point x="442" y="244"/>
      <point x="442" y="319" type="curve" smooth="yes"/>
      <point x="442" y="396"/>
      <point x="355" y="453"/>
      <point x="254" y="453" type="curve" smooth="yes"/>
      <point x="148" y="453"/>
      <point x="71" y="395"/>
      <point x="71" y="322" type="curve" smooth="yes"/>
      <point x="71" y="275"/>
      <point x="112" y="270"/>
      <point x="120" y="270" type="curve" smooth="yes"/>
      <point x="144" y="270"/>
      <point x="169" y="288"/>
      <point x="169" y="319" type="curve" smooth="yes"/>
      <point x="169" y="338"/>
      <point x="161" y="368"/>
      <point x="114" y="368" type="curve"/>
      <point x="148" y="419"/>
      <point x="221" y="428"/>
      <point x="250" y="428" type="curve" smooth="yes"/>
      <point x="294" y="428"/>
      <point x="352" y="406"/>
      <point x="352" y="319" type="curve" smooth="yes"/>
      <point x="352" y="295"/>
      <point x="347" y="248"/>
      <point x="321" y="209" type="curve" smooth="yes"/>
      <point x="290" y="163"/>
      <point x="254" y="161"/>
      <point x="224" y="159" type="curve" smooth="yes"/>
      <point x="189" y="157"/>
      <point x="187" y="157"/>
      <point x="181" y="155" type="curve"/>
      <point x="171" y="154"/>
      <point x="171" y="144"/>
      <point x="171" y="143" type="curve" smooth="yes"/>
      <point x="171" y="131"/>
      <point x="180" y="131"/>
      <point x="199" y="131" type="curve" smooth="yes"/>
      <point x="242" y="131" type="line" smooth="yes"/>
      <point x="337" y="131"/>
      <point x="371" y="57"/>
      <point x="371" y="-29" type="curve" smooth="yes"/>
      <point x="371" y="-151"/>
      <point x="303" y="-188"/>
      <point x="250" y="-188" type="curve" smooth="yes"/>
      <point x="203" y="-188"/>
      <point x="123" y="-171"/>
      <point x="88" y="-112" type="curve"/>
      <point x="99" y="-112"/>
      <point x="149" y="-112"/>
      <point x="149" y="-59" type="curve" smooth="yes"/>
      <point x="149" y="-27"/>
      <point x="125" y="-7"/>
      <point x="96" y="-7" type="curve" smooth="yes"/>
      <point x="76" y="-7"/>
      <point x="43" y="-18"/>
      <point x="43" y="-62" type="curve" smooth="yes"/>
      <point x="43" y="-152"/>
      <point x="139" y="-216"/>
    </contour>
  </outline>
</glyph>
<glyph name="less" format="2">
  <advance width="799"/>
  <unicode hex="003C"/>
  <outline>
    <contour>
      <point x="692" y="507" type="line" smooth="yes"/>
      <point x="701" y="511"/>
      <point x="712" y="517"/>
      <point x="712" y="530" type="curve" smooth="yes"/>
      <point x="712" y="541"/>
      <point x="704" y="552"/>
      <point x="690" y="552" type="curve" smooth="yes"/>
      <point x="689" y="552"/>
      <point x="684" y="552"/>
      <point x="672" y="546" type="curve" smooth="yes"/>
      <point x="106" y="274" type="line" smooth="yes"/>
      <point x="97" y="270"/>
      <point x="86" y="264"/>
      <point x="86" y="251" type="curve" smooth="yes"/>
      <point x="86" y="237"/>
      <point x="95" y="232"/>
      <point x="106" y="227" type="curve" smooth="yes"/>
      <point x="670" y="-44" type="line" smooth="yes"/>
      <point x="684" y="-51"/>
      <point x="688" y="-51"/>
      <point x="690" y="-51" type="curve" smooth="yes"/>
      <point x="706" y="-51"/>
      <point x="712" y="-37"/>
      <point x="712" y="-30" type="curve" smooth="yes"/>
      <point x="712" y="-17"/>
      <point x="705" y="-13"/>
      <point x="694" y="-8" type="curve" smooth="yes"/>
      <point x="157" y="251" type="line"/>
    </contour>
  </outline>
</glyph>
<glyph name="A" format="2">
  <advance width="770"/>
  <unicode hex="0041"/>
  <outline>
    <contour>
      <point x="182" y="117" type="line" smooth="yes"/>
      <point x="133" y="37"/>
      <point x="89" y="34"/>
      <point x="49" y="31" type="curve"/>
      <point x="42" y="30"/>
      <point x="37" y="22"/>
      <point x="37" y="13" type="curve" smooth="yes"/>
      <point x="37" y="7"/>
      <point x="41" y="0"/>
      <point x="51" y="0" type="curve" smooth="yes"/>
      <point x="70" y="0"/>
      <point x="117" y="3"/>
      <point x="136" y="3" type="curve" smooth="yes"/>
      <point x="158" y="3"/>
      <point x="212" y="0"/>
      <point x="234" y="0" type="curve" smooth="yes"/>
      <point x="240" y="0"/>
      <point x="253" y="0"/>
      <point x="253" y="18" type="curve" smooth="yes"/>
      <point x="253" y="30"/>
      <point x="241" y="31"/>
      <point x="238" y="31" type="curve"/>
      <point x="229" y="32"/>
      <point x="191" y="34"/>
      <point x="191" y="64" type="curve" smooth="yes"/>
      <point x="191" y="78"/>
      <point x="202" y="97"/>
      <point x="205" y="102" type="curve" smooth="yes"/>
      <point x="284" y="231" type="line"/>
      <point x="545" y="231" type="line"/>
      <point x="548" y="208"/>
      <point x="551" y="174"/>
      <point x="554" y="149" type="curve" smooth="yes"/>
      <point x="558" y="110"/>
      <point x="564" y="66"/>
      <point x="564" y="63" type="curve" smooth="yes"/>
      <point x="564" y="48"/>
      <point x="550" y="31"/>
      <point x="492" y="31" type="curve" smooth="yes"/>
      <point x="482" y="31"/>
      <point x="469" y="31"/>
      <point x="469" y="13" type="curve" smooth="yes"/>
      <point x="469" y="2"/>
      <point x="477" y="0"/>
      <point x="484" y="0" type="curve" smooth="yes"/>
      <point x="503" y="0"/>
      <point x="527" y="2"/>
      <point x="547" y="2" type="curve" smooth="yes"/>
      <point x="567" y="2"/>
      <point x="591" y="3"/>
      <point x="607" y="3" type="curve" smooth="yes"/>
      <point x="640" y="3"/>
      <point x="642" y="3"/>
      <point x="666" y="2" type="curve" smooth="yes"/>
      <point x="682" y="1"/>
      <point x="705" y="0"/>
      <point x="721" y="0" type="curve" smooth="yes"/>
      <point x="727" y="0"/>
      <point x="740" y="0"/>
      <point x="740" y="18" type="curve" smooth="yes"/>
      <point x="740" y="31"/>
      <point x="729" y="31"/>
      <point x="717" y="31" type="curve" smooth="yes"/>
      <point x="657" y="31"/>
      <point x="656" y="38"/>
      <point x="653" y="67" type="curve" smooth="yes"/>
      <point x="583" y="689" type="line" smooth="yes"/>
      <point x="581" y="711"/>
      <point x="580" y="716"/>
      <point x="563" y="716" type="curve" smooth="yes"/>
      <point x="549" y="716"/>
      <point x="543" y="709"/>
      <point x="535" y="696" type="curve" smooth="yes"/>
    </contour>
    <contour>
      <point x="303" y="262" type="line"/>
      <point x="505" y="592" type="line"/>
      <point x="542" y="262" type="line"/>
    </contour>
  </outline>
</glyph>
<glyph name="C" format="2">
  <advance width="733"/>
  <unicode hex="0043"/>
  <outline>
    <contour>
      <point x="774" y="678" type="line" smooth="yes"/>
      <point x="777" y="690"/>
      <point x="777" y="692"/>
      <point x="777" y="694" type="curve" smooth="yes"/>
      <point x="777" y="695"/>
      <point x="776" y="705"/>
      <point x="765" y="705" type="curve" smooth="yes"/>
      <point x="759" y="705"/>
      <point x="756" y="702"/>
      <point x="749" y="694" type="curve" smooth="yes"/>
      <point x="688" y="627" type="line"/>
      <point x="684" y="622"/>
      <point x="680" y="618"/>
      <point x="679" y="618" type="curve" smooth="yes"/>
      <point x="678" y="618"/>
      <point x="677" y="619"/>
      <point x="671" y="626" type="curve"/>
      <point x="656" y="646"/>
      <point x="611" y="705"/>
      <point x="507" y="705" type="curve" smooth="yes"/>
      <point x="278" y="705"/>
      <point x="51" y="483"/>
      <point x="51" y="255" type="curve" smooth="yes"/>
      <point x="51" y="92"/>
      <point x="170" y="-22"/>
      <point x="331" y="-22" type="curve" smooth="yes"/>
      <point x="435" y="-22"/>
      <point x="517" y="32"/>
      <point x="556" y="67" type="curve" smooth="yes"/>
      <point x="647" y="148"/>
      <point x="664" y="236"/>
      <point x="664" y="240" type="curve" smooth="yes"/>
      <point x="664" y="244"/>
      <point x="662" y="251"/>
      <point x="650" y="251" type="curve" smooth="yes"/>
      <point x="639" y="251"/>
      <point x="637" y="245"/>
      <point x="636" y="241" type="curve"/>
      <point x="587" y="80"/>
      <point x="444" y="9"/>
      <point x="344" y="9" type="curve" smooth="yes"/>
      <point x="247" y="9"/>
      <point x="144" y="68"/>
      <point x="144" y="219" type="curve" smooth="yes"/>
      <point x="144" y="264"/>
      <point x="159" y="422"/>
      <point x="260" y="545" type="curve" smooth="yes"/>
      <point x="320" y="617"/>
      <point x="418" y="674"/>
      <point x="514" y="674" type="curve" smooth="yes"/>
      <point x="625" y="674"/>
      <point x="684" y="589"/>
      <point x="684" y="479" type="curve" smooth="yes"/>
      <point x="684" y="445"/>
      <point x="681" y="438"/>
      <point x="681" y="430" type="curve" smooth="yes"/>
      <point x="681" y="419"/>
      <point x="693" y="419"/>
      <point x="696" y="419" type="curve" smooth="yes"/>
      <point x="709" y="419"/>
      <point x="709" y="421"/>
      <point x="714" y="440" type="curve" smooth="yes"/>
    </contour>
  </outline>
</glyph>
<glyph name="E" format="2">
  <advance width="756"/>
  <unicode hex="0045"/>
  <outline>
    <contour>
      <point x="160" y="76" type="line" smooth="yes"/>
      <point x="151" y="40"/>
      <point x="149" y="31"/>
      <point x="74" y="31" type="curve" smooth="yes"/>
      <point x="55" y="31"/>
      <point x="44" y="31"/>
      <point x="44" y="13" type="curve" smooth="yes"/>
      <point x="44" y="0"/>
      <point x="54" y="0"/>
      <point x="72" y="0" type="curve" smooth="yes"/>
      <point x="610" y="0" type="line" smooth="yes"/>
      <point x="621" y="0"/>
      <point x="625" y="2"/>
      <point x="631" y="15" type="curve"/>
      <point x="725" y="230" type="line" smooth="yes"/>
      <point x="728" y="238"/>
      <point x="730" y="244"/>
      <point x="730" y="245" type="curve" smooth="yes"/>
      <point x="730" y="253"/>
      <point x="724" y="258"/>
      <point x="716" y="258" type="curve" smooth="yes"/>
      <point x="708" y="258"/>
      <point x="707" y="257"/>
      <point x="696" y="234" type="curve" smooth="yes"/>
      <point x="634" y="94"/>
      <point x="593" y="31"/>
      <point x="427" y="31" type="curve" smooth="yes"/>
      <point x="274" y="31" type="line" smooth="yes"/>
      <point x="233" y="31"/>
      <point x="239" y="34"/>
      <point x="246" y="64" type="curve" smooth="yes"/>
      <point x="314" y="338" type="line"/>
      <point x="416" y="338" type="line" smooth="yes"/>
      <point x="487" y="338"/>
      <point x="502" y="326"/>
      <point x="502" y="293" type="curve" smooth="yes"/>
      <point x="502" y="268"/>
      <point x="492" y="242"/>
      <point x="492" y="234" type="curve" smooth="yes"/>
      <point x="492" y="233"/>
      <point x="492" y="221"/>
      <point x="505" y="221" type="curve" smooth="yes"/>
      <point x="517" y="221"/>
      <point x="518" y="228"/>
      <point x="522" y="243" type="curve" smooth="yes"/>
      <point x="578" y="464" type="line" smooth="yes"/>
      <point x="582" y="479"/>
      <point x="579" y="486"/>
      <point x="566" y="486" type="curve" smooth="yes"/>
      <point x="555" y="486"/>
      <point x="553" y="480"/>
      <point x="548" y="461" type="curve" smooth="yes"/>
      <point x="528" y="382"/>
      <point x="497" y="369"/>
      <point x="417" y="369" type="curve" smooth="yes"/>
      <point x="322" y="369" type="line"/>
      <point x="337" y="431"/>
      <point x="384" y="621"/>
      <point x="389" y="633" type="curve" smooth="yes"/>
      <point x="395" y="647"/>
      <point x="402" y="649"/>
      <point x="435" y="649" type="curve" smooth="yes"/>
      <point x="582" y="649" type="line" smooth="yes"/>
      <point x="707" y="649"/>
      <point x="735" y="619"/>
      <point x="735" y="538" type="curve" smooth="yes"/>
      <point x="735" y="507"/>
      <point x="730" y="477"/>
      <point x="730" y="470" type="curve" smooth="yes"/>
      <point x="730" y="462"/>
      <point x="735" y="455"/>
      <point x="744" y="455" type="curve" smooth="yes"/>
      <point x="756" y="455"/>
      <point x="757" y="462"/>
      <point x="759" y="480" type="curve" smooth="yes"/>
      <point x="765.993" y="541.938"/>
      <point x="772.986" y="603.876"/>
      <point x="780" y="666" type="curve" smooth="yes"/>
      <point x="782" y="680"/>
      <point x="770" y="680"/>
      <point x="751" y="680" type="curve" smooth="yes"/>
      <point x="236" y="680" type="line" smooth="yes"/>
      <point x="217" y="680"/>
      <point x="206" y="680"/>
      <point x="206" y="662" type="curve" smooth="yes"/>
      <point x="206" y="649"/>
      <point x="216" y="649"/>
      <point x="237" y="649" type="curve" smooth="yes"/>
      <point x="241" y="649"/>
      <point x="259" y="649"/>
      <point x="275" y="647" type="curve" smooth="yes"/>
      <point x="302" y="643"/>
      <point x="301" y="639"/>
      <point x="293" y="608" type="curve" smooth="yes"/>
    </contour>
  </outline>
</glyph>
<glyph name="G" format="2">
  <advance width="804"/>
  <unicode hex="0047"/>
  <outline>
    <contour>
      <point x="774" y="678" type="line" smooth="yes"/>
      <point x="777" y="690"/>
      <point x="777" y="692"/>
      <point x="777" y="694" type="curve" smooth="yes"/>
      <point x="777" y="695"/>
      <point x="776" y="705"/>
      <point x="765" y="705" type="curve" smooth="yes"/>
      <point x="759" y="705"/>
      <point x="756" y="702"/>
      <point x="749" y="694" type="curve" smooth="yes"/>
      <point x="688" y="627" type="line"/>
      <point x="684" y="622"/>
      <point x="680" y="618"/>
      <point x="679" y="618" type="curve" smooth="yes"/>
      <point x="678" y="618"/>
      <point x="677" y="619"/>
      <point x="671" y="626" type="curve"/>
      <point x="656" y="646"/>
      <point x="611" y="705"/>
      <point x="507" y="705" type="curve" smooth="yes"/>
      <point x="278" y="705"/>
      <point x="51" y="483"/>
      <point x="51" y="255" type="curve" smooth="yes"/>
      <point x="51" y="98"/>
      <point x="163" y="-22"/>
      <point x="333" y="-22" type="curve" smooth="yes"/>
      <point x="447" y="-22"/>
      <point x="523" y="27"/>
      <point x="550" y="62" type="curve"/>
      <point x="558" y="39"/>
      <point x="584" y="1"/>
      <point x="596" y="1" type="curve" smooth="yes"/>
      <point x="604" y="1"/>
      <point x="606" y="6"/>
      <point x="611" y="26" type="curve" smooth="yes"/>
      <point x="630" y="103" type="line" smooth="yes"/>
      <point x="637" y="130"/>
      <point x="647" y="171"/>
      <point x="652" y="193" type="curve" smooth="yes"/>
      <point x="665" y="240"/>
      <point x="665" y="242"/>
      <point x="723" y="243" type="curve" smooth="yes"/>
      <point x="727" y="243"/>
      <point x="740" y="244"/>
      <point x="740" y="261" type="curve" smooth="yes"/>
      <point x="740" y="262"/>
      <point x="740" y="274"/>
      <point x="726" y="274" type="curve" smooth="yes"/>
      <point x="718" y="274"/>
      <point x="680" y="272"/>
      <point x="673" y="271" type="curve"/>
      <point x="616" y="271" type="line" smooth="yes"/>
      <point x="593" y="271"/>
      <point x="569" y="272"/>
      <point x="547" y="272" type="curve" smooth="yes"/>
      <point x="523" y="272"/>
      <point x="497" y="274"/>
      <point x="474" y="274" type="curve" smooth="yes"/>
      <point x="465" y="274"/>
      <point x="453" y="274"/>
      <point x="453" y="256" type="curve" smooth="yes"/>
      <point x="453" y="243"/>
      <point x="462" y="243"/>
      <point x="487" y="243" type="curve" smooth="yes"/>
      <point x="509" y="243"/>
      <point x="514" y="243"/>
      <point x="539" y="241" type="curve" smooth="yes"/>
      <point x="566" y="238"/>
      <point x="571" y="235"/>
      <point x="571" y="222" type="curve" smooth="yes"/>
      <point x="571" y="218"/>
      <point x="571" y="216"/>
      <point x="564" y="191" type="curve" smooth="yes"/>
      <point x="557" y="162"/>
      <point x="545" y="114"/>
      <point x="542" y="106" type="curve"/>
      <point x="508" y="33"/>
      <point x="411" y="9"/>
      <point x="349" y="9" type="curve" smooth="yes"/>
      <point x="261" y="9"/>
      <point x="145" y="57"/>
      <point x="145" y="221" type="curve" smooth="yes"/>
      <point x="145" y="283"/>
      <point x="166" y="430"/>
      <point x="260" y="545" type="curve" smooth="yes"/>
      <point x="319" y="617"/>
      <point x="418" y="674"/>
      <point x="514" y="674" type="curve" smooth="yes"/>
      <point x="625" y="674"/>
      <point x="684" y="589"/>
      <point x="684" y="479" type="curve" smooth="yes"/>
      <point x="684" y="445"/>
      <point x="681" y="438"/>
      <point x="681" y="430" type="curve" smooth="yes"/>
      <point x="681" y="419"/>
      <point x="693" y="419"/>
      <point x="696" y="419" type="curve" smooth="yes"/>
      <point x="709" y="419"/>
      <point x="709" y="421"/>
      <point x="714" y="440" type="curve" smooth="yes"/>
    </contour>
  </outline>
</glyph>
<glyph name="H" format="2">
  <advance width="850"/>
  <unicode hex="0048"/>
  <outline>
    <contour>
      <point x="780" y="606" type="line" smooth="yes"/>
      <point x="789" y="643"/>
      <point x="792" y="652"/>
      <point x="870" y="652" type="curve" smooth="yes"/>
      <point x="886" y="652"/>
      <point x="897" y="652"/>
      <point x="897" y="670" type="curve" smooth="yes"/>
      <point x="897" y="679"/>
      <point x="890" y="683"/>
      <point x="882" y="683" type="curve"/>
      <point x="819" y="681" type="line" smooth="yes"/>
      <point x="789" y="680"/>
      <point x="787" y="680"/>
      <point x="755" y="680" type="curve" smooth="yes"/>
      <point x="723" y="680"/>
      <point x="721" y="680"/>
      <point x="691" y="681" type="curve" smooth="yes"/>
      <point x="671" y="682"/>
      <point x="645" y="683"/>
      <point x="626" y="683" type="curve" smooth="yes"/>
      <point x="620" y="683"/>
      <point x="606" y="683"/>
      <point x="606" y="665" type="curve" smooth="yes"/>
      <point x="606" y="652"/>
      <point x="616" y="652"/>
      <point x="636" y="652" type="curve" smooth="yes"/>
      <point x="640" y="652"/>
      <point x="658" y="652"/>
      <point x="674" y="650" type="curve" smooth="yes"/>
      <point x="693" y="648"/>
      <point x="698" y="645"/>
      <point x="698" y="635" type="curve" smooth="yes"/>
      <point x="698" y="630"/>
      <point x="697" y="627"/>
      <point x="694" y="615" type="curve" smooth="yes"/>
      <point x="633" y="371" type="line"/>
      <point x="322" y="371" type="line"/>
      <point x="381" y="606" type="line" smooth="yes"/>
      <point x="390" y="644"/>
      <point x="393" y="652"/>
      <point x="471" y="652" type="curve" smooth="yes"/>
      <point x="487" y="652"/>
      <point x="498" y="652"/>
      <point x="498" y="670" type="curve" smooth="yes"/>
      <point x="498" y="679"/>
      <point x="491" y="683"/>
      <point x="483" y="683" type="curve"/>
      <point x="420" y="681" type="line" smooth="yes"/>
      <point x="390" y="680"/>
      <point x="388" y="680"/>
      <point x="356" y="680" type="curve" smooth="yes"/>
      <point x="324" y="680"/>
      <point x="322" y="680"/>
      <point x="292" y="681" type="curve" smooth="yes"/>
      <point x="272" y="682"/>
      <point x="246" y="683"/>
      <point x="227" y="683" type="curve" smooth="yes"/>
      <point x="221" y="683"/>
      <point x="207" y="683"/>
      <point x="207" y="665" type="curve" smooth="yes"/>
      <point x="207" y="652"/>
      <point x="217" y="652"/>
      <point x="237" y="652" type="curve" smooth="yes"/>
      <point x="241" y="652"/>
      <point x="259" y="652"/>
      <point x="275" y="650" type="curve" smooth="yes"/>
      <point x="294" y="648"/>
      <point x="299" y="645"/>
      <point x="299" y="635" type="curve" smooth="yes"/>
      <point x="299" y="630"/>
      <point x="298" y="626"/>
      <point x="295" y="615" type="curve" smooth="yes"/>
      <point x="160" y="76" type="line" smooth="yes"/>
      <point x="151" y="40"/>
      <point x="149" y="31"/>
      <point x="74" y="31" type="curve" smooth="yes"/>
      <point x="55" y="31"/>
      <point x="44" y="31"/>
      <point x="44" y="13" type="curve" smooth="yes"/>
      <point x="44" y="4"/>
      <point x="51" y="0"/>
      <point x="59" y="0" type="curve" smooth="yes"/>
      <point x="78" y="0"/>
      <point x="103" y="1"/>
      <point x="122" y="2" type="curve" smooth="yes"/>
      <point x="152" y="3"/>
      <point x="154" y="3"/>
      <point x="186" y="3" type="curve" smooth="yes"/>
      <point x="218" y="3"/>
      <point x="220" y="3"/>
      <point x="250" y="2" type="curve" smooth="yes"/>
      <point x="270" y="1"/>
      <point x="296" y="0"/>
      <point x="315" y="0" type="curve" smooth="yes"/>
      <point x="323" y="0"/>
      <point x="335" y="0"/>
      <point x="335" y="18" type="curve" smooth="yes"/>
      <point x="335" y="31"/>
      <point x="325" y="31"/>
      <point x="304" y="31" type="curve" smooth="yes"/>
      <point x="300" y="31"/>
      <point x="282" y="31"/>
      <point x="266" y="33" type="curve" smooth="yes"/>
      <point x="244" y="36"/>
      <point x="243" y="40"/>
      <point x="243" y="49" type="curve" smooth="yes"/>
      <point x="243" y="52"/>
      <point x="243" y="54"/>
      <point x="248" y="72" type="curve" smooth="yes"/>
      <point x="314" y="340" type="line"/>
      <point x="625" y="340" type="line"/>
      <point x="617" y="305"/>
      <point x="558" y="67"/>
      <point x="553" y="56" type="curve" smooth="yes"/>
      <point x="546" y="39"/>
      <point x="543" y="32"/>
      <point x="467" y="31" type="curve"/>
      <point x="455" y="31"/>
      <point x="443" y="31"/>
      <point x="443" y="13" type="curve" smooth="yes"/>
      <point x="443" y="4"/>
      <point x="450" y="0"/>
      <point x="458" y="0" type="curve" smooth="yes"/>
      <point x="477" y="0"/>
      <point x="502" y="1"/>
      <point x="521" y="2" type="curve" smooth="yes"/>
      <point x="551" y="3"/>
      <point x="553" y="3"/>
      <point x="585" y="3" type="curve" smooth="yes"/>
      <point x="617" y="3"/>
      <point x="619" y="3"/>
      <point x="649" y="2" type="curve" smooth="yes"/>
      <point x="669" y="1"/>
      <point x="695" y="0"/>
      <point x="714" y="0" type="curve" smooth="yes"/>
      <point x="722" y="0"/>
      <point x="734" y="0"/>
      <point x="734" y="18" type="curve" smooth="yes"/>
      <point x="734" y="31"/>
      <point x="724" y="31"/>
      <point x="703" y="31" type="curve" smooth="yes"/>
      <point x="699" y="31"/>
      <point x="681" y="31"/>
      <point x="665" y="33" type="curve" smooth="yes"/>
      <point x="643" y="36"/>
      <point x="642" y="40"/>
      <point x="642" y="49" type="curve" smooth="yes"/>
      <point x="642" y="58"/>
      <point x="644" y="66"/>
      <point x="646" y="73" type="curve" smooth="yes"/>
    </contour>
  </outline>
</glyph>
<glyph name="M" format="2">
  <advance width="992"/>
  <unicode hex="004D"/>
  <outline>
    <contour>
      <point x="172" y="106" type="line" smooth="yes"/>
      <point x="159" y="54"/>
      <point x="131" y="34"/>
      <point x="65" y="31" type="curve"/>
      <point x="62" y="31"/>
      <point x="48" y="30"/>
      <point x="48" y="13" type="curve" smooth="yes"/>
      <point x="48" y="11"/>
      <point x="48" y="0"/>
      <point x="62" y="0" type="curve" smooth="yes"/>
      <point x="89" y="0"/>
      <point x="103.97397" y="3.0"/>
      <point x="162" y="3" type="curve" smooth="yes"/>
      <point x="214" y="3"/>
      <point x="237" y="0"/>
      <point x="265" y="0" type="curve" smooth="yes"/>
      <point x="270" y="0"/>
      <point x="283" y="0"/>
      <point x="283" y="18" type="curve" smooth="yes"/>
      <point x="283" y="30"/>
      <point x="272" y="31"/>
      <point x="263" y="31" type="curve" smooth="yes"/>
      <point x="216" y="32"/>
      <point x="198" y="47"/>
      <point x="198" y="74" type="curve" smooth="yes"/>
      <point x="198" y="81"/>
      <point x="199" y="82"/>
      <point x="202" y="96" type="curve" smooth="yes"/>
      <point x="337" y="640" type="line"/>
      <point x="338" y="640" type="line"/>
      <point x="429" y="26" type="line" smooth="yes"/>
      <point x="431" y="10"/>
      <point x="433" y="0"/>
      <point x="446" y="0" type="curve" smooth="yes"/>
      <point x="458" y="0"/>
      <point x="464" y="10"/>
      <point x="470" y="19" type="curve" smooth="yes"/>
      <point x="877" y="647" type="line"/>
      <point x="878" y="647" type="line"/>
      <point x="735" y="76" type="line" smooth="yes"/>
      <point x="726" y="40"/>
      <point x="724" y="31"/>
      <point x="649" y="31" type="curve" smooth="yes"/>
      <point x="631" y="31"/>
      <point x="619" y="31"/>
      <point x="619" y="13" type="curve" smooth="yes"/>
      <point x="619" y="4"/>
      <point x="626" y="0"/>
      <point x="634" y="0" type="curve" smooth="yes"/>
      <point x="656" y="0"/>
      <point x="685" y="2"/>
      <point x="697" y="2" type="curve" smooth="yes"/>
      <point x="724" y="3"/>
      <point x="770" y="3"/>
      <point x="821" y="2" type="curve" smooth="yes"/>
      <point x="841" y="2"/>
      <point x="863" y="0"/>
      <point x="882" y="0" type="curve" smooth="yes"/>
      <point x="888" y="0"/>
      <point x="901" y="0"/>
      <point x="901" y="18" type="curve" smooth="yes"/>
      <point x="901" y="31"/>
      <point x="891" y="31"/>
      <point x="870" y="31" type="curve" smooth="yes"/>
      <point x="866" y="31"/>
      <point x="848" y="31"/>
      <point x="832" y="33" type="curve" smooth="yes"/>
      <point x="810" y="36"/>
      <point x="809" y="40"/>
      <point x="809" y="49" type="curve" smooth="yes"/>
      <point x="809" y="58"/>
      <point x="811" y="66"/>
      <point x="813" y="73" type="curve" smooth="yes"/>
      <point x="947" y="606" type="line" smooth="yes"/>
      <point x="956" y="643"/>
      <point x="959" y="652"/>
      <point x="1037" y="652" type="curve" smooth="yes"/>
      <point x="1053" y="652"/>
      <point x="1064" y="652"/>
      <point x="1064" y="670" type="curve" smooth="yes"/>
      <point x="1064" y="683"/>
      <point x="1054" y="683"/>
      <point x="1035" y="683" type="curve" smooth="yes"/>
      <point x="904" y="683" type="line" smooth="yes"/>
      <point x="879" y="683"/>
      <point x="875" y="683"/>
      <point x="863" y="664" type="curve" smooth="yes"/>
      <point x="494" y="94" type="line"/>
      <point x="411" y="657" type="line" smooth="yes"/>
      <point x="407" y="683"/>
      <point x="406" y="683"/>
      <point x="378" y="683" type="curve" smooth="yes"/>
      <point x="241" y="683" type="line" smooth="yes"/>
      <point x="223" y="683"/>
      <point x="211" y="683"/>
      <point x="211" y="665" type="curve" smooth="yes"/>
      <point x="211" y="652"/>
      <point x="221" y="652"/>
      <point x="241" y="652" type="curve" smooth="yes"/>
      <point x="245" y="652"/>
      <point x="263" y="652"/>
      <point x="279" y="650" type="curve" smooth="yes"/>
      <point x="298" y="648"/>
      <point x="303" y="645"/>
      <point x="303" y="635" type="curve" smooth="yes"/>
      <point x="303" y="630"/>
      <point x="302" y="626"/>
      <point x="299" y="615" type="curve" smooth="yes"/>
    </contour>
  </outline>
</glyph>
<glyph name="N" format="2">
  <advance width="821"/>
  <unicode hex="004E"/>
  <outline>
    <contour>
      <point x="168" y="106" type="line" smooth="yes"/>
      <point x="156" y="57"/>
      <point x="131" y="34"/>
      <point x="61" y="31" type="curve" smooth="yes"/>
      <point x="57" y="31"/>
      <point x="44" y="30"/>
      <point x="44" y="13" type="curve" smooth="yes"/>
      <point x="44" y="11"/>
      <point x="44" y="0"/>
      <point x="58" y="0" type="curve" smooth="yes"/>
      <point x="85" y="0"/>
      <point x="109" y="3"/>
      <point x="158" y="3" type="curve" smooth="yes"/>
      <point x="190" y="3"/>
      <point x="223" y="2"/>
      <point x="261" y="0" type="curve" smooth="yes"/>
      <point x="266" y="0"/>
      <point x="279" y="0"/>
      <point x="279" y="18" type="curve" smooth="yes"/>
      <point x="279" y="30"/>
      <point x="268" y="31"/>
      <point x="259" y="31" type="curve" smooth="yes"/>
      <point x="212" y="32"/>
      <point x="194" y="47"/>
      <point x="194" y="74" type="curve" smooth="yes"/>
      <point x="194" y="78"/>
      <point x="195" y="82"/>
      <point x="198" y="96" type="curve" smooth="yes"/>
      <point x="329" y="623" type="line"/>
      <point x="329.0" y="623.0"/>
      <point x="329.0" y="623.0"/>
      <point x="329" y="623" type="curve"/>
      <point x="597" y="18" type="line" smooth="yes"/>
      <point x="604" y="2"/>
      <point x="605" y="0"/>
      <point x="615" y="0" type="curve" smooth="yes"/>
      <point x="628" y="0"/>
      <point x="629" y="4"/>
      <point x="633" y="21" type="curve" smooth="yes"/>
      <point x="772" y="575" type="line" smooth="yes"/>
      <point x="782" y="616"/>
      <point x="801" y="649"/>
      <point x="879" y="652" type="curve" smooth="yes"/>
      <point x="885" y="652"/>
      <point x="897" y="653"/>
      <point x="897" y="670" type="curve" smooth="yes"/>
      <point x="897" y="678"/>
      <point x="891" y="683"/>
      <point x="883" y="683" type="curve" smooth="yes"/>
      <point x="861" y="683"/>
      <point x="805" y="680"/>
      <point x="783" y="680" type="curve" smooth="yes"/>
      <point x="738" y="680"/>
      <point x="697" y="683"/>
      <point x="680" y="683" type="curve" smooth="yes"/>
      <point x="676" y="683"/>
      <point x="662" y="683"/>
      <point x="662" y="665" type="curve" smooth="yes"/>
      <point x="662" y="652"/>
      <point x="674" y="652"/>
      <point x="680" y="652" type="curve" smooth="yes"/>
      <point x="718" y="651"/>
      <point x="747" y="642"/>
      <point x="747" y="609" type="curve" smooth="yes"/>
      <point x="747" y="604"/>
      <point x="745" y="594"/>
      <point x="744" y="589" type="curve" smooth="yes"/>
      <point x="632" y="144" type="line"/>
      <point x="403" y="663" type="line" smooth="yes"/>
      <point x="394" y="682"/>
      <point x="393" y="683"/>
      <point x="370" y="683" type="curve" smooth="yes"/>
      <point x="237" y="683" type="line" smooth="yes"/>
      <point x="218" y="683"/>
      <point x="207" y="683"/>
      <point x="207" y="665" type="curve" smooth="yes"/>
      <point x="207" y="652"/>
      <point x="217" y="652"/>
      <point x="237" y="652" type="curve" smooth="yes"/>
      <point x="242" y="652"/>
      <point x="279" y="652"/>
      <point x="303" y="646" type="curve"/>
      <point x="303.0" y="646.0"/>
      <point x="303.0" y="646.0"/>
      <point x="303" y="646" type="curve"/>
    </contour>
  </outline>
</glyph>
<glyph name="W" format="2">
  <advance width="970"/>
  <unicode hex="0057"/>
  <outline>
    <contour>
      <point x="527" y="510" type="line"/>
      <point x="569" y="5" type="line" smooth="yes"/>
      <point x="570" y="-13"/>
      <point x="571" y="-22"/>
      <point x="587" y="-22" type="curve" smooth="yes"/>
      <point x="591" y="-22"/>
      <point x="602" y="-22"/>
      <point x="614" y="-1" type="curve" smooth="yes"/>
      <point x="944" y="567" type="line" smooth="yes"/>
      <point x="990" y="646"/>
      <point x="1029.81155" y="649.70083"/>
      <point x="1062" y="652" type="curve" smooth="yes"/>
      <point x="1075" y="653"/>
      <point x="1075" y="669"/>
      <point x="1075" y="670" type="curve" smooth="yes"/>
      <point x="1075" y="676"/>
      <point x="1071" y="683"/>
      <point x="1063" y="683" type="curve" smooth="yes"/>
      <point x="1058" y="683"/>
      <point x="1038" y="680"/>
      <point x="983" y="680" type="curve" smooth="yes"/>
      <point x="949" y="680"/>
      <point x="914" y="683"/>
      <point x="882" y="683" type="curve" smooth="yes"/>
      <point x="876" y="683"/>
      <point x="863" y="683"/>
      <point x="863" y="665" type="curve" smooth="yes"/>
      <point x="863" y="653"/>
      <point x="874" y="652"/>
      <point x="878" y="652" type="curve" smooth="yes"/>
      <point x="892" y="651"/>
      <point x="935" y="649"/>
      <point x="935" y="614" type="curve" smooth="yes"/>
      <point x="935" y="607"/>
      <point x="933" y="597"/>
      <point x="921" y="577" type="curve" smooth="yes"/>
      <point x="649" y="111" type="line"/>
      <point x="607" y="620" type="line" smooth="yes"/>
      <point x="606" y="631"/>
      <point x="617" y="652"/>
      <point x="679" y="652" type="curve" smooth="yes"/>
      <point x="691" y="652"/>
      <point x="703" y="652"/>
      <point x="703" y="670" type="curve" smooth="yes"/>
      <point x="703" y="679"/>
      <point x="696" y="683"/>
      <point x="688" y="683" type="curve" smooth="yes"/>
      <point x="672.38023" y="683.0"/>
      <point x="653" y="682"/>
      <point x="626" y="681" type="curve" smooth="yes"/>
      <point x="583" y="680"/>
      <point x="536" y="680"/>
      <point x="512" y="681" type="curve" smooth="yes"/>
      <point x="499" y="682"/>
      <point x="472" y="683"/>
      <point x="460" y="683" type="curve" smooth="yes"/>
      <point x="455" y="683"/>
      <point x="442" y="683"/>
      <point x="442" y="665" type="curve" smooth="yes"/>
      <point x="442" y="652"/>
      <point x="453" y="652"/>
      <point x="465" y="652" type="curve" smooth="yes"/>
      <point x="511" y="652"/>
      <point x="515" y="645"/>
      <point x="517" y="629" type="curve" smooth="yes"/>
      <point x="518" y="623"/>
      <point x="523" y="562"/>
      <point x="523" y="560" type="curve" smooth="yes"/>
      <point x="523" y="556"/>
      <point x="523" y="553"/>
      <point x="516" y="541" type="curve" smooth="yes"/>
      <point x="264" y="111" type="line"/>
      <point x="223" y="604" type="line" smooth="yes"/>
      <point x="221" y="624"/>
      <point x="219" y="651"/>
      <point x="293" y="652" type="curve" smooth="yes"/>
      <point x="306" y="652"/>
      <point x="318" y="652"/>
      <point x="318" y="670" type="curve" smooth="yes"/>
      <point x="318" y="682"/>
      <point x="307" y="683"/>
      <point x="303" y="683" type="curve" smooth="yes"/>
      <point x="280" y="682"/>
      <point x="254" y="681"/>
      <point x="245" y="681" type="curve" smooth="yes"/>
      <point x="207" y="681"/>
      <point x="153" y="680"/>
      <point x="128" y="681" type="curve" smooth="yes"/>
      <point x="119" y="681"/>
      <point x="84" y="683"/>
      <point x="76" y="683" type="curve" smooth="yes"/>
      <point x="72" y="683"/>
      <point x="58" y="683"/>
      <point x="58" y="665" type="curve" smooth="yes"/>
      <point x="58" y="652"/>
      <point x="69" y="652"/>
      <point x="81" y="652" type="curve" smooth="yes"/>
      <point x="131" y="652"/>
      <point x="132" y="644"/>
      <point x="134" y="617" type="curve" smooth="yes"/>
      <point x="185" y="3" type="line" smooth="yes"/>
      <point x="186" y="-14"/>
      <point x="187" y="-22"/>
      <point x="202" y="-22" type="curve" smooth="yes"/>
      <point x="216" y="-22"/>
      <point x="219" y="-16"/>
      <point x="228" y="-1" type="curve" smooth="yes"/>
    </contour>
  </outline>
</glyph>
<glyph name="X" format="2">
  <advance width="848"/>
  <unicode hex="0058"/>
  <outline>
    <contour>
      <point x="508" y="383" type="curve"/>
      <point x="543" y="417"/>
      <point x="596" y="475"/>
      <point x="660" y="543" type="curve" smooth="yes"/>
      <point x="722" y="608"/>
      <point x="762" y="646"/>
      <point x="846" y="652" type="curve" smooth="yes"/>
      <point x="858" y="653"/>
      <point x="869" y="654"/>
      <point x="869" y="670" type="curve" smooth="yes"/>
      <point x="869" y="674"/>
      <point x="866" y="683"/>
      <point x="855" y="683" type="curve" smooth="yes"/>
      <point x="841" y="683"/>
      <point x="808" y="680"/>
      <point x="762" y="680" type="curve" smooth="yes"/>
      <point x="689" y="681"/>
      <point x="658" y="683"/>
      <point x="651" y="683" type="curve" smooth="yes"/>
      <point x="645" y="683"/>
      <point x="632" y="683"/>
      <point x="632" y="665" type="curve" smooth="yes"/>
      <point x="632" y="653"/>
      <point x="644" y="652"/>
      <point x="646" y="652" type="curve" smooth="yes"/>
      <point x="655" y="651"/>
      <point x="684" y="649"/>
      <point x="684" y="623" type="curve" smooth="yes"/>
      <point x="684" y="606"/>
      <point x="661" y="582"/>
      <point x="660" y="581" type="curve" smooth="yes"/>
      <point x="496" y="410" type="line"/>
      <point x="407" y="610" type="line" smooth="yes"/>
      <point x="402" y="620"/>
      <point x="402" y="622"/>
      <point x="402" y="623" type="curve" smooth="yes"/>
      <point x="402" y="628"/>
      <point x="418" y="652"/>
      <point x="461" y="652" type="curve" smooth="yes"/>
      <point x="466" y="652"/>
      <point x="478" y="653"/>
      <point x="478" y="670" type="curve" smooth="yes"/>
      <point x="478" y="679"/>
      <point x="471" y="683"/>
      <point x="463" y="683" type="curve" smooth="yes"/>
      <point x="443" y="683"/>
      <point x="420" y="681"/>
      <point x="400" y="681" type="curve" smooth="yes"/>
      <point x="349" y="680"/>
      <point x="319.27273" y="679.36364"/>
      <point x="280" y="681" type="curve" smooth="yes"/>
      <point x="261.685" y="681.666"/>
      <point x="243.37" y="682.332"/>
      <point x="225" y="683" type="curve" smooth="yes"/>
      <point x="221" y="683"/>
      <point x="206" y="683"/>
      <point x="206" y="665" type="curve" smooth="yes"/>
      <point x="206" y="652"/>
      <point x="218" y="652"/>
      <point x="230" y="652" type="curve" smooth="yes"/>
      <point x="289" y="652"/>
      <point x="294" y="642"/>
      <point x="303" y="621" type="curve" smooth="yes"/>
      <point x="333" y="552"/>
      <point x="422" y="354"/>
      <point x="428" y="341" type="curve"/>
      <point x="418" y="329"/>
      <point x="262" y="165"/>
      <point x="236" y="138" type="curve" smooth="yes"/>
      <point x="176" y="76"/>
      <point x="136" y="37"/>
      <point x="52" y="31" type="curve" smooth="yes"/>
      <point x="40" y="30"/>
      <point x="29" y="29"/>
      <point x="29" y="13" type="curve" smooth="yes"/>
      <point x="29" y="7"/>
      <point x="33" y="0"/>
      <point x="43" y="0" type="curve" smooth="yes"/>
      <point x="54" y="0"/>
      <point x="86" y="3"/>
      <point x="136" y="3" type="curve" smooth="yes"/>
      <point x="180" y="3"/>
      <point x="235" y="0"/>
      <point x="246" y="0" type="curve" smooth="yes"/>
      <point x="251" y="0"/>
      <point x="266" y="0"/>
      <point x="266" y="18" type="curve" smooth="yes"/>
      <point x="266" y="30"/>
      <point x="254" y="31"/>
      <point x="252" y="31" type="curve" smooth="yes"/>
      <point x="244" y="32"/>
      <point x="214" y="34"/>
      <point x="214" y="60" type="curve" smooth="yes"/>
      <point x="214" y="76"/>
      <point x="226" y="89"/>
      <point x="257" y="122" type="curve" smooth="yes"/>
      <point x="347" y="215"/>
      <point x="431" y="302"/>
      <point x="440" y="313" type="curve"/>
      <point x="548" y="73" type="line" smooth="yes"/>
      <point x="553" y="63"/>
      <point x="553" y="61"/>
      <point x="553" y="60" type="curve" smooth="yes"/>
      <point x="553" y="55"/>
      <point x="537" y="33"/>
      <point x="494" y="31" type="curve" smooth="yes"/>
      <point x="489" y="31"/>
      <point x="477" y="30"/>
      <point x="477" y="13" type="curve" smooth="yes"/>
      <point x="477" y="4"/>
      <point x="484" y="0"/>
      <point x="492" y="0" type="curve" smooth="yes"/>
      <point x="512" y="0"/>
      <point x="535" y="2"/>
      <point x="555" y="2" type="curve" smooth="yes"/>
      <point x="606" y="3"/>
      <point x="635.72727" y="3.63636"/>
      <point x="675" y="2" type="curve" smooth="yes"/>
      <point x="693" y="1"/>
      <point x="712" y="1"/>
      <point x="730" y="0" type="curve" smooth="yes"/>
      <point x="734" y="0"/>
      <point x="749" y="0"/>
      <point x="749" y="18" type="curve" smooth="yes"/>
      <point x="749" y="31"/>
      <point x="737" y="31"/>
      <point x="725" y="31" type="curve" smooth="yes"/>
      <point x="666" y="31"/>
      <point x="661" y="42"/>
      <point x="652" y="62" type="curve" smooth="yes"/>
      <point x="604.048" y="168.893"/>
      <point x="556.096" y="275.786"/>
    </contour>
  </outline>
</glyph>
<glyph name="Y" format="2">
  <advance width="596"/>
  <unicode hex="0059"/>
  <outline>
    <contour>
      <point x="353" y="314" type="line"/>
      <point x="236" y="611" type="line" smooth="yes"/>
      <point x="230" y="625"/>
      <point x="230" y="627"/>
      <point x="230" y="629" type="curve" smooth="yes"/>
      <point x="230" y="652"/>
      <point x="278" y="652"/>
      <point x="287" y="652" type="curve" smooth="yes"/>
      <point x="300" y="652"/>
      <point x="312" y="652"/>
      <point x="312" y="670" type="curve" smooth="yes"/>
      <point x="312" y="680"/>
      <point x="303" y="683"/>
      <point x="296" y="683" type="curve" smooth="yes"/>
      <point x="276" y="683"/>
      <point x="253" y="681"/>
      <point x="233" y="681" type="curve" smooth="yes"/>
      <point x="178" y="680"/>
      <point x="141" y="680"/>
      <point x="112" y="681" type="curve" smooth="yes"/>
      <point x="96" y="682"/>
      <point x="73" y="683"/>
      <point x="57" y="683" type="curve" smooth="yes"/>
      <point x="52" y="683"/>
      <point x="38" y="683"/>
      <point x="38" y="665" type="curve" smooth="yes"/>
      <point x="38" y="652"/>
      <point x="49" y="652"/>
      <point x="61" y="652" type="curve" smooth="yes"/>
      <point x="120" y="652"/>
      <point x="124" y="642"/>
      <point x="133" y="619" type="curve" smooth="yes"/>
      <point x="263" y="288" type="line" smooth="yes"/>
      <point x="268" y="275"/>
      <point x="268" y="273"/>
      <point x="268" y="272" type="curve" smooth="yes"/>
      <point x="268" y="268"/>
      <point x="228" y="108"/>
      <point x="223" y="90" type="curve" smooth="yes"/>
      <point x="210" y="36"/>
      <point x="209" y="32"/>
      <point x="130" y="31" type="curve" smooth="yes"/>
      <point x="114" y="31"/>
      <point x="103" y="31"/>
      <point x="103" y="13" type="curve" smooth="yes"/>
      <point x="103" y="4"/>
      <point x="110" y="0"/>
      <point x="118" y="0" type="curve" smooth="yes"/>
      <point x="134" y="0"/>
      <point x="164" y="1"/>
      <point x="189" y="2" type="curve" smooth="yes"/>
      <point x="219" y="3"/>
      <point x="241" y="4"/>
      <point x="307" y="2" type="curve" smooth="yes"/>
      <point x="327" y="1"/>
      <point x="352" y="0"/>
      <point x="371" y="0" type="curve" smooth="yes"/>
      <point x="378" y="0"/>
      <point x="391" y="0"/>
      <point x="391" y="18" type="curve" smooth="yes"/>
      <point x="391" y="31"/>
      <point x="381" y="31"/>
      <point x="360" y="31" type="curve" smooth="yes"/>
      <point x="356" y="31"/>
      <point x="338" y="31"/>
      <point x="322" y="33" type="curve" smooth="yes"/>
      <point x="300" y="36"/>
      <point x="299" y="40"/>
      <point x="299" y="49" type="curve" smooth="yes"/>
      <point x="299" y="56"/>
      <point x="307" y="88"/>
      <point x="312" y="107" type="curve" smooth="yes"/>
      <point x="353" y="274" type="line"/>
      <point x="357" y="277"/>
      <point x="359" y="279"/>
      <point x="364" y="285" type="curve" smooth="yes"/>
      <point x="615" y="565" type="line" smooth="yes"/>
      <point x="621.50304" y="572.31592"/>
      <point x="627.7531912256001" y="578.9955392128"/>
      <point x="633.7740313945845" y="585.0963283254999" type="curve" smooth="yes"/>
      <point x="694.4143977023999" y="646.54192"/>
      <point x="731.7934399999999" y="649.2709600000001"/>
      <point x="770" y="652" type="curve" smooth="yes"/>
      <point x="778" y="653"/>
      <point x="782" y="662"/>
      <point x="782" y="670" type="curve" smooth="yes"/>
      <point x="782" y="678"/>
      <point x="776" y="683"/>
      <point x="769" y="683" type="curve" smooth="yes"/>
      <point x="767" y="683"/>
      <point x="737" y="680"/>
      <point x="687" y="680" type="curve" smooth="yes"/>
      <point x="655" y="680"/>
      <point x="620" y="683"/>
      <point x="589" y="683" type="curve" smooth="yes"/>
      <point x="584" y="683"/>
      <point x="571" y="683"/>
      <point x="571" y="665" type="curve" smooth="yes"/>
      <point x="571" y="653"/>
      <point x="582" y="652"/>
      <point x="588" y="652" type="curve"/>
      <point x="609" y="650"/>
      <point x="620" y="643"/>
      <point x="620" y="630" type="curve" smooth="yes"/>
      <point x="620" y="613"/>
      <point x="597" y="587"/>
      <point x="591" y="580" type="curve" smooth="yes"/>
    </contour>
  </outline>
</glyph>
<glyph name="Z" format="2">
  <advance width="699"/>
  <unicode hex="005A"/>
  <outline>
    <contour>
      <point x="725" y="648" type="line" smooth="yes"/>
      <point x="732" y="656"/>
      <point x="738" y="662"/>
      <point x="738" y="673" type="curve" smooth="yes"/>
      <point x="738" y="683"/>
      <point x="731" y="683"/>
      <point x="712" y="683" type="curve" smooth="yes"/>
      <point x="279" y="683" type="line" smooth="yes"/>
      <point x="254" y="683"/>
      <point x="253" y="682"/>
      <point x="247" y="662" type="curve" smooth="yes"/>
      <point x="194" y="490" type="line" smooth="yes"/>
      <point x="191" y="481"/>
      <point x="189" y="475"/>
      <point x="189" y="471" type="curve" smooth="yes"/>
      <point x="189" y="463"/>
      <point x="195" y="458"/>
      <point x="203" y="458" type="curve" smooth="yes"/>
      <point x="210" y="458"/>
      <point x="214" y="462"/>
      <point x="216" y="468" type="curve" smooth="yes"/>
      <point x="254" y="581"/>
      <point x="303" y="652"/>
      <point x="465" y="652" type="curve" smooth="yes"/>
      <point x="632" y="652" type="line"/>
      <point x="64" y="27" type="line"/>
      <point x="63" y="23"/>
      <point x="60" y="15"/>
      <point x="60" y="11" type="curve" smooth="yes"/>
      <point x="60" y="0"/>
      <point x="66" y="0"/>
      <point x="86" y="0" type="curve" smooth="yes"/>
      <point x="533" y="0" type="line" smooth="yes"/>
      <point x="558" y="0"/>
      <point x="559" y="1"/>
      <point x="565" y="20" type="curve" smooth="yes"/>
      <point x="635" y="240" type="line"/>
      <point x="635" y="241"/>
      <point x="639" y="253"/>
      <point x="639" y="254" type="curve" smooth="yes"/>
      <point x="639" y="258"/>
      <point x="637" y="267"/>
      <point x="626" y="267" type="curve" smooth="yes"/>
      <point x="615" y="267"/>
      <point x="613" y="262"/>
      <point x="607" y="243" type="curve" smooth="yes"/>
      <point x="565" y="113"/>
      <point x="520" y="34"/>
      <point x="343" y="34" type="curve" smooth="yes"/>
      <point x="167" y="34" type="line"/>
    </contour>
  </outline>
</glyph>
<glyph name="a" format="2">
  <advance width="544"/>
  <unicode hex="0061"/>
  <outline>
    <contour>
      <point x="42" y="151" type="curve" smooth="yes"/>
      <point x="42" y="41"/>
      <point x="112" y="-11"/>
      <point x="179" y="-11" type="curve" smooth="yes"/>
      <point x="244" y="-11"/>
      <point x="297" y="43"/>
      <point x="313" y="62" type="curve"/>
      <point x="324" y="7"/>
      <point x="374" y="-11"/>
      <point x="406" y="-11" type="curve" smooth="yes"/>
      <point x="435" y="-11"/>
      <point x="460" y="2"/>
      <point x="482" y="44" type="curve" smooth="yes"/>
      <point x="500" y="77"/>
      <point x="514" y="139"/>
      <point x="514" y="143" type="curve" smooth="yes"/>
      <point x="514" y="148"/>
      <point x="511" y="155"/>
      <point x="501" y="155" type="curve" smooth="yes"/>
      <point x="489" y="155"/>
      <point x="488" y="150"/>
      <point x="484" y="131" type="curve" smooth="yes"/>
      <point x="462" y="44"/>
      <point x="440" y="14"/>
      <point x="409" y="14" type="curve" smooth="yes"/>
      <point x="384" y="14"/>
      <point x="378" y="38"/>
      <point x="378" y="60" type="curve" smooth="yes"/>
      <point x="378" y="79"/>
      <point x="383" y="99"/>
      <point x="392" y="134" type="curve" smooth="yes"/>
      <point x="423" y="261"/>
      <point x="442" y="337"/>
      <point x="446" y="352" type="curve" smooth="yes"/>
      <point x="450" y="366"/>
      <point x="456" y="390"/>
      <point x="456" y="393" type="curve" smooth="yes"/>
      <point x="456" y="409"/>
      <point x="443" y="422"/>
      <point x="425" y="422" type="curve" smooth="yes"/>
      <point x="412" y="422"/>
      <point x="387" y="414"/>
      <point x="382" y="380" type="curve"/>
      <point x="363" y="416"/>
      <point x="332" y="442"/>
      <point x="287" y="442" type="curve" smooth="yes"/>
      <point x="171" y="442"/>
      <point x="42" y="304"/>
    </contour>
    <contour>
      <point x="116" y="108" type="curve" smooth="yes"/>
      <point x="116" y="157"/>
      <point x="145" y="272"/>
      <point x="169" y="320" type="curve" smooth="yes"/>
      <point x="201" y="380"/>
      <point x="247" y="417"/>
      <point x="287" y="417" type="curve" smooth="yes"/>
      <point x="354" y="417"/>
      <point x="369" y="337"/>
      <point x="369" y="330" type="curve" smooth="yes"/>
      <point x="369" y="325"/>
      <point x="367" y="319"/>
      <point x="366" y="315" type="curve" smooth="yes"/>
      <point x="349.683" y="250.731"/>
      <point x="333.366" y="186.462"/>
      <point x="317" y="122" type="curve" smooth="yes"/>
      <point x="312" y="103"/>
      <point x="312" y="102"/>
      <point x="296" y="83" type="curve" smooth="yes"/>
      <point x="260" y="40"/>
      <point x="219" y="14"/>
      <point x="182" y="14" type="curve" smooth="yes"/>
      <point x="133" y="14"/>
      <point x="116" y="65"/>
    </contour>
  </outline>
</glyph>
<glyph name="b" format="2">
  <advance width="440"/>
  <unicode hex="0062"/>
  <outline>
    <contour>
      <point x="181" y="-11" type="curve" smooth="yes"/>
      <point x="298" y="-11"/>
      <point x="426" y="130"/>
      <point x="426" y="280" type="curve" smooth="yes"/>
      <point x="426" y="382"/>
      <point x="363" y="442"/>
      <point x="288" y="442" type="curve" smooth="yes"/>
      <point x="237" y="442"/>
      <point x="193" y="407"/>
      <point x="170" y="385" type="curve"/>
      <point x="239" y="660" type="line" smooth="yes"/>
      <point x="243" y="674"/>
      <point x="243" y="676"/>
      <point x="243" y="680" type="curve" smooth="yes"/>
      <point x="243" y="689"/>
      <point x="237" y="694"/>
      <point x="228" y="694" type="curve" smooth="yes"/>
      <point x="214" y="694"/>
      <point x="126" y="686"/>
      <point x="106" y="684" type="curve" smooth="yes"/>
      <point x="96" y="683"/>
      <point x="85" y="682"/>
      <point x="85" y="665" type="curve" smooth="yes"/>
      <point x="85" y="652"/>
      <point x="96" y="652"/>
      <point x="112" y="652" type="curve" smooth="yes"/>
      <point x="159" y="652"/>
      <point x="159" y="645"/>
      <point x="159" y="636" type="curve" smooth="yes"/>
      <point x="159" y="630"/>
      <point x="159" y="628"/>
      <point x="152" y="601" type="curve" smooth="yes"/>
      <point x="85" y="334"/>
      <point x="72" y="283"/>
      <point x="61" y="236" type="curve" smooth="yes"/>
      <point x="54" y="211"/>
      <point x="47" y="181"/>
      <point x="47" y="149" type="curve" smooth="yes"/>
      <point x="47" y="63"/>
      <point x="95" y="-11"/>
    </contour>
    <contour>
      <point x="181" y="14" type="curve" smooth="yes"/>
      <point x="131" y="14"/>
      <point x="111" y="64"/>
      <point x="111" y="115" type="curve" smooth="yes"/>
      <point x="111" y="150"/>
      <point x="118" y="177"/>
      <point x="141" y="268" type="curve" smooth="yes"/>
      <point x="145.995" y="287.98"/>
      <point x="150.99" y="307.96"/>
      <point x="156" y="328" type="curve"/>
      <point x="156.0" y="328.0"/>
      <point x="156.0" y="328.0"/>
      <point x="156" y="328" type="curve"/>
      <point x="184" y="368"/>
      <point x="235" y="417"/>
      <point x="286" y="417" type="curve" smooth="yes"/>
      <point x="333" y="417"/>
      <point x="352" y="370"/>
      <point x="352" y="323" type="curve" smooth="yes"/>
      <point x="352" y="278"/>
      <point x="324" y="154"/>
      <point x="293" y="101" type="curve" smooth="yes"/>
      <point x="256" y="37"/>
      <point x="212" y="14"/>
    </contour>
  </outline>
</glyph>
<glyph name="c" format="2">
  <advance width="444"/>
  <unicode hex="0063"/>
  <outline>
    <contour>
      <point x="402" y="382" type="curve"/>
      <point x="364" y="381"/>
      <point x="344" y="352"/>
      <point x="344" y="327" type="curve" smooth="yes"/>
      <point x="344" y="298"/>
      <point x="370" y="291"/>
      <point x="382" y="291" type="curve" smooth="yes"/>
      <point x="402" y="291"/>
      <point x="438" y="308"/>
      <point x="438" y="355" type="curve" smooth="yes"/>
      <point x="438" y="408"/>
      <point x="385" y="442"/>
      <point x="316" y="442" type="curve" smooth="yes"/>
      <point x="180" y="442"/>
      <point x="43" y="304"/>
      <point x="43" y="160" type="curve" smooth="yes"/>
      <point x="43" y="60"/>
      <point x="110" y="-11"/>
      <point x="211" y="-11" type="curve" smooth="yes"/>
      <point x="361" y="-11"/>
      <point x="445" y="93"/>
      <point x="445" y="106" type="curve" smooth="yes"/>
      <point x="445" y="112"/>
      <point x="438" y="120"/>
      <point x="431" y="120" type="curve" smooth="yes"/>
      <point x="426" y="120"/>
      <point x="425" y="119"/>
      <point x="416" y="108" type="curve" smooth="yes"/>
      <point x="356" y="34"/>
      <point x="265" y="14"/>
      <point x="213" y="14" type="curve" smooth="yes"/>
      <point x="157" y="14"/>
      <point x="120" y="51"/>
      <point x="120" y="123" type="curve" smooth="yes"/>
      <point x="120" y="166"/>
      <point x="139" y="265"/>
      <point x="179" y="329" type="curve" smooth="yes"/>
      <point x="202" y="365"/>
      <point x="254" y="417"/>
      <point x="317" y="417" type="curve" smooth="yes"/>
      <point x="336" y="417"/>
      <point x="378" y="413"/>
    </contour>
  </outline>
</glyph>
<glyph name="e" format="2">
  <advance width="477"/>
  <unicode hex="0065"/>
  <outline>
    <contour>
      <point x="137" y="229" type="curve"/>
      <point x="198" y="229"/>
      <point x="263" y="229"/>
      <point x="316" y="242" type="curve" smooth="yes"/>
      <point x="410" y="265"/>
      <point x="427" y="321"/>
      <point x="427" y="355" type="curve" smooth="yes"/>
      <point x="427" y="412"/>
      <point x="374" y="442"/>
      <point x="315" y="442" type="curve" smooth="yes"/>
      <point x="199" y="442"/>
      <point x="47" y="344"/>
      <point x="47" y="172" type="curve" smooth="yes"/>
      <point x="47" y="77"/>
      <point x="103" y="-11"/>
      <point x="211" y="-11" type="curve" smooth="yes"/>
      <point x="361" y="-11"/>
      <point x="445" y="93"/>
      <point x="445" y="106" type="curve" smooth="yes"/>
      <point x="445" y="112"/>
      <point x="438" y="120"/>
      <point x="431" y="120" type="curve" smooth="yes"/>
      <point x="426" y="120"/>
      <point x="425" y="119"/>
      <point x="416" y="108" type="curve" smooth="yes"/>
      <point x="356" y="34"/>
      <point x="265" y="14"/>
      <point x="213" y="14" type="curve" smooth="yes"/>
      <point x="142" y="14"/>
      <point x="123" y="81"/>
      <point x="123" y="131" type="curve" smooth="yes"/>
      <point x="123" y="133"/>
      <point x="123" y="168"/>
    </contour>
    <contour>
      <point x="144" y="254" type="curve"/>
      <point x="188" y="412"/>
      <point x="299" y="417"/>
      <point x="315" y="417" type="curve" smooth="yes"/>
      <point x="349" y="417"/>
      <point x="390" y="401"/>
      <point x="390" y="355" type="curve" smooth="yes"/>
      <point x="390" y="254"/>
      <point x="239" y="254"/>
    </contour>
  </outline>
</glyph>
<glyph name="f" format="2">
  <advance width="498"/>
  <unicode hex="0066"/>
  <outline>
    <contour>
      <point x="374" y="400" type="line"/>
      <point x="464" y="400" type="line" smooth="yes"/>
      <point x="484" y="400"/>
      <point x="494" y="400"/>
      <point x="494" y="418" type="curve" smooth="yes"/>
      <point x="494" y="431"/>
      <point x="484" y="431"/>
      <point x="465" y="431" type="curve" smooth="yes"/>
      <point x="380" y="431" type="line"/>
      <point x="391" y="491"/>
      <point x="405" y="573"/>
      <point x="418" y="627" type="curve" smooth="yes"/>
      <point x="427" y="666"/>
      <point x="451" y="680"/>
      <point x="471" y="680" type="curve" smooth="yes"/>
      <point x="477" y="680"/>
      <point x="500" y="678"/>
      <point x="517" y="666" type="curve"/>
      <point x="497" y="662"/>
      <point x="468" y="644"/>
      <point x="468" y="611" type="curve" smooth="yes"/>
      <point x="468" y="586"/>
      <point x="487" y="575"/>
      <point x="506" y="575" type="curve" smooth="yes"/>
      <point x="533" y="575"/>
      <point x="561" y="597"/>
      <point x="561" y="635" type="curve" smooth="yes"/>
      <point x="561" y="680"/>
      <point x="517" y="705"/>
      <point x="470" y="705" type="curve" smooth="yes"/>
      <point x="425" y="705"/>
      <point x="380" y="673"/>
      <point x="359" y="632" type="curve" smooth="yes"/>
      <point x="337" y="589"/>
      <point x="330" y="550"/>
      <point x="309" y="431" type="curve"/>
      <point x="237" y="431" type="line" smooth="yes"/>
      <point x="218" y="431"/>
      <point x="206" y="431"/>
      <point x="206" y="413" type="curve" smooth="yes"/>
      <point x="206" y="400"/>
      <point x="217" y="400"/>
      <point x="235" y="400" type="curve" smooth="yes"/>
      <point x="303" y="400" type="line"/>
      <point x="275" y="255"/>
      <point x="240" y="55"/>
      <point x="218" y="-49" type="curve" smooth="yes"/>
      <point x="206" y="-104"/>
      <point x="190" y="-180"/>
      <point x="142" y="-180" type="curve" smooth="yes"/>
      <point x="127" y="-180"/>
      <point x="107" y="-174"/>
      <point x="97" y="-166" type="curve"/>
      <point x="122" y="-162"/>
      <point x="147" y="-141"/>
      <point x="147" y="-111" type="curve" smooth="yes"/>
      <point x="147" y="-86"/>
      <point x="128" y="-75"/>
      <point x="109" y="-75" type="curve" smooth="yes"/>
      <point x="82" y="-75"/>
      <point x="54" y="-97"/>
      <point x="54" y="-135" type="curve" smooth="yes"/>
      <point x="54" y="-181"/>
      <point x="100" y="-205"/>
      <point x="142" y="-205" type="curve" smooth="yes"/>
      <point x="244" y="-205"/>
      <point x="291" y="-39"/>
      <point x="307" y="47" type="curve" smooth="yes"/>
    </contour>
  </outline>
</glyph>
<glyph name="h" format="2">
  <advance width="592"/>
  <unicode hex="0068"/>
  <outline>
    <contour>
      <point x="364" y="442" type="curve" smooth="yes"/>
      <point x="304" y="442"/>
      <point x="253" y="414"/>
      <point x="213" y="365" type="curve"/>
      <point x="287" y="660" type="line" smooth="yes"/>
      <point x="291" y="674"/>
      <point x="291" y="676"/>
      <point x="291" y="680" type="curve" smooth="yes"/>
      <point x="291" y="689"/>
      <point x="285" y="694"/>
      <point x="276" y="694" type="curve" smooth="yes"/>
      <point x="262" y="694"/>
      <point x="174" y="686"/>
      <point x="154" y="684" type="curve" smooth="yes"/>
      <point x="144" y="683"/>
      <point x="133" y="682"/>
      <point x="133" y="665" type="curve" smooth="yes"/>
      <point x="133" y="652"/>
      <point x="144" y="652"/>
      <point x="160" y="652" type="curve" smooth="yes"/>
      <point x="207" y="652"/>
      <point x="207" y="645"/>
      <point x="207" y="636" type="curve" smooth="yes"/>
      <point x="207" y="632"/>
      <point x="207" y="630"/>
      <point x="202" y="612" type="curve" smooth="yes"/>
      <point x="59" y="37" type="line" smooth="yes"/>
      <point x="55" y="23"/>
      <point x="55" y="21"/>
      <point x="55" y="18" type="curve" smooth="yes"/>
      <point x="55" y="2"/>
      <point x="68" y="-11"/>
      <point x="86" y="-11" type="curve" smooth="yes"/>
      <point x="103" y="-11"/>
      <point x="117" y="-1"/>
      <point x="124" y="13" type="curve"/>
      <point x="126" y="18"/>
      <point x="135" y="54"/>
      <point x="140" y="75" type="curve" smooth="yes"/>
      <point x="167" y="179"/>
      <point x="176" y="217"/>
      <point x="179" y="232" type="curve"/>
      <point x="191" y="276" type="line"/>
      <point x="196" y="299"/>
      <point x="253" y="417"/>
      <point x="361" y="417" type="curve" smooth="yes"/>
      <point x="415" y="417"/>
      <point x="415" y="364"/>
      <point x="415" y="347" type="curve" smooth="yes"/>
      <point x="415" y="286"/>
      <point x="368" y="164"/>
      <point x="357" y="133" type="curve" smooth="yes"/>
      <point x="345" y="102"/>
      <point x="341" y="92"/>
      <point x="341" y="73" type="curve" smooth="yes"/>
      <point x="341" y="19"/>
      <point x="382" y="-11"/>
      <point x="427" y="-11" type="curve" smooth="yes"/>
      <point x="523" y="-11"/>
      <point x="562" y="132"/>
      <point x="562" y="143" type="curve" smooth="yes"/>
      <point x="562" y="148"/>
      <point x="559" y="155"/>
      <point x="549" y="155" type="curve" smooth="yes"/>
      <point x="538" y="155"/>
      <point x="537" y="150"/>
      <point x="533" y="137" type="curve" smooth="yes"/>
      <point x="508" y="52"/>
      <point x="466" y="14"/>
      <point x="430" y="14" type="curve" smooth="yes"/>
      <point x="423" y="14"/>
      <point x="405" y="14"/>
      <point x="405" y="46" type="curve" smooth="yes"/>
      <point x="405" y="71"/>
      <point x="415" y="97"/>
      <point x="423" y="119" type="curve" smooth="yes"/>
      <point x="443" y="170"/>
      <point x="483" y="276"/>
      <point x="483" y="332" type="curve" smooth="yes"/>
      <point x="483" y="421"/>
      <point x="417" y="442"/>
    </contour>
  </outline>
</glyph>
<glyph name="k" format="2">
  <advance width="535"/>
  <unicode hex="006B"/>
  <outline>
    <contour>
      <point x="287" y="660" type="line" smooth="yes"/>
      <point x="291" y="674"/>
      <point x="291" y="676"/>
      <point x="291" y="680" type="curve" smooth="yes"/>
      <point x="291" y="689"/>
      <point x="285" y="694"/>
      <point x="276" y="694" type="curve" smooth="yes"/>
      <point x="262" y="694"/>
      <point x="174" y="686"/>
      <point x="154" y="684" type="curve" smooth="yes"/>
      <point x="144" y="683"/>
      <point x="133" y="682"/>
      <point x="133" y="665" type="curve" smooth="yes"/>
      <point x="133" y="652"/>
      <point x="144" y="652"/>
      <point x="160" y="652" type="curve" smooth="yes"/>
      <point x="207" y="652"/>
      <point x="207" y="645"/>
      <point x="207" y="636" type="curve" smooth="yes"/>
      <point x="207" y="632"/>
      <point x="207" y="630"/>
      <point x="202" y="612" type="curve" smooth="yes"/>
      <point x="59" y="37" type="line" smooth="yes"/>
      <point x="55" y="23"/>
      <point x="55" y="21"/>
      <point x="55" y="18" type="curve" smooth="yes"/>
      <point x="55" y="2"/>
      <point x="68" y="-11"/>
      <point x="86" y="-11" type="curve" smooth="yes"/>
      <point x="119" y="-11"/>
      <point x="126" y="18"/>
      <point x="131" y="38" type="curve" smooth="yes"/>
      <point x="178" y="227" type="line"/>
      <point x="246" y="221"/>
      <point x="297" y="194"/>
      <point x="297" y="144" type="curve" smooth="yes"/>
      <point x="297" y="138"/>
      <point x="297" y="134"/>
      <point x="294" y="119" type="curve" smooth="yes"/>
      <point x="293" y="115"/>
      <point x="290" y="101"/>
      <point x="290" y="90" type="curve" smooth="yes"/>
      <point x="290" y="31"/>
      <point x="331" y="-11"/>
      <point x="386" y="-11" type="curve" smooth="yes"/>
      <point x="424" y="-11"/>
      <point x="448" y="12"/>
      <point x="466" y="41" type="curve" smooth="yes"/>
      <point x="491" y="79"/>
      <point x="505" y="139"/>
      <point x="505" y="143" type="curve" smooth="yes"/>
      <point x="505" y="148"/>
      <point x="502" y="155"/>
      <point x="492" y="155" type="curve" smooth="yes"/>
      <point x="481" y="155"/>
      <point x="479" y="150"/>
      <point x="474" y="132" type="curve" smooth="yes"/>
      <point x="461" y="81"/>
      <point x="436" y="14"/>
      <point x="389" y="14" type="curve" smooth="yes"/>
      <point x="360" y="14"/>
      <point x="357" y="40"/>
      <point x="357" y="62" type="curve" smooth="yes"/>
      <point x="357" y="87"/>
      <point x="363" y="113"/>
      <point x="364" y="115" type="curve"/>
      <point x="366" y="121"/>
      <point x="368" y="133"/>
      <point x="368" y="145" type="curve" smooth="yes"/>
      <point x="368" y="215"/>
      <point x="295" y="242"/>
      <point x="218" y="251" type="curve"/>
      <point x="248" y="270"/>
      <point x="270" y="291"/>
      <point x="302" y="323" type="curve" smooth="yes"/>
      <point x="353" y="374"/>
      <point x="395" y="417"/>
      <point x="448" y="417" type="curve" smooth="yes"/>
      <point x="460" y="417"/>
      <point x="473" y="414"/>
      <point x="481" y="405" type="curve"/>
      <point x="436" y="401"/>
      <point x="425" y="364"/>
      <point x="425" y="350" type="curve" smooth="yes"/>
      <point x="425" y="331"/>
      <point x="439" y="314"/>
      <point x="464" y="314" type="curve" smooth="yes"/>
      <point x="487" y="314"/>
      <point x="519" y="332"/>
      <point x="519" y="376" type="curve" smooth="yes"/>
      <point x="519" y="409"/>
      <point x="495" y="442"/>
      <point x="448" y="442" type="curve" smooth="yes"/>
      <point x="387" y="442"/>
      <point x="338" y="393"/>
      <point x="296" y="350" type="curve" smooth="yes"/>
      <point x="248" y="303"/>
      <point x="224" y="279"/>
      <point x="187" y="263" type="curve"/>
    </contour>
  </outline>
</glyph>
<glyph name="l" format="2">
  <advance width="306"/>
  <unicode hex="006C"/>
  <outline>
    <contour>
      <point x="258" y="660" type="line" smooth="yes"/>
      <point x="262" y="674"/>
      <point x="262" y="676"/>
      <point x="262" y="680" type="curve" smooth="yes"/>
      <point x="262" y="689"/>
      <point x="256" y="694"/>
      <point x="247" y="694" type="curve" smooth="yes"/>
      <point x="230" y="694"/>
      <point x="147" y="686"/>
      <point x="125" y="684" type="curve" smooth="yes"/>
      <point x="117" y="683"/>
      <point x="105" y="682"/>
      <point x="105" y="665" type="curve" smooth="yes"/>
      <point x="105" y="652"/>
      <point x="116" y="652"/>
      <point x="131" y="652" type="curve" smooth="yes"/>
      <point x="178" y="652"/>
      <point x="178" y="644"/>
      <point x="178" y="636" type="curve" smooth="yes"/>
      <point x="178" y="632"/>
      <point x="178" y="630"/>
      <point x="173" y="612" type="curve" smooth="yes"/>
      <point x="50" y="120" type="line" smooth="yes"/>
      <point x="45" y="100"/>
      <point x="45" y="86"/>
      <point x="45" y="82" type="curve" smooth="yes"/>
      <point x="45" y="19"/>
      <point x="96" y="-11"/>
      <point x="140" y="-11" type="curve" smooth="yes"/>
      <point x="185" y="-11"/>
      <point x="206" y="25"/>
      <point x="217" y="47" type="curve" smooth="yes"/>
      <point x="235" y="83"/>
      <point x="247" y="140"/>
      <point x="247" y="143" type="curve" smooth="yes"/>
      <point x="247" y="148"/>
      <point x="244" y="155"/>
      <point x="234" y="155" type="curve" smooth="yes"/>
      <point x="222" y="155"/>
      <point x="221" y="150"/>
      <point x="217" y="131" type="curve" smooth="yes"/>
      <point x="200" y="63"/>
      <point x="180" y="14"/>
      <point x="143" y="14" type="curve" smooth="yes"/>
      <point x="123" y="14"/>
      <point x="112" y="28"/>
      <point x="112" y="60" type="curve" smooth="yes"/>
      <point x="112" y="81"/>
      <point x="114" y="88"/>
      <point x="118" y="104" type="curve" smooth="yes"/>
    </contour>
  </outline>
</glyph>
<glyph name="m" format="2">
  <advance width="905"/>
  <unicode hex="006D"/>
  <outline>
    <contour>
      <point x="189" y="157" type="line" smooth="yes"/>
      <point x="200" y="204"/>
      <point x="219" y="277"/>
      <point x="220" y="285" type="curve"/>
      <point x="222" y="291"/>
      <point x="247" y="339"/>
      <point x="283" y="374" type="curve" smooth="yes"/>
      <point x="312" y="401"/>
      <point x="350" y="417"/>
      <point x="389" y="417" type="curve" smooth="yes"/>
      <point x="443" y="417"/>
      <point x="443" y="364"/>
      <point x="443" y="347" type="curve" smooth="yes"/>
      <point x="443" y="335"/>
      <point x="443" y="321"/>
      <point x="431" y="272" type="curve" smooth="yes"/>
      <point x="408" y="183" type="line" smooth="yes"/>
      <point x="376" y="54"/>
      <point x="368" y="23"/>
      <point x="368" y="18" type="curve" smooth="yes"/>
      <point x="368" y="5"/>
      <point x="377" y="-11"/>
      <point x="399" y="-11" type="curve" smooth="yes"/>
      <point x="413" y="-11"/>
      <point x="428" y="-2"/>
      <point x="435" y="10" type="curve"/>
      <point x="438" y="16"/>
      <point x="446" y="48"/>
      <point x="451" y="68" type="curve" smooth="yes"/>
      <point x="474" y="157" type="line" smooth="yes"/>
      <point x="485" y="204"/>
      <point x="504" y="277"/>
      <point x="505" y="285" type="curve"/>
      <point x="507" y="291"/>
      <point x="532" y="339"/>
      <point x="568" y="374" type="curve" smooth="yes"/>
      <point x="597" y="401"/>
      <point x="635" y="417"/>
      <point x="674" y="417" type="curve" smooth="yes"/>
      <point x="728" y="417"/>
      <point x="728" y="364"/>
      <point x="728" y="347" type="curve" smooth="yes"/>
      <point x="728" y="286"/>
      <point x="681" y="164"/>
      <point x="670" y="133" type="curve" smooth="yes"/>
      <point x="658" y="102"/>
      <point x="654" y="92"/>
      <point x="654" y="73" type="curve" smooth="yes"/>
      <point x="654" y="19"/>
      <point x="695" y="-11"/>
      <point x="740" y="-11" type="curve" smooth="yes"/>
      <point x="836" y="-11"/>
      <point x="875" y="132"/>
      <point x="875" y="143" type="curve" smooth="yes"/>
      <point x="875" y="148"/>
      <point x="872" y="155"/>
      <point x="862" y="155" type="curve" smooth="yes"/>
      <point x="851" y="155"/>
      <point x="850" y="150"/>
      <point x="846" y="137" type="curve" smooth="yes"/>
      <point x="821" y="52"/>
      <point x="779" y="14"/>
      <point x="743" y="14" type="curve" smooth="yes"/>
      <point x="736" y="14"/>
      <point x="718" y="14"/>
      <point x="718" y="46" type="curve" smooth="yes"/>
      <point x="718" y="71"/>
      <point x="728" y="97"/>
      <point x="736" y="119" type="curve" smooth="yes"/>
      <point x="756" y="170"/>
      <point x="796" y="276"/>
      <point x="796" y="332" type="curve" smooth="yes"/>
      <point x="796" y="421"/>
      <point x="730" y="442"/>
      <point x="677" y="442" type="curve" smooth="yes"/>
      <point x="582" y="442"/>
      <point x="530" y="371"/>
      <point x="512" y="346" type="curve"/>
      <point x="502" y="429"/>
      <point x="434" y="442"/>
      <point x="392" y="442" type="curve" smooth="yes"/>
      <point x="299" y="442"/>
      <point x="250" y="376"/>
      <point x="234" y="355" type="curve"/>
      <point x="228" y="409"/>
      <point x="187" y="442"/>
      <point x="137" y="442" type="curve" smooth="yes"/>
      <point x="95" y="442"/>
      <point x="74" y="411"/>
      <point x="60" y="384" type="curve" smooth="yes"/>
      <point x="43" y="349"/>
      <point x="29" y="292"/>
      <point x="29" y="288" type="curve" smooth="yes"/>
      <point x="29" y="279"/>
      <point x="36" y="276"/>
      <point x="43" y="276" type="curve" smooth="yes"/>
      <point x="54" y="276"/>
      <point x="56" y="281"/>
      <point x="61" y="301" type="curve" smooth="yes"/>
      <point x="80" y="380"/>
      <point x="101" y="417"/>
      <point x="135" y="417" type="curve" smooth="yes"/>
      <point x="165" y="417"/>
      <point x="165" y="385"/>
      <point x="165" y="370" type="curve" smooth="yes"/>
      <point x="165" y="349"/>
      <point x="157" y="318"/>
      <point x="151" y="292" type="curve" smooth="yes"/>
      <point x="144" y="266"/>
      <point x="134" y="223"/>
      <point x="130" y="211" type="curve"/>
      <point x="90" y="47" type="line" smooth="yes"/>
      <point x="83" y="23"/>
      <point x="83" y="21"/>
      <point x="83" y="18" type="curve" smooth="yes"/>
      <point x="83" y="5"/>
      <point x="92" y="-11"/>
      <point x="114" y="-11" type="curve" smooth="yes"/>
      <point x="128" y="-11"/>
      <point x="143" y="-2"/>
      <point x="150" y="10" type="curve"/>
      <point x="153" y="16"/>
      <point x="161" y="48"/>
      <point x="166" y="68" type="curve" smooth="yes"/>
    </contour>
  </outline>
</glyph>
<glyph name="o" format="2">
  <advance width="497"/>
  <unicode hex="006F"/>
  <outline>
    <contour>
      <point x="482" y="271" type="curve" smooth="yes"/>
      <point x="482" y="371"/>
      <point x="414" y="442"/>
      <point x="316" y="442" type="curve" smooth="yes"/>
      <point x="180" y="442"/>
      <point x="43" y="304"/>
      <point x="43" y="160" type="curve" smooth="yes"/>
      <point x="43" y="55"/>
      <point x="116" y="-11"/>
      <point x="209" y="-11" type="curve" smooth="yes"/>
      <point x="345" y="-11"/>
      <point x="482" y="127"/>
    </contour>
    <contour>
      <point x="210" y="14" type="curve" smooth="yes"/>
      <point x="170" y="14"/>
      <point x="120" y="39"/>
      <point x="120" y="123" type="curve" smooth="yes"/>
      <point x="120" y="166"/>
      <point x="139" y="265"/>
      <point x="179" y="329" type="curve" smooth="yes"/>
      <point x="207" y="374"/>
      <point x="261" y="417"/>
      <point x="315" y="417" type="curve" smooth="yes"/>
      <point x="360" y="417"/>
      <point x="405" y="386"/>
      <point x="405" y="308" type="curve" smooth="yes"/>
      <point x="405" y="270"/>
      <point x="388" y="174"/>
      <point x="349" y="109" type="curve" smooth="yes"/>
      <point x="317" y="54"/>
      <point x="261" y="14"/>
    </contour>
  </outline>
</glyph>
<glyph name="p" format="2">
  <advance width="515"/>
  <unicode hex="0070"/>
  <outline>
    <contour>
      <point x="46" y="-125" type="line" smooth="yes"/>
      <point x="39" y="-154"/>
      <point x="37" y="-163"/>
      <point x="-6" y="-163" type="curve" smooth="yes"/>
      <point x="-17" y="-163"/>
      <point x="-29" y="-163"/>
      <point x="-29" y="-181" type="curve" smooth="yes"/>
      <point x="-29" y="-185"/>
      <point x="-27" y="-194"/>
      <point x="-16" y="-194" type="curve" smooth="yes"/>
      <point x="27" y="-192" type="line"/>
      <point x="33" y="-191"/>
      <point x="56" y="-191"/>
      <point x="70" y="-191" type="curve" smooth="yes"/>
      <point x="87" y="-191"/>
      <point x="104" y="-192"/>
      <point x="121" y="-192" type="curve" smooth="yes"/>
      <point x="137" y="-192"/>
      <point x="154" y="-194"/>
      <point x="169" y="-194" type="curve" smooth="yes"/>
      <point x="175" y="-194"/>
      <point x="188" y="-194"/>
      <point x="188" y="-176" type="curve" smooth="yes"/>
      <point x="188" y="-163"/>
      <point x="178" y="-163"/>
      <point x="161" y="-163" type="curve" smooth="yes"/>
      <point x="114" y="-163"/>
      <point x="114" y="-156"/>
      <point x="114" y="-147" type="curve" smooth="yes"/>
      <point x="114" y="-141"/>
      <point x="121" y="-114"/>
      <point x="125" y="-98" type="curve" smooth="yes"/>
      <point x="162" y="51" type="line"/>
      <point x="172" y="30"/>
      <point x="200" y="-11"/>
      <point x="257" y="-11" type="curve" smooth="yes"/>
      <point x="374" y="-11"/>
      <point x="502" y="130"/>
      <point x="502" y="280" type="curve" smooth="yes"/>
      <point x="502" y="382"/>
      <point x="439" y="442"/>
      <point x="364" y="442" type="curve" smooth="yes"/>
      <point x="343" y="442"/>
      <point x="293" y="437"/>
      <point x="232" y="369" type="curve"/>
      <point x="217" y="425"/>
      <point x="171" y="442"/>
      <point x="137" y="442" type="curve" smooth="yes"/>
      <point x="95" y="442"/>
      <point x="74" y="411"/>
      <point x="60" y="384" type="curve" smooth="yes"/>
      <point x="43" y="349"/>
      <point x="29" y="292"/>
      <point x="29" y="288" type="curve" smooth="yes"/>
      <point x="29" y="279"/>
      <point x="36" y="276"/>
      <point x="43" y="276" type="curve" smooth="yes"/>
      <point x="54" y="276"/>
      <point x="56" y="281"/>
      <point x="61" y="301" type="curve" smooth="yes"/>
      <point x="80" y="380"/>
      <point x="101" y="417"/>
      <point x="135" y="417" type="curve" smooth="yes"/>
      <point x="165" y="417"/>
      <point x="165" y="385"/>
      <point x="165" y="370" type="curve" smooth="yes"/>
      <point x="165" y="362"/>
      <point x="164" y="347"/>
      <point x="162" y="339" type="curve" smooth="yes"/>
    </contour>
    <contour>
      <point x="227" y="308" type="line" smooth="yes"/>
      <point x="232" y="328"/>
      <point x="232" y="330"/>
      <point x="245" y="345" type="curve" smooth="yes"/>
      <point x="272" y="379"/>
      <point x="317" y="417"/>
      <point x="362" y="417" type="curve" smooth="yes"/>
      <point x="409" y="417"/>
      <point x="428" y="370"/>
      <point x="428" y="323" type="curve" smooth="yes"/>
      <point x="428" y="278"/>
      <point x="400" y="154"/>
      <point x="369" y="101" type="curve" smooth="yes"/>
      <point x="335" y="44"/>
      <point x="293" y="14"/>
      <point x="256" y="14" type="curve" smooth="yes"/>
      <point x="191" y="14"/>
      <point x="175" y="93"/>
      <point x="175" y="100" type="curve" smooth="yes"/>
      <point x="175" y="106"/>
      <point x="177" y="111"/>
      <point x="178" y="116" type="curve"/>
    </contour>
  </outline>
</glyph>
<glyph name="q" format="2">
  <advance width="459"/>
  <unicode hex="0071"/>
  <outline>
    <contour>
      <point x="274" y="-191" type="curve" smooth="yes"/>
      <point x="334" y="-191"/>
      <point x="351" y="-194"/>
      <point x="378" y="-194" type="curve" smooth="yes"/>
      <point x="384" y="-194"/>
      <point x="397" y="-194"/>
      <point x="397" y="-176" type="curve" smooth="yes"/>
      <point x="397" y="-163"/>
      <point x="387" y="-163"/>
      <point x="370" y="-163" type="curve" smooth="yes"/>
      <point x="323" y="-163"/>
      <point x="323" y="-156"/>
      <point x="323" y="-147" type="curve" smooth="yes"/>
      <point x="323" y="-146"/>
      <point x="323" y="-140"/>
      <point x="327" y="-125" type="curve" smooth="yes"/>
      <point x="461" y="408" type="line" smooth="yes"/>
      <point x="465" y="422"/>
      <point x="465" y="424"/>
      <point x="465" y="428" type="curve" smooth="yes"/>
      <point x="465" y="440"/>
      <point x="455" y="442"/>
      <point x="453" y="442" type="curve" smooth="yes"/>
      <point x="443" y="442"/>
      <point x="405" y="408"/>
      <point x="385" y="373" type="curve"/>
      <point x="369" y="409"/>
      <point x="338" y="442"/>
      <point x="287" y="442" type="curve" smooth="yes"/>
      <point x="171" y="442"/>
      <point x="42" y="304"/>
      <point x="42" y="151" type="curve" smooth="yes"/>
      <point x="42" y="41"/>
      <point x="112" y="-11"/>
      <point x="179" y="-11" type="curve" smooth="yes"/>
      <point x="222" y="-11"/>
      <point x="261" y="11"/>
      <point x="298" y="46" type="curve"/>
      <point x="298" y="46" type="line"/>
      <point x="260" y="-108" type="line" smooth="yes"/>
      <point x="247" y="-159"/>
      <point x="246" y="-162"/>
      <point x="183" y="-163" type="curve"/>
      <point x="171" y="-163"/>
      <point x="159" y="-163"/>
      <point x="159" y="-181" type="curve" smooth="yes"/>
      <point x="159" y="-183"/>
      <point x="159" y="-194"/>
      <point x="173" y="-194" type="curve" smooth="yes"/>
      <point x="195" y="-194"/>
      <point x="252" y="-191"/>
    </contour>
    <contour>
      <point x="182" y="14" type="curve" smooth="yes"/>
      <point x="133" y="14"/>
      <point x="116" y="65"/>
      <point x="116" y="108" type="curve" smooth="yes"/>
      <point x="116" y="157"/>
      <point x="145" y="272"/>
      <point x="169" y="320" type="curve" smooth="yes"/>
      <point x="201" y="380"/>
      <point x="247" y="417"/>
      <point x="287" y="417" type="curve" smooth="yes"/>
      <point x="354" y="417"/>
      <point x="369" y="337"/>
      <point x="369" y="330" type="curve" smooth="yes"/>
      <point x="369" y="325"/>
      <point x="367" y="319"/>
      <point x="366" y="315" type="curve" smooth="yes"/>
      <point x="317" y="122" type="line" smooth="yes"/>
      <point x="312" y="103"/>
      <point x="312" y="102"/>
      <point x="296" y="83" type="curve" smooth="yes"/>
      <point x="260" y="40"/>
      <point x="219" y="14"/>
    </contour>
  </outline>
</glyph>
<glyph name="r" format="2">
  <advance width="463"/>
  <unicode hex="0072"/>
  <outline>
    <contour>
      <point x="114" y="-11" type="curve" smooth="yes"/>
      <point x="146" y="-11"/>
      <point x="153" y="16"/>
      <point x="160" y="45" type="curve" smooth="yes"/>
      <point x="172" y="88"/>
      <point x="172" y="90"/>
      <point x="182" y="131" type="curve" smooth="yes"/>
      <point x="219" y="281"/>
      <point x="225" y="305"/>
      <point x="227" y="310" type="curve"/>
      <point x="230.77778" y="317.55556"/>
      <point x="250.41291747600002" y="358.0151367627"/>
      <point x="285.1565923289289" y="386.9487377432182" type="curve" smooth="yes"/>
      <point x="305.59401566530005" y="403.96847599449995"/>
      <point x="331.2592900000001" y="416.99999999999994"/>
      <point x="362" y="417" type="curve" smooth="yes"/>
      <point x="385" y="417"/>
      <point x="399" y="409"/>
      <point x="404" y="405" type="curve"/>
      <point x="371" y="399"/>
      <point x="354" y="371"/>
      <point x="354" y="350" type="curve" smooth="yes"/>
      <point x="354" y="331"/>
      <point x="368" y="314"/>
      <point x="393" y="314" type="curve" smooth="yes"/>
      <point x="420" y="314"/>
      <point x="448" y="337"/>
      <point x="448" y="374" type="curve" smooth="yes"/>
      <point x="448" y="413"/>
      <point x="412" y="442"/>
      <point x="363" y="442" type="curve" smooth="yes"/>
      <point x="288" y="442"/>
      <point x="246" y="386"/>
      <point x="232" y="367" type="curve"/>
      <point x="220" y="422"/>
      <point x="175" y="442"/>
      <point x="137" y="442" type="curve" smooth="yes"/>
      <point x="101" y="442"/>
      <point x="78" y="420"/>
      <point x="61" y="385" type="curve" smooth="yes"/>
      <point x="42" y="349"/>
      <point x="29" y="292"/>
      <point x="29" y="288" type="curve" smooth="yes"/>
      <point x="29" y="279"/>
      <point x="36" y="276"/>
      <point x="43" y="276" type="curve" smooth="yes"/>
      <point x="54" y="276"/>
      <point x="56" y="281"/>
      <point x="61" y="301" type="curve" smooth="yes"/>
      <point x="80" y="380"/>
      <point x="101" y="417"/>
      <point x="135" y="417" type="curve" smooth="yes"/>
      <point x="165" y="417"/>
      <point x="165" y="385"/>
      <point x="165" y="370" type="curve" smooth="yes"/>
      <point x="165" y="349"/>
      <point x="157" y="318"/>
      <point x="151" y="292" type="curve" smooth="yes"/>
      <point x="144" y="266"/>
      <point x="132.99728" y="223.28887"/>
      <point x="90" y="47" type="curve" smooth="yes"/>
      <point x="83" y="23"/>
      <point x="83" y="21"/>
      <point x="83" y="18" type="curve" smooth="yes"/>
      <point x="83" y="5"/>
      <point x="92" y="-11"/>
    </contour>
  </outline>
</glyph>
<glyph name="t" format="2">
  <advance width="371"/>
  <unicode hex="0074"/>
  <outline>
    <contour>
      <point x="213" y="400" type="line"/>
      <point x="308" y="400" type="line" smooth="yes"/>
      <point x="326" y="400"/>
      <point x="338" y="400"/>
      <point x="338" y="418" type="curve" smooth="yes"/>
      <point x="338" y="431"/>
      <point x="328" y="431"/>
      <point x="310" y="431" type="curve" smooth="yes"/>
      <point x="221" y="431" type="line"/>
      <point x="242" y="515" type="line"/>
      <point x="262" y="597" type="line"/>
      <point x="262" y="613"/>
      <point x="249" y="626"/>
      <point x="231" y="626" type="curve" smooth="yes"/>
      <point x="199" y="626"/>
      <point x="191" y="597"/>
      <point x="189" y="587" type="curve"/>
      <point x="149" y="431" type="line"/>
      <point x="55" y="431" type="line" smooth="yes"/>
      <point x="36" y="431"/>
      <point x="24" y="431"/>
      <point x="24" y="413" type="curve" smooth="yes"/>
      <point x="24" y="400"/>
      <point x="35" y="400"/>
      <point x="53" y="400" type="curve" smooth="yes"/>
      <point x="142" y="400" type="line"/>
      <point x="74" y="128" type="line" smooth="yes"/>
      <point x="66" y="98"/>
      <point x="66" y="96"/>
      <point x="66" y="82" type="curve" smooth="yes"/>
      <point x="66" y="23"/>
      <point x="111" y="-11"/>
      <point x="163" y="-11" type="curve" smooth="yes"/>
      <point x="267" y="-11"/>
      <point x="326" y="133"/>
      <point x="326" y="143" type="curve" smooth="yes"/>
      <point x="326" y="148"/>
      <point x="323" y="155"/>
      <point x="313" y="155" type="curve" smooth="yes"/>
      <point x="303" y="155"/>
      <point x="302" y="152"/>
      <point x="295" y="135" type="curve" smooth="yes"/>
      <point x="264" y="63"/>
      <point x="214" y="14"/>
      <point x="165" y="14" type="curve" smooth="yes"/>
      <point x="145" y="14"/>
      <point x="133" y="27"/>
      <point x="133" y="60" type="curve" smooth="yes"/>
      <point x="133" y="82"/>
      <point x="136" y="94"/>
      <point x="140" y="109" type="curve" smooth="yes"/>
    </contour>
  </outline>
</glyph>
<glyph name="u" format="2">
  <advance width="591"/>
  <unicode hex="0075"/>
  <outline>
    <contour>
      <point x="240" y="-11" type="curve" smooth="yes"/>
      <point x="297" y="-11"/>
      <point x="338" y="24"/>
      <point x="362" y="55" type="curve"/>
      <point x="381" y="-11"/>
      <point x="447" y="-11"/>
      <point x="453" y="-11" type="curve" smooth="yes"/>
      <point x="482" y="-11"/>
      <point x="507" y="3"/>
      <point x="528" y="42" type="curve" smooth="yes"/>
      <point x="546" y="75"/>
      <point x="561" y="139"/>
      <point x="561" y="143" type="curve" smooth="yes"/>
      <point x="561" y="148"/>
      <point x="558" y="155"/>
      <point x="548" y="155" type="curve" smooth="yes"/>
      <point x="536" y="155"/>
      <point x="535" y="150"/>
      <point x="531" y="131" type="curve" smooth="yes"/>
      <point x="511" y="52"/>
      <point x="490" y="14"/>
      <point x="456" y="14" type="curve" smooth="yes"/>
      <point x="432" y="14"/>
      <point x="425" y="35"/>
      <point x="425" y="60" type="curve" smooth="yes"/>
      <point x="425" y="79"/>
      <point x="430" y="99"/>
      <point x="439" y="134" type="curve" smooth="yes"/>
      <point x="454.984" y="197.936"/>
      <point x="470.968" y="261.872"/>
      <point x="487" y="326" type="curve" smooth="yes"/>
      <point x="493" y="352"/>
      <point x="505" y="398"/>
      <point x="505" y="402" type="curve" smooth="yes"/>
      <point x="505" y="415"/>
      <point x="496" y="431"/>
      <point x="474" y="431" type="curve" smooth="yes"/>
      <point x="460" y="431"/>
      <point x="445" y="422"/>
      <point x="438" y="410" type="curve"/>
      <point x="433" y="400"/>
      <point x="365" y="129"/>
      <point x="359" y="96" type="curve"/>
      <point x="359.0" y="96.0"/>
      <point x="359.0" y="96.0"/>
      <point x="359" y="96" type="curve"/>
      <point x="338" y="60"/>
      <point x="298" y="14"/>
      <point x="243" y="14" type="curve" smooth="yes"/>
      <point x="181" y="14"/>
      <point x="181" y="77"/>
      <point x="181" y="96" type="curve" smooth="yes"/>
      <point x="181" y="141"/>
      <point x="194" y="190"/>
      <point x="237" y="302" type="curve" smooth="yes"/>
      <point x="245" y="325"/>
      <point x="251" y="339"/>
      <point x="251" y="358" type="curve" smooth="yes"/>
      <point x="251" y="407"/>
      <point x="214" y="442"/>
      <point x="165" y="442" type="curve" smooth="yes"/>
      <point x="69" y="442"/>
      <point x="29" y="300"/>
      <point x="29" y="288" type="curve" smooth="yes"/>
      <point x="29" y="279"/>
      <point x="36" y="276"/>
      <point x="43" y="276" type="curve" smooth="yes"/>
      <point x="54" y="276"/>
      <point x="55" y="282"/>
      <point x="59" y="295" type="curve" smooth="yes"/>
      <point x="80" y="367"/>
      <point x="119" y="417"/>
      <point x="162" y="417" type="curve" smooth="yes"/>
      <point x="183" y="417"/>
      <point x="186" y="402"/>
      <point x="186" y="384" type="curve" smooth="yes"/>
      <point x="186" y="367"/>
      <point x="182" y="349"/>
      <point x="173" y="325" type="curve" smooth="yes"/>
      <point x="126" y="201"/>
      <point x="113" y="159"/>
      <point x="113" y="111" type="curve" smooth="yes"/>
      <point x="113" y="0"/>
      <point x="203" y="-11"/>
    </contour>
  </outline>
</glyph>
<glyph name="v" format="2">
  <advance width="499"/>
  <unicode hex="0076"/>
  <outline>
    <contour>
      <point x="481" y="369" type="curve" smooth="yes"/>
      <point x="481" y="439"/>
      <point x="444" y="443"/>
      <point x="435" y="443" type="curve" smooth="yes"/>
      <point x="410" y="443"/>
      <point x="384" y="416"/>
      <point x="384" y="393" type="curve" smooth="yes"/>
      <point x="384" y="378"/>
      <point x="393" y="370"/>
      <point x="400" y="364" type="curve" smooth="yes"/>
      <point x="427" y="339"/>
      <point x="436" y="307"/>
      <point x="436" y="281" type="curve" smooth="yes"/>
      <point x="436" y="237"/>
      <point x="373" y="14"/>
      <point x="257" y="14" type="curve" smooth="yes"/>
      <point x="182" y="14"/>
      <point x="182" y="84"/>
      <point x="182" y="102" type="curve" smooth="yes"/>
      <point x="182" y="145"/>
      <point x="196" y="196"/>
      <point x="231" y="287" type="curve" smooth="yes"/>
      <point x="247" y="329"/>
      <point x="251" y="339"/>
      <point x="251" y="358" type="curve" smooth="yes"/>
      <point x="251" y="407"/>
      <point x="214" y="442"/>
      <point x="165" y="442" type="curve" smooth="yes"/>
      <point x="69" y="442"/>
      <point x="29" y="300"/>
      <point x="29" y="288" type="curve" smooth="yes"/>
      <point x="29" y="279"/>
      <point x="36" y="276"/>
      <point x="43" y="276" type="curve" smooth="yes"/>
      <point x="54" y="276"/>
      <point x="55" y="282"/>
      <point x="59" y="295" type="curve" smooth="yes"/>
      <point x="80" y="368"/>
      <point x="120" y="417"/>
      <point x="162" y="417" type="curve" smooth="yes"/>
      <point x="182" y="417"/>
      <point x="186" y="404"/>
      <point x="186" y="384" type="curve" smooth="yes"/>
      <point x="186" y="367"/>
      <point x="182" y="349"/>
      <point x="173" y="325" type="curve" smooth="yes"/>
      <point x="137" y="229"/>
      <point x="113" y="165"/>
      <point x="113" y="115" type="curve" smooth="yes"/>
      <point x="113" y="21"/>
      <point x="184" y="-11"/>
      <point x="253" y="-11" type="curve" smooth="yes"/>
      <point x="314.89456" y="-11.0"/>
      <point x="362.1299239888" y="31.89172166240001"/>
      <point x="397.106421297265" y="89.27126790529724" type="curve" smooth="yes"/>
      <point x="457.066402216" y="187.63664930720006"/>
      <point x="480.99999999999994" y="328.5788800000001"/>
    </contour>
  </outline>
</glyph>
<glyph name="x" format="2">
  <advance width="582"/>
  <unicode hex="0078"/>
  <outline>
    <contour>
      <point x="492" y="404" type="curve"/>
      <point x="455" y="397"/>
      <point x="444" y="365"/>
      <point x="444" y="350" type="curve" smooth="yes"/>
      <point x="444" y="331"/>
      <point x="458" y="314"/>
      <point x="483" y="314" type="curve" smooth="yes"/>
      <point x="511" y="314"/>
      <point x="538" y="338"/>
      <point x="538" y="373" type="curve" smooth="yes"/>
      <point x="538" y="419"/>
      <point x="488" y="442"/>
      <point x="441" y="442" type="curve" smooth="yes"/>
      <point x="381" y="442"/>
      <point x="346" y="389"/>
      <point x="334" y="368" type="curve"/>
      <point x="315" y="417"/>
      <point x="271" y="442"/>
      <point x="223" y="442" type="curve" smooth="yes"/>
      <point x="116" y="442"/>
      <point x="58" y="314"/>
      <point x="58" y="288" type="curve" smooth="yes"/>
      <point x="58" y="279"/>
      <point x="65" y="276"/>
      <point x="72" y="276" type="curve" smooth="yes"/>
      <point x="81" y="276"/>
      <point x="84" y="281"/>
      <point x="86" y="287" type="curve" smooth="yes"/>
      <point x="117" y="386"/>
      <point x="183" y="417"/>
      <point x="221" y="417" type="curve" smooth="yes"/>
      <point x="250" y="417"/>
      <point x="276" y="398"/>
      <point x="276" y="351" type="curve" smooth="yes"/>
      <point x="276" y="315"/>
      <point x="233" y="155"/>
      <point x="220" y="107" type="curve" smooth="yes"/>
      <point x="212" y="76"/>
      <point x="182" y="14"/>
      <point x="127" y="14" type="curve" smooth="yes"/>
      <point x="107" y="14"/>
      <point x="86" y="21"/>
      <point x="76" y="27" type="curve"/>
      <point x="103" y="32"/>
      <point x="123" y="55"/>
      <point x="123" y="81" type="curve" smooth="yes"/>
      <point x="123" y="106"/>
      <point x="104" y="117"/>
      <point x="85" y="117" type="curve" smooth="yes"/>
      <point x="56" y="117"/>
      <point x="30" y="92"/>
      <point x="30" y="58" type="curve" smooth="yes"/>
      <point x="30" y="9"/>
      <point x="84" y="-11"/>
      <point x="126" y="-11" type="curve" smooth="yes"/>
      <point x="184" y="-11"/>
      <point x="218" y="37"/>
      <point x="233" y="64" type="curve"/>
      <point x="258" y="-2"/>
      <point x="317" y="-11"/>
      <point x="344" y="-11" type="curve" smooth="yes"/>
      <point x="452" y="-11"/>
      <point x="509" y="119"/>
      <point x="509" y="143" type="curve" smooth="yes"/>
      <point x="509" y="148"/>
      <point x="506" y="155"/>
      <point x="496" y="155" type="curve" smooth="yes"/>
      <point x="485" y="155"/>
      <point x="484" y="151"/>
      <point x="479" y="136" type="curve" smooth="yes"/>
      <point x="457" y="64"/>
      <point x="399" y="14"/>
      <point x="347" y="14" type="curve" smooth="yes"/>
      <point x="318" y="14"/>
      <point x="291" y="32"/>
      <point x="291" y="80" type="curve" smooth="yes"/>
      <point x="291" y="102"/>
      <point x="305" y="157"/>
      <point x="314" y="195" type="curve" smooth="yes"/>
      <point x="318" y="213"/>
      <point x="345" y="321"/>
      <point x="347" y="328" type="curve" smooth="yes"/>
      <point x="359" y="364"/>
      <point x="389" y="417"/>
      <point x="440" y="417" type="curve" smooth="yes"/>
      <point x="458" y="417"/>
      <point x="477" y="414"/>
    </contour>
  </outline>
</glyph>
<glyph name="z" format="2">
  <advance width="478"/>
  <unicode hex="007A"/>
  <outline>
    <contour>
      <point x="139" y="85" type="curve"/>
      <point x="160" y="110"/>
      <point x="215" y="160"/>
      <point x="258" y="196" type="curve" smooth="yes"/>
      <point x="332" y="259"/>
      <point x="355" y="281"/>
      <point x="368" y="295" type="curve"/>
      <point x="450" y="374"/>
      <point x="477" y="425"/>
      <point x="477" y="431" type="curve" smooth="yes"/>
      <point x="477" y="432"/>
      <point x="477" y="442"/>
      <point x="464" y="442" type="curve" smooth="yes"/>
      <point x="455" y="442"/>
      <point x="453" y="439"/>
      <point x="448" y="431" type="curve" smooth="yes"/>
      <point x="435" y="411"/>
      <point x="408" y="368"/>
      <point x="374" y="368" type="curve" smooth="yes"/>
      <point x="354" y="368"/>
      <point x="341" y="379"/>
      <point x="318" y="405" type="curve" smooth="yes"/>
      <point x="294" y="431"/>
      <point x="275" y="442"/>
      <point x="249" y="442" type="curve" smooth="yes"/>
      <point x="172" y="442"/>
      <point x="125" y="350"/>
      <point x="125" y="325" type="curve" smooth="yes"/>
      <point x="125" y="322"/>
      <point x="127" y="314"/>
      <point x="138" y="314" type="curve" smooth="yes"/>
      <point x="148" y="314"/>
      <point x="151" y="320"/>
      <point x="152" y="323" type="curve"/>
      <point x="171" y="371"/>
      <point x="230" y="371"/>
      <point x="238" y="371" type="curve" smooth="yes"/>
      <point x="261" y="371"/>
      <point x="285" y="364"/>
      <point x="307" y="356" type="curve" smooth="yes"/>
      <point x="347" y="343"/>
      <point x="364" y="343"/>
      <point x="379" y="343" type="curve"/>
      <point x="348" y="308"/>
      <point x="292" y="260"/>
      <point x="229" y="206" type="curve" smooth="yes"/>
      <point x="179" y="163"/>
      <point x="148" y="133"/>
      <point x="126" y="111" type="curve" smooth="yes"/>
      <point x="89" y="72"/>
      <point x="44" y="11"/>
      <point x="44" y="0" type="curve" smooth="yes"/>
      <point x="44" y="-7"/>
      <point x="49" y="-11"/>
      <point x="57" y="-11" type="curve" smooth="yes"/>
      <point x="66" y="-11"/>
      <point x="68" y="-7"/>
      <point x="73" y="-1" type="curve"/>
      <point x="112" y="59"/>
      <point x="149" y="63"/>
      <point x="160" y="63" type="curve" smooth="yes"/>
      <point x="185" y="63"/>
      <point x="199" y="48"/>
      <point x="221" y="22" type="curve" smooth="yes"/>
      <point x="244" y="-3"/>
      <point x="266" y="-11"/>
      <point x="286" y="-11" type="curve" smooth="yes"/>
      <point x="389" y="-11"/>
      <point x="449" y="117"/>
      <point x="449" y="144" type="curve" smooth="yes"/>
      <point x="449" y="153"/>
      <point x="442" y="156"/>
      <point x="435" y="156" type="curve" smooth="yes"/>
      <point x="425" y="156"/>
      <point x="423" y="149"/>
      <point x="421" y="145" type="curve"/>
      <point x="394" y="71"/>
      <point x="323" y="60"/>
      <point x="297" y="60" type="curve" smooth="yes"/>
      <point x="278" y="60"/>
      <point x="258" y="65"/>
      <point x="228" y="75" type="curve" smooth="yes"/>
      <point x="208" y="81"/>
      <point x="184" y="88"/>
      <point x="163" y="88" type="curve" smooth="yes"/>
      <point x="153" y="88"/>
      <point x="143" y="86"/>
    </contour>
  </outline>
</glyph>
<glyph name="mu" format="2">
  <advance width="619"/>
  <unicode hex="00B5"/>
  <outline>
    <contour>
      <point x="237" y="357" type="line" smooth="yes"/>
      <point x="242" y="375"/>
      <point x="251" y="409"/>
      <point x="251" y="413" type="curve" smooth="yes"/>
      <point x="251" y="429"/>
      <point x="238" y="442"/>
      <point x="220" y="442" type="curve" smooth="yes"/>
      <point x="188" y="442"/>
      <point x="180" y="413"/>
      <point x="178" y="403" type="curve" smooth="yes"/>
      <point x="35" y="-165" type="line" smooth="yes"/>
      <point x="31" y="-179"/>
      <point x="31" y="-181"/>
      <point x="31" y="-187" type="curve" smooth="yes"/>
      <point x="31" y="-204"/>
      <point x="43" y="-216"/>
      <point x="62" y="-216" type="curve" smooth="yes"/>
      <point x="94" y="-216"/>
      <point x="102" y="-186"/>
      <point x="105" y="-171" type="curve"/>
      <point x="153" y="19" type="line"/>
      <point x="179" y="-2"/>
      <point x="219" y="-11"/>
      <point x="252" y="-11" type="curve" smooth="yes"/>
      <point x="288" y="-11"/>
      <point x="336" y="0"/>
      <point x="388" y="61" type="curve"/>
      <point x="400" y="8"/>
      <point x="447" y="-11"/>
      <point x="481" y="-11" type="curve" smooth="yes"/>
      <point x="510" y="-11"/>
      <point x="535" y="2"/>
      <point x="557" y="44" type="curve" smooth="yes"/>
      <point x="575" y="77"/>
      <point x="589" y="139"/>
      <point x="589" y="143" type="curve" smooth="yes"/>
      <point x="589" y="148"/>
      <point x="586" y="155"/>
      <point x="576" y="155" type="curve" smooth="yes"/>
      <point x="564" y="155"/>
      <point x="563" y="150"/>
      <point x="559" y="131" type="curve" smooth="yes"/>
      <point x="537" y="44"/>
      <point x="515" y="14"/>
      <point x="484" y="14" type="curve" smooth="yes"/>
      <point x="459" y="14"/>
      <point x="453" y="38"/>
      <point x="453" y="60" type="curve" smooth="yes"/>
      <point x="453" y="79"/>
      <point x="458" y="99"/>
      <point x="467" y="134" type="curve" smooth="yes"/>
      <point x="492" y="237" type="line"/>
      <point x="515" y="326" type="line" smooth="yes"/>
      <point x="521" y="352"/>
      <point x="533" y="398"/>
      <point x="533" y="402" type="curve" smooth="yes"/>
      <point x="533" y="415"/>
      <point x="524" y="431"/>
      <point x="502" y="431" type="curve" smooth="yes"/>
      <point x="470" y="431"/>
      <point x="463" y="404"/>
      <point x="456" y="376" type="curve" smooth="yes"/>
      <point x="435" y="293" type="line" smooth="yes"/>
      <point x="425" y="253"/>
      <point x="396" y="137"/>
      <point x="389" y="111" type="curve" smooth="yes"/>
      <point x="388" y="107"/>
      <point x="339" y="14"/>
      <point x="256" y="14" type="curve" smooth="yes"/>
      <point x="181" y="14"/>
      <point x="181" y="84"/>
      <point x="181" y="102" type="curve" smooth="yes"/>
      <point x="181" y="125"/>
      <point x="184" y="143"/>
      <point x="195" y="189" type="curve" smooth="yes"/>
    </contour>
  </outline>
</glyph>
<glyph name="Gamma" format="2">
  <advance width="627"/>
  <unicode hex="0393"/>
  <outline>
    <contour>
      <point x="382" y="609" type="line" smooth="yes"/>
      <point x="391" y="646"/>
      <point x="392" y="649"/>
      <point x="435" y="649" type="curve" smooth="yes"/>
      <point x="555" y="649" type="line" smooth="yes"/>
      <point x="666" y="649"/>
      <point x="693" y="621"/>
      <point x="693" y="543" type="curve" smooth="yes"/>
      <point x="693" y="516"/>
      <point x="691" y="507"/>
      <point x="689" y="484" type="curve"/>
      <point x="687" y="475"/>
      <point x="687" y="473"/>
      <point x="687" y="470" type="curve" smooth="yes"/>
      <point x="687" y="462"/>
      <point x="692" y="455"/>
      <point x="701" y="455" type="curve" smooth="yes"/>
      <point x="713" y="455"/>
      <point x="714" y="462"/>
      <point x="716" y="480" type="curve" smooth="yes"/>
      <point x="737" y="666" type="line"/>
      <point x="737" y="680"/>
      <point x="727" y="680"/>
      <point x="708" y="680" type="curve" smooth="yes"/>
      <point x="236" y="680" type="line" smooth="yes"/>
      <point x="217" y="680"/>
      <point x="206" y="680"/>
      <point x="206" y="662" type="curve" smooth="yes"/>
      <point x="206" y="649"/>
      <point x="216" y="649"/>
      <point x="237" y="649" type="curve" smooth="yes"/>
      <point x="241" y="649"/>
      <point x="259" y="649"/>
      <point x="275" y="647" type="curve" smooth="yes"/>
      <point x="297" y="644"/>
      <point x="298" y="640"/>
      <point x="298" y="631" type="curve" smooth="yes"/>
      <point x="298" y="628"/>
      <point x="298" y="626"/>
      <point x="293" y="608" type="curve" smooth="yes"/>
      <point x="160" y="76" type="line" smooth="yes"/>
      <point x="151" y="40"/>
      <point x="149" y="31"/>
      <point x="74" y="31" type="curve" smooth="yes"/>
      <point x="55" y="31"/>
      <point x="44" y="31"/>
      <point x="44" y="13" type="curve" smooth="yes"/>
      <point x="44" y="2"/>
      <point x="52" y="0"/>
      <point x="59" y="0" type="curve" smooth="yes"/>
      <point x="70" y="0"/>
      <point x="117" y="1"/>
      <point x="127" y="2" type="curve" smooth="yes"/>
      <point x="135" y="3"/>
      <point x="170" y="3"/>
      <point x="192" y="3" type="curve" smooth="yes"/>
      <point x="211" y="3"/>
      <point x="239" y="2"/>
      <point x="263" y="2" type="curve" smooth="yes"/>
      <point x="287" y="2"/>
      <point x="315" y="0"/>
      <point x="339" y="0" type="curve" smooth="yes"/>
      <point x="347" y="0"/>
      <point x="360" y="0"/>
      <point x="360" y="18" type="curve" smooth="yes"/>
      <point x="360" y="31"/>
      <point x="350" y="31"/>
      <point x="329" y="31" type="curve" smooth="yes"/>
      <point x="327" y="31"/>
      <point x="301" y="31"/>
      <point x="277" y="33" type="curve" smooth="yes"/>
      <point x="246" y="36"/>
      <point x="244" y="40"/>
      <point x="244" y="52" type="curve" smooth="yes"/>
      <point x="244" y="54"/>
      <point x="244" y="60"/>
      <point x="248" y="75" type="curve" smooth="yes"/>
    </contour>
  </outline>
</glyph>
<glyph name="Theta" format="2">
  <advance width="782"/>
  <unicode hex="0398"/>
  <outline>
    <contour>
      <point x="758" y="433" type="curve" smooth="yes"/>
      <point x="758" y="591"/>
      <point x="652" y="705"/>
      <point x="495" y="705" type="curve" smooth="yes"/>
      <point x="271" y="705"/>
      <point x="50" y="475"/>
      <point x="50" y="247" type="curve" smooth="yes"/>
      <point x="50" y="83"/>
      <point x="163" y="-22"/>
      <point x="314" y="-22" type="curve" smooth="yes"/>
      <point x="537" y="-22"/>
      <point x="758" y="201"/>
    </contour>
    <contour>
      <point x="321" y="5" type="curve" smooth="yes"/>
      <point x="219" y="5"/>
      <point x="138" y="79"/>
      <point x="138" y="218" type="curve" smooth="yes"/>
      <point x="138" y="300"/>
      <point x="170" y="429"/>
      <point x="233" y="521" type="curve" smooth="yes"/>
      <point x="310" y="633"/>
      <point x="411" y="680"/>
      <point x="489" y="680" type="curve" smooth="yes"/>
      <point x="587" y="680"/>
      <point x="670" y="607"/>
      <point x="670" y="464" type="curve" smooth="yes"/>
      <point x="670" y="426"/>
      <point x="661" y="283"/>
      <point x="571" y="154" type="curve" smooth="yes"/>
      <point x="512" y="70"/>
      <point x="414" y="5"/>
    </contour>
    <contour>
      <point x="558" y="305" type="line"/>
      <point x="557" y="300"/>
      <point x="553" y="290"/>
      <point x="553" y="285" type="curve" smooth="yes"/>
      <point x="553" y="276"/>
      <point x="559" y="271"/>
      <point x="567" y="271" type="curve" smooth="yes"/>
      <point x="578" y="271"/>
      <point x="580" y="279"/>
      <point x="583" y="290" type="curve"/>
      <point x="586" y="304"/>
      <point x="610" y="395"/>
      <point x="610" y="400" type="curve" smooth="yes"/>
      <point x="610" y="408"/>
      <point x="605" y="414"/>
      <point x="596" y="414" type="curve" smooth="yes"/>
      <point x="579" y="414"/>
      <point x="577" y="381"/>
      <point x="577" y="380" type="curve"/>
      <point x="252" y="380" type="line"/>
      <point x="253" y="385"/>
      <point x="256" y="394"/>
      <point x="256" y="400" type="curve" smooth="yes"/>
      <point x="256" y="408"/>
      <point x="251" y="414"/>
      <point x="242" y="414" type="curve" smooth="yes"/>
      <point x="232" y="414"/>
      <point x="230" y="408"/>
      <point x="227" y="395" type="curve"/>
      <point x="226" y="394"/>
      <point x="199" y="290"/>
      <point x="199" y="284" type="curve" smooth="yes"/>
      <point x="199" y="278"/>
      <point x="203" y="271"/>
      <point x="213" y="271" type="curve" smooth="yes"/>
      <point x="223" y="271"/>
      <point x="226" y="278"/>
      <point x="227" y="283" type="curve"/>
      <point x="229" y="290"/>
      <point x="233" y="300"/>
      <point x="233" y="305" type="curve"/>
    </contour>
  </outline>
</glyph>
<glyph name="Lambda" format="2">
  <advance width="713"/>
  <unicode hex="039B"/>
  <outline>
    <contour>
      <point x="169" y="117" type="line"/>
      <point x="166" y="111"/>
      <point x="158" y="101"/>
      <point x="153" y="92" type="curve"/>
      <point x="126" y="54"/>
      <point x="100" y="35"/>
      <point x="57" y="31" type="curve" smooth="yes"/>
      <point x="46" y="30"/>
      <point x="37" y="29"/>
      <point x="37" y="13" type="curve" smooth="yes"/>
      <point x="37" y="5"/>
      <point x="43" y="0"/>
      <point x="50" y="0" type="curve" smooth="yes"/>
      <point x="74" y="0"/>
      <point x="102" y="3"/>
      <point x="128" y="3" type="curve" smooth="yes"/>
      <point x="160" y="3"/>
      <point x="193" y="0"/>
      <point x="224" y="0" type="curve" smooth="yes"/>
      <point x="229" y="0"/>
      <point x="242" y="0"/>
      <point x="242" y="18" type="curve" smooth="yes"/>
      <point x="242" y="30"/>
      <point x="231" y="31"/>
      <point x="227" y="31" type="curve"/>
      <point x="212" y="32"/>
      <point x="179" y="36"/>
      <point x="179" y="66" type="curve" smooth="yes"/>
      <point x="179" y="80"/>
      <point x="192" y="101"/>
      <point x="194" y="105" type="curve"/>
      <point x="472" y="579" type="line"/>
      <point x="515" y="79" type="line" smooth="yes"/>
      <point x="517" y="56"/>
      <point x="517" y="32"/>
      <point x="442" y="31" type="curve"/>
      <point x="432" y="31"/>
      <point x="420" y="31"/>
      <point x="420" y="13" type="curve" smooth="yes"/>
      <point x="420" y="4"/>
      <point x="427" y="0"/>
      <point x="435" y="0" type="curve" smooth="yes"/>
      <point x="454" y="0"/>
      <point x="474" y="2"/>
      <point x="493" y="2" type="curve" smooth="yes"/>
      <point x="514" y="2"/>
      <point x="536" y="3"/>
      <point x="557" y="3" type="curve" smooth="yes"/>
      <point x="575" y="3"/>
      <point x="600" y="3"/>
      <point x="612" y="2" type="curve"/>
      <point x="621" y="2"/>
      <point x="657" y="0"/>
      <point x="665" y="0" type="curve" smooth="yes"/>
      <point x="671" y="0"/>
      <point x="684" y="0"/>
      <point x="684" y="18" type="curve" smooth="yes"/>
      <point x="684" y="31"/>
      <point x="673" y="31"/>
      <point x="659" y="31" type="curve" smooth="yes"/>
      <point x="611" y="31"/>
      <point x="609" y="39"/>
      <point x="607" y="67" type="curve" smooth="yes"/>
      <point x="554" y="691" type="line" smooth="yes"/>
      <point x="552" y="709"/>
      <point x="552" y="716"/>
      <point x="535" y="716" type="curve" smooth="yes"/>
      <point x="520" y="716"/>
      <point x="517" y="710"/>
      <point x="507" y="694" type="curve" smooth="yes"/>
    </contour>
  </outline>
</glyph>
<glyph name="Xi" format="2">
  <advance width="760"/>
  <unicode hex="039E"/>
  <outline>
    <contour>
      <point x="791" y="648" type="line"/>
      <point x="793" y="663" type="line"/>
      <point x="793" y="677"/>
      <point x="783" y="677"/>
      <point x="764" y="677" type="curve" smooth="yes"/>
      <point x="252" y="677" type="line" smooth="yes"/>
      <point x="227" y="677"/>
      <point x="226" y="676"/>
      <point x="220" y="657" type="curve" smooth="yes"/>
      <point x="187" y="554" type="line"/>
      <point x="185" y="549"/>
      <point x="182" y="539"/>
      <point x="182" y="535" type="curve" smooth="yes"/>
      <point x="182" y="527"/>
      <point x="188" y="522"/>
      <point x="196" y="522" type="curve" smooth="yes"/>
      <point x="206" y="522"/>
      <point x="208" y="528"/>
      <point x="213" y="544" type="curve" smooth="yes"/>
      <point x="218" y="560"/>
      <point x="230" y="596"/>
      <point x="240" y="603" type="curve" smooth="yes"/>
      <point x="247" y="608"/>
      <point x="304" y="608"/>
      <point x="315" y="608" type="curve" smooth="yes"/>
      <point x="679" y="608" type="line" smooth="yes"/>
      <point x="697" y="608"/>
      <point x="732" y="607"/>
      <point x="749" y="605" type="curve"/>
      <point x="749" y="583"/>
      <point x="749" y="577"/>
      <point x="743" y="545" type="curve" smooth="yes"/>
      <point x="742" y="539"/>
      <point x="742" y="538"/>
      <point x="742" y="536" type="curve" smooth="yes"/>
      <point x="742" y="528"/>
      <point x="747" y="522"/>
      <point x="756" y="522" type="curve" smooth="yes"/>
      <point x="766" y="522"/>
      <point x="769" y="528"/>
      <point x="772" y="544" type="curve" smooth="yes"/>
    </contour>
    <contour>
      <point x="173" y="69" type="line" smooth="yes"/>
      <point x="130" y="69"/>
      <point x="128" y="69"/>
      <point x="100" y="73" type="curve"/>
      <point x="100" y="90"/>
      <point x="100" y="102"/>
      <point x="106" y="133" type="curve" smooth="yes"/>
      <point x="109" y="148"/>
      <point x="109" y="150"/>
      <point x="109" y="152" type="curve" smooth="yes"/>
      <point x="109" y="160"/>
      <point x="104" y="166"/>
      <point x="95" y="166" type="curve" smooth="yes"/>
      <point x="84" y="166"/>
      <point x="82" y="159"/>
      <point x="80" y="145" type="curve"/>
      <point x="75" y="124"/>
      <point x="55" y="28"/>
      <point x="55" y="13" type="curve" smooth="yes"/>
      <point x="55" y="0"/>
      <point x="66" y="0"/>
      <point x="84" y="0" type="curve" smooth="yes"/>
      <point x="606" y="0" type="line" smooth="yes"/>
      <point x="629" y="0"/>
      <point x="631" y="0"/>
      <point x="636" y="14" type="curve" smooth="yes"/>
      <point x="641" y="28"/>
      <point x="679" y="147"/>
      <point x="679" y="153" type="curve" smooth="yes"/>
      <point x="679" y="161"/>
      <point x="673" y="166"/>
      <point x="665" y="166" type="curve" smooth="yes"/>
      <point x="655" y="166"/>
      <point x="653" y="159"/>
      <point x="650" y="150" type="curve" smooth="yes"/>
      <point x="633" y="97"/>
      <point x="626" y="85"/>
      <point x="620" y="76" type="curve"/>
      <point x="614" y="69"/>
      <point x="551" y="69"/>
      <point x="539" y="69" type="curve" smooth="yes"/>
    </contour>
    <contour>
      <point x="217" y="296" type="line"/>
      <point x="216" y="294"/>
      <point x="213" y="281"/>
      <point x="213" y="280" type="curve" smooth="yes"/>
      <point x="213" y="274"/>
      <point x="218" y="267"/>
      <point x="227" y="267" type="curve" smooth="yes"/>
      <point x="238" y="267"/>
      <point x="240" y="275"/>
      <point x="243" y="287" type="curve"/>
      <point x="244" y="289"/>
      <point x="250" y="314"/>
      <point x="251" y="318" type="curve"/>
      <point x="592" y="318" type="line"/>
      <point x="589" y="306"/>
      <point x="583" y="284"/>
      <point x="583" y="281" type="curve" smooth="yes"/>
      <point x="583" y="270"/>
      <point x="591" y="267"/>
      <point x="597" y="267" type="curve" smooth="yes"/>
      <point x="608" y="267"/>
      <point x="610" y="275"/>
      <point x="614" y="289" type="curve" smooth="yes"/>
      <point x="618" y="306"/>
      <point x="647" y="419"/>
      <point x="647" y="425" type="curve" smooth="yes"/>
      <point x="647" y="433"/>
      <point x="640" y="438"/>
      <point x="633" y="438" type="curve" smooth="yes"/>
      <point x="622" y="438"/>
      <point x="620" y="431"/>
      <point x="617" y="418" type="curve"/>
      <point x="613" y="406"/>
      <point x="613" y="404"/>
      <point x="609" y="387" type="curve"/>
      <point x="268" y="387" type="line"/>
      <point x="270" y="396"/>
      <point x="277" y="419"/>
      <point x="277" y="424" type="curve" smooth="yes"/>
      <point x="277" y="432"/>
      <point x="272" y="438"/>
      <point x="263" y="438" type="curve" smooth="yes"/>
      <point x="252" y="438"/>
      <point x="251" y="433"/>
      <point x="247" y="416" type="curve" smooth="yes"/>
    </contour>
  </outline>
</glyph>
<glyph name="Pi" format="2">
  <advance width="850"/>
  <unicode hex="03A0"/>
  <outline>
    <contour>
      <point x="779" y="602" type="line" smooth="yes"/>
      <point x="789" y="641"/>
      <point x="791" y="649"/>
      <point x="869" y="649" type="curve" smooth="yes"/>
      <point x="884" y="649"/>
      <point x="896" y="649"/>
      <point x="896" y="667" type="curve" smooth="yes"/>
      <point x="896" y="680"/>
      <point x="886" y="680"/>
      <point x="868" y="680" type="curve" smooth="yes"/>
      <point x="236" y="680" type="line" smooth="yes"/>
      <point x="216" y="680"/>
      <point x="206" y="680"/>
      <point x="206" y="662" type="curve" smooth="yes"/>
      <point x="206" y="649"/>
      <point x="216" y="649"/>
      <point x="237" y="649" type="curve" smooth="yes"/>
      <point x="241" y="649"/>
      <point x="259" y="649"/>
      <point x="275" y="647" type="curve" smooth="yes"/>
      <point x="297" y="644"/>
      <point x="298" y="640"/>
      <point x="298" y="631" type="curve" smooth="yes"/>
      <point x="298" y="628"/>
      <point x="298" y="626"/>
      <point x="293" y="608" type="curve" smooth="yes"/>
      <point x="160" y="76" type="line" smooth="yes"/>
      <point x="151" y="40"/>
      <point x="149" y="31"/>
      <point x="74" y="31" type="curve" smooth="yes"/>
      <point x="55" y="31"/>
      <point x="44" y="31"/>
      <point x="44" y="13" type="curve" smooth="yes"/>
      <point x="44" y="4"/>
      <point x="51" y="0"/>
      <point x="59" y="0" type="curve" smooth="yes"/>
      <point x="78" y="0"/>
      <point x="103" y="1"/>
      <point x="122" y="2" type="curve" smooth="yes"/>
      <point x="152" y="3"/>
      <point x="154" y="3"/>
      <point x="186" y="3" type="curve" smooth="yes"/>
      <point x="218" y="3"/>
      <point x="220" y="3"/>
      <point x="250" y="2" type="curve" smooth="yes"/>
      <point x="270" y="1"/>
      <point x="296" y="0"/>
      <point x="315" y="0" type="curve" smooth="yes"/>
      <point x="323" y="0"/>
      <point x="335" y="0"/>
      <point x="335" y="18" type="curve" smooth="yes"/>
      <point x="335" y="31"/>
      <point x="325" y="31"/>
      <point x="304" y="31" type="curve" smooth="yes"/>
      <point x="300" y="31"/>
      <point x="282" y="31"/>
      <point x="266" y="33" type="curve" smooth="yes"/>
      <point x="244" y="36"/>
      <point x="243" y="40"/>
      <point x="243" y="49" type="curve" smooth="yes"/>
      <point x="243" y="52"/>
      <point x="243" y="54"/>
      <point x="248" y="72" type="curve" smooth="yes"/>
      <point x="392" y="649" type="line"/>
      <point x="703" y="649" type="line"/>
      <point x="559" y="76" type="line" smooth="yes"/>
      <point x="550" y="40"/>
      <point x="548" y="31"/>
      <point x="473" y="31" type="curve" smooth="yes"/>
      <point x="454" y="31"/>
      <point x="443" y="31"/>
      <point x="443" y="13" type="curve" smooth="yes"/>
      <point x="443" y="4"/>
      <point x="450" y="0"/>
      <point x="458" y="0" type="curve" smooth="yes"/>
      <point x="477" y="0"/>
      <point x="502" y="1"/>
      <point x="521" y="2" type="curve" smooth="yes"/>
      <point x="551" y="3"/>
      <point x="553" y="3"/>
      <point x="585" y="3" type="curve" smooth="yes"/>
      <point x="617" y="3"/>
      <point x="619" y="3"/>
      <point x="649" y="2" type="curve" smooth="yes"/>
      <point x="669" y="1"/>
      <point x="695" y="0"/>
      <point x="714" y="0" type="curve" smooth="yes"/>
      <point x="722" y="0"/>
      <point x="734" y="0"/>
      <point x="734" y="18" type="curve" smooth="yes"/>
      <point x="734" y="31"/>
      <point x="724" y="31"/>
      <point x="703" y="31" type="curve" smooth="yes"/>
      <point x="699" y="31"/>
      <point x="681" y="31"/>
      <point x="665" y="33" type="curve" smooth="yes"/>
      <point x="643" y="36"/>
      <point x="642" y="40"/>
      <point x="642" y="49" type="curve" smooth="yes"/>
      <point x="642" y="58"/>
      <point x="644" y="66"/>
      <point x="646" y="73" type="curve" smooth="yes"/>
    </contour>
  </outline>
</glyph>
<glyph name="Sigma" format="2">
  <advance width="799"/>
  <unicode hex="03A3"/>
  <outline>
    <contour>
      <point x="459" y="326" type="line" smooth="yes"/>
      <point x="470" y="336"/>
      <point x="471" y="337"/>
      <point x="471" y="342" type="curve" smooth="yes"/>
      <point x="471" y="343"/>
      <point x="471" y="345"/>
      <point x="464" y="359" type="curve" smooth="yes"/>
      <point x="331" y="652" type="line"/>
      <point x="579" y="652" type="line" smooth="yes"/>
      <point x="731" y="652"/>
      <point x="777" y="629"/>
      <point x="777" y="521" type="curve" smooth="yes"/>
      <point x="777" y="507"/>
      <point x="774" y="477"/>
      <point x="774" y="474" type="curve" smooth="yes"/>
      <point x="774" y="470"/>
      <point x="774" y="458"/>
      <point x="788" y="458" type="curve" smooth="yes"/>
      <point x="800" y="458"/>
      <point x="801" y="466"/>
      <point x="803" y="483" type="curve" smooth="yes"/>
      <point x="822" y="653" type="line"/>
      <point x="823" y="670" type="line"/>
      <point x="823" y="683"/>
      <point x="813" y="683"/>
      <point x="795" y="683" type="curve" smooth="yes"/>
      <point x="254" y="683" type="line" smooth="yes"/>
      <point x="235" y="683"/>
      <point x="223" y="683"/>
      <point x="223" y="665" type="curve" smooth="yes"/>
      <point x="223" y="661"/>
      <point x="224" y="659"/>
      <point x="229" y="649" type="curve" smooth="yes"/>
      <point x="387" y="303" type="line"/>
      <point x="73" y="30" type="line" smooth="yes"/>
      <point x="61" y="19"/>
      <point x="61" y="16"/>
      <point x="61" y="13" type="curve" smooth="yes"/>
      <point x="61" y="0"/>
      <point x="71" y="0"/>
      <point x="89" y="0" type="curve" smooth="yes"/>
      <point x="630" y="0" type="line" smooth="yes"/>
      <point x="654" y="0"/>
      <point x="656" y="0"/>
      <point x="663" y="19" type="curve" smooth="yes"/>
      <point x="735" y="207" type="line"/>
      <point x="736" y="211"/>
      <point x="739" y="219"/>
      <point x="739" y="223" type="curve" smooth="yes"/>
      <point x="739" y="228"/>
      <point x="736" y="236"/>
      <point x="726" y="236" type="curve" smooth="yes"/>
      <point x="716" y="236"/>
      <point x="713" y="228"/>
      <point x="712" y="227" type="curve"/>
      <point x="650" y="74"/>
      <point x="595" y="42"/>
      <point x="413" y="42" type="curve" smooth="yes"/>
      <point x="134" y="42" type="line"/>
    </contour>
  </outline>
</glyph>
<glyph name="Upsilon" format="2">
  <advance width="599"/>
  <unicode hex="03A5"/>
  <outline>
    <contour>
      <point x="209" y="75" type="line" smooth="yes"/>
      <point x="198" y="32"/>
      <point x="180" y="32"/>
      <point x="95" y="31" type="curve"/>
      <point x="79" y="31"/>
      <point x="67" y="31"/>
      <point x="67" y="13" type="curve" smooth="yes"/>
      <point x="67" y="0"/>
      <point x="81" y="0"/>
      <point x="84" y="0" type="curve" smooth="yes"/>
      <point x="104" y="0"/>
      <point x="139" y="1"/>
      <point x="160" y="2" type="curve" smooth="yes"/>
      <point x="186" y="3"/>
      <point x="188" y="3"/>
      <point x="235" y="3" type="curve" smooth="yes"/>
      <point x="260" y="3"/>
      <point x="286" y="3"/>
      <point x="312" y="2" type="curve" smooth="yes"/>
      <point x="336" y="2"/>
      <point x="364" y="0"/>
      <point x="388" y="0" type="curve" smooth="yes"/>
      <point x="396" y="0"/>
      <point x="409" y="0"/>
      <point x="409" y="18" type="curve" smooth="yes"/>
      <point x="409" y="31"/>
      <point x="399" y="31"/>
      <point x="378" y="31" type="curve" smooth="yes"/>
      <point x="376" y="31"/>
      <point x="350" y="31"/>
      <point x="326" y="33" type="curve" smooth="yes"/>
      <point x="295" y="36"/>
      <point x="293" y="40"/>
      <point x="293" y="52" type="curve" smooth="yes"/>
      <point x="293" y="57"/>
      <point x="294" y="62"/>
      <point x="295" y="68" type="curve"/>
      <point x="297" y="75"/>
      <point x="355" y="307"/>
      <point x="363" y="337" type="curve" smooth="yes"/>
      <point x="411" y="529"/>
      <point x="501" y="631"/>
      <point x="600" y="631" type="curve" smooth="yes"/>
      <point x="643" y="631"/>
      <point x="684" y="608"/>
      <point x="684" y="564" type="curve" smooth="yes"/>
      <point x="684" y="556"/>
      <point x="682" y="547"/>
      <point x="682" y="544" type="curve" smooth="yes"/>
      <point x="682" y="534"/>
      <point x="691" y="534"/>
      <point x="694" y="534" type="curve" smooth="yes"/>
      <point x="711" y="534"/>
      <point x="718" y="546"/>
      <point x="718" y="592" type="curve" smooth="yes"/>
      <point x="718" y="658"/>
      <point x="682" y="705"/>
      <point x="617" y="705" type="curve" smooth="yes"/>
      <point x="505" y="705"/>
      <point x="411" y="604"/>
      <point x="348" y="456" type="curve"/>
      <point x="350" y="474"/>
      <point x="350" y="483"/>
      <point x="350" y="502" type="curve" smooth="yes"/>
      <point x="350" y="553"/>
      <point x="344" y="705"/>
      <point x="203" y="705" type="curve" smooth="yes"/>
      <point x="89" y="705"/>
      <point x="29" y="571"/>
      <point x="29" y="544" type="curve" smooth="yes"/>
      <point x="29" y="534"/>
      <point x="38" y="534"/>
      <point x="41" y="534" type="curve" smooth="yes"/>
      <point x="55" y="534"/>
      <point x="58" y="542"/>
      <point x="60" y="549" type="curve"/>
      <point x="84" y="619"/>
      <point x="159" y="631"/>
      <point x="183" y="631" type="curve" smooth="yes"/>
      <point x="295" y="631"/>
      <point x="295" y="507"/>
      <point x="295" y="477" type="curve" smooth="yes"/>
      <point x="295" y="418"/>
      <point x="289" y="394"/>
      <point x="258" y="269" type="curve" smooth="yes"/>
    </contour>
  </outline>
</glyph>
<glyph name="Phi" format="2">
  <advance width="685"/>
  <unicode hex="03A6"/>
  <outline>
    <contour>
      <point x="447" y="598" type="line" smooth="yes"/>
      <point x="458" y="643"/>
      <point x="461" y="652"/>
      <point x="555" y="652" type="curve" smooth="yes"/>
      <point x="582" y="652"/>
      <point x="591" y="652"/>
      <point x="591" y="670" type="curve" smooth="yes"/>
      <point x="591" y="683"/>
      <point x="578" y="683"/>
      <point x="575" y="683" type="curve" smooth="yes"/>
      <point x="558" y="683"/>
      <point x="516" y="682"/>
      <point x="499" y="681" type="curve" smooth="yes"/>
      <point x="480" y="680"/>
      <point x="451" y="680"/>
      <point x="427" y="680" type="curve" smooth="yes"/>
      <point x="401" y="680"/>
      <point x="376" y="681"/>
      <point x="350" y="681" type="curve" smooth="yes"/>
      <point x="326" y="681"/>
      <point x="299" y="683"/>
      <point x="276" y="683" type="curve" smooth="yes"/>
      <point x="270" y="683"/>
      <point x="255" y="683"/>
      <point x="255" y="665" type="curve" smooth="yes"/>
      <point x="255" y="652"/>
      <point x="265" y="652"/>
      <point x="289" y="652" type="curve" smooth="yes"/>
      <point x="310" y="652"/>
      <point x="318" y="652"/>
      <point x="341" y="650" type="curve" smooth="yes"/>
      <point x="367" y="647"/>
      <point x="372" y="644"/>
      <point x="372" y="631" type="curve" smooth="yes"/>
      <point x="372" y="629"/>
      <point x="372" y="627"/>
      <point x="353" y="548" type="curve"/>
      <point x="175" y="535"/>
      <point x="24" y="422"/>
      <point x="24" y="308" type="curve" smooth="yes"/>
      <point x="24" y="221"/>
      <point x="110" y="146"/>
      <point x="249" y="135" type="curve"/>
      <point x="236" y="83" type="line" smooth="yes"/>
      <point x="225" y="40"/>
      <point x="223" y="31"/>
      <point x="124" y="31" type="curve" smooth="yes"/>
      <point x="104" y="31"/>
      <point x="92" y="31"/>
      <point x="92" y="13" type="curve" smooth="yes"/>
      <point x="92" y="0"/>
      <point x="106" y="0"/>
      <point x="109" y="0" type="curve" smooth="yes"/>
      <point x="126" y="0"/>
      <point x="168" y="1"/>
      <point x="185" y="2" type="curve" smooth="yes"/>
      <point x="204" y="3"/>
      <point x="233" y="3"/>
      <point x="257" y="3" type="curve" smooth="yes"/>
      <point x="283" y="3"/>
      <point x="308" y="2"/>
      <point x="334" y="2" type="curve" smooth="yes"/>
      <point x="358" y="2"/>
      <point x="385" y="0"/>
      <point x="408" y="0" type="curve" smooth="yes"/>
      <point x="415" y="0"/>
      <point x="428" y="0"/>
      <point x="428" y="18" type="curve" smooth="yes"/>
      <point x="428" y="31"/>
      <point x="418" y="31"/>
      <point x="397" y="31" type="curve" smooth="yes"/>
      <point x="395" y="31"/>
      <point x="369" y="31"/>
      <point x="345" y="33" type="curve" smooth="yes"/>
      <point x="314" y="36"/>
      <point x="312" y="40"/>
      <point x="312" y="52" type="curve" smooth="yes"/>
      <point x="312" y="58"/>
      <point x="324" y="107"/>
      <point x="331" y="135" type="curve"/>
      <point x="504" y="147"/>
      <point x="660" y="259"/>
      <point x="660" y="375" type="curve" smooth="yes"/>
      <point x="660" y="466"/>
      <point x="566" y="538"/>
      <point x="435" y="548" type="curve"/>
    </contour>
    <contour>
      <point x="255" y="160" type="line"/>
      <point x="194" y="167"/>
      <point x="166" y="189"/>
      <point x="156" y="198" type="curve"/>
      <point x="129" y="219"/>
      <point x="117" y="248"/>
      <point x="117" y="287" type="curve" smooth="yes"/>
      <point x="117" y="341"/>
      <point x="147" y="503"/>
      <point x="346" y="523" type="curve"/>
    </contour>
    <contour>
      <point x="428" y="523" type="line"/>
      <point x="498" y="515"/>
      <point x="567" y="484"/>
      <point x="567" y="396" type="curve" smooth="yes"/>
      <point x="567" y="372"/>
      <point x="559" y="186"/>
      <point x="338" y="160" type="curve"/>
    </contour>
  </outline>
</glyph>
<glyph name="Psi" format="2">
  <advance width="631"/>
  <unicode hex="03A8"/>
  <outline>
    <contour>
      <point x="427" y="604" type="line" smooth="yes"/>
      <point x="436" y="642"/>
      <point x="439" y="652"/>
      <point x="532" y="652" type="curve" smooth="yes"/>
      <point x="560" y="652"/>
      <point x="569" y="652"/>
      <point x="569" y="670" type="curve" smooth="yes"/>
      <point x="569" y="683"/>
      <point x="556" y="683"/>
      <point x="553" y="683" type="curve" smooth="yes"/>
      <point x="536" y="683"/>
      <point x="494" y="682"/>
      <point x="477" y="681" type="curve" smooth="yes"/>
      <point x="458" y="680"/>
      <point x="429" y="680"/>
      <point x="405" y="680" type="curve" smooth="yes"/>
      <point x="379" y="680"/>
      <point x="354" y="681"/>
      <point x="328" y="681" type="curve" smooth="yes"/>
      <point x="304" y="681"/>
      <point x="277" y="683"/>
      <point x="254" y="683" type="curve" smooth="yes"/>
      <point x="248" y="683"/>
      <point x="233" y="683"/>
      <point x="233" y="665" type="curve" smooth="yes"/>
      <point x="233" y="652"/>
      <point x="243" y="652"/>
      <point x="267" y="652" type="curve" smooth="yes"/>
      <point x="288" y="652"/>
      <point x="296" y="652"/>
      <point x="319" y="650" type="curve" smooth="yes"/>
      <point x="345" y="647"/>
      <point x="350" y="644"/>
      <point x="350" y="631" type="curve" smooth="yes"/>
      <point x="350" y="623"/>
      <point x="349" y="618"/>
      <point x="347" y="612" type="curve"/>
      <point x="234" y="162" type="line"/>
      <point x="169" y="176"/>
      <point x="134" y="223"/>
      <point x="134" y="304" type="curve" smooth="yes"/>
      <point x="134" y="313"/>
      <point x="136" y="354"/>
      <point x="147" y="396" type="curve" smooth="yes"/>
      <point x="158" y="443"/>
      <point x="158" y="455"/>
      <point x="158" y="473" type="curve" smooth="yes"/>
      <point x="158" y="555"/>
      <point x="111" y="555"/>
      <point x="85" y="555" type="curve" smooth="yes"/>
      <point x="57" y="555" type="line" smooth="yes"/>
      <point x="38" y="555"/>
      <point x="28" y="555"/>
      <point x="28" y="542" type="curve" smooth="yes"/>
      <point x="28" y="532"/>
      <point x="38" y="531"/>
      <point x="44" y="530" type="curve" smooth="yes"/>
      <point x="65" y="527"/>
      <point x="77" y="515"/>
      <point x="77" y="473" type="curve" smooth="yes"/>
      <point x="77" y="462"/>
      <point x="77" y="448"/>
      <point x="69" y="415" type="curve" smooth="yes"/>
      <point x="57" y="363"/>
      <point x="57" y="345"/>
      <point x="57" y="322" type="curve" smooth="yes"/>
      <point x="57" y="206"/>
      <point x="124" y="150"/>
      <point x="227" y="136" type="curve"/>
      <point x="215" y="86" type="line" smooth="yes"/>
      <point x="203" y="39"/>
      <point x="201" y="31"/>
      <point x="102" y="31" type="curve" smooth="yes"/>
      <point x="82" y="31"/>
      <point x="70" y="31"/>
      <point x="70" y="13" type="curve" smooth="yes"/>
      <point x="70" y="0"/>
      <point x="84" y="0"/>
      <point x="87" y="0" type="curve" smooth="yes"/>
      <point x="104" y="0"/>
      <point x="146" y="1"/>
      <point x="163" y="2" type="curve" smooth="yes"/>
      <point x="182" y="3"/>
      <point x="211" y="3"/>
      <point x="235" y="3" type="curve" smooth="yes"/>
      <point x="261" y="3"/>
      <point x="286" y="2"/>
      <point x="312" y="2" type="curve" smooth="yes"/>
      <point x="336" y="2"/>
      <point x="363" y="0"/>
      <point x="386" y="0" type="curve" smooth="yes"/>
      <point x="393" y="0"/>
      <point x="406" y="0"/>
      <point x="406" y="18" type="curve" smooth="yes"/>
      <point x="406" y="31"/>
      <point x="396" y="31"/>
      <point x="375" y="31" type="curve" smooth="yes"/>
      <point x="373" y="31"/>
      <point x="347" y="31"/>
      <point x="323" y="33" type="curve" smooth="yes"/>
      <point x="292" y="36"/>
      <point x="290" y="40"/>
      <point x="290" y="52" type="curve" smooth="yes"/>
      <point x="290" y="58"/>
      <point x="302" y="107"/>
      <point x="309" y="135" type="curve"/>
      <point x="369" y="141"/>
      <point x="438" y="161"/>
      <point x="501" y="220" type="curve" smooth="yes"/>
      <point x="571" y="286"/>
      <point x="594" y="370"/>
      <point x="603" y="403" type="curve" smooth="yes"/>
      <point x="613" y="439"/>
      <point x="636" y="522"/>
      <point x="695" y="530" type="curve" smooth="yes"/>
      <point x="702" y="531"/>
      <point x="711" y="532"/>
      <point x="711" y="542" type="curve" smooth="yes"/>
      <point x="711" y="555"/>
      <point x="701" y="555"/>
      <point x="683" y="555" type="curve" smooth="yes"/>
      <point x="654" y="555" type="line" smooth="yes"/>
      <point x="604" y="555"/>
      <point x="557" y="537"/>
      <point x="522" y="406" type="curve" smooth="yes"/>
      <point x="501" y="327"/>
      <point x="452" y="194"/>
      <point x="316" y="163" type="curve"/>
    </contour>
  </outline>
</glyph>
<glyph name="alpha" format="2">
  <advance width="658"/>
  <unicode hex="03B1"/>
  <outline>
    <contour>
      <point x="491" y="235" type="line" smooth="yes"/>
      <point x="491" y="384"/>
      <point x="401" y="442"/>
      <point x="316" y="442" type="curve" smooth="yes"/>
      <point x="180" y="442"/>
      <point x="43" y="304"/>
      <point x="43" y="160" type="curve" smooth="yes"/>
      <point x="43" y="57"/>
      <point x="113" y="-11"/>
      <point x="210" y="-11" type="curve" smooth="yes"/>
      <point x="318" y="-11"/>
      <point x="400" y="53"/>
      <point x="426" y="73" type="curve"/>
      <point x="439" y="23"/>
      <point x="472" y="-11"/>
      <point x="521" y="-11" type="curve" smooth="yes"/>
      <point x="575" y="-11"/>
      <point x="608" y="42"/>
      <point x="608" y="60" type="curve" smooth="yes"/>
      <point x="608" y="71"/>
      <point x="597" y="71"/>
      <point x="594" y="71" type="curve" smooth="yes"/>
      <point x="583" y="71"/>
      <point x="582" y="67"/>
      <point x="579" y="58" type="curve" smooth="yes"/>
      <point x="568" y="29"/>
      <point x="542" y="14"/>
      <point x="524" y="14" type="curve" smooth="yes"/>
      <point x="492" y="14"/>
      <point x="492" y="103"/>
      <point x="492" y="123" type="curve" smooth="yes"/>
      <point x="492" y="136"/>
      <point x="492" y="138"/>
      <point x="501" y="149" type="curve" smooth="yes"/>
      <point x="518" y="170"/>
      <point x="545" y="205"/>
      <point x="571" y="256" type="curve" smooth="yes"/>
      <point x="601" y="315"/>
      <point x="617" y="376"/>
      <point x="617" y="382" type="curve" smooth="yes"/>
      <point x="617" y="383"/>
      <point x="617" y="393"/>
      <point x="604" y="393" type="curve" smooth="yes"/>
      <point x="592" y="393"/>
      <point x="592" y="390"/>
      <point x="587" y="374" type="curve" smooth="yes"/>
      <point x="577" y="339"/>
      <point x="554" y="263"/>
      <point x="491" y="179" type="curve"/>
    </contour>
    <contour>
      <point x="421" y="102" type="curve"/>
      <point x="396" y="81"/>
      <point x="315" y="14"/>
      <point x="213" y="14" type="curve" smooth="yes"/>
      <point x="157" y="14"/>
      <point x="120" y="51"/>
      <point x="120" y="123" type="curve" smooth="yes"/>
      <point x="120" y="166"/>
      <point x="139" y="265"/>
      <point x="179" y="329" type="curve" smooth="yes"/>
      <point x="205" y="370"/>
      <point x="258" y="417"/>
      <point x="316" y="417" type="curve" smooth="yes"/>
      <point x="383" y="417"/>
      <point x="405" y="357"/>
      <point x="414" y="297" type="curve" smooth="yes"/>
      <point x="422" y="243"/>
      <point x="416" y="147"/>
    </contour>
  </outline>
</glyph>
<glyph name="beta" format="2">
  <advance width="579"/>
  <unicode hex="03B2"/>
  <outline>
    <contour>
      <point x="586.0" y="572" type="curve" smooth="yes"/>
      <point x="586.0" y="641"/>
      <point x="538.0" y="706"/>
      <point x="432.0" y="706" type="curve" smooth="yes"/>
      <point x="407.0" y="706"/>
      <point x="386.0" y="702"/>
      <point x="358.0" y="687" type="curve" smooth="yes"/>
      <point x="269.0" y="641"/>
      <point x="216.0" y="544"/>
      <point x="188.0" y="446" type="curve" smooth="yes"/>
      <point x="31.0" y="-183" type="line"/>
      <point x="30.0" y="-189"/>
      <point x="37.0" y="-194"/>
      <point x="44.0" y="-194" type="curve" smooth="yes"/>
      <point x="52.0" y="-194"/>
      <point x="57.0" y="-191"/>
      <point x="58.0" y="-189" type="curve"/>
      <point x="127.0" y="84" type="line"/>
      <point x="151.0" y="22"/>
      <point x="199.0" y="-11"/>
      <point x="265.0" y="-11" type="curve" smooth="yes"/>
      <point x="342.0" y="-11"/>
      <point x="416.0" y="23"/>
      <point x="470.0" y="75" type="curve" smooth="yes"/>
      <point x="516.0" y="119"/>
      <point x="545.0" y="181"/>
      <point x="545.0" y="248" type="curve" smooth="yes"/>
      <point x="545.0" y="310"/>
      <point x="518.0" y="371"/>
      <point x="472.0" y="400" type="curve"/>
      <point x="521.0" y="425"/>
      <point x="586.0" y="495"/>
    </contour>
    <contour>
      <point x="400.0" y="401" type="curve"/>
      <point x="384.0" y="397"/>
      <point x="367.0" y="394"/>
      <point x="350.0" y="394" type="curve" smooth="yes"/>
      <point x="335.0" y="394"/>
      <point x="320.0" y="394"/>
      <point x="306.0" y="399" type="curve"/>
      <point x="318.0" y="406"/>
      <point x="337.0" y="406"/>
      <point x="350.0" y="406" type="curve" smooth="yes"/>
      <point x="367.0" y="406"/>
      <point x="384.0" y="406"/>
    </contour>
    <contour>
      <point x="526.0" y="589" type="curve" smooth="yes"/>
      <point x="526.0" y="526"/>
      <point x="489.0" y="444"/>
      <point x="437.0" y="419" type="curve"/>
      <point x="412.0" y="428"/>
      <point x="387.0" y="431"/>
      <point x="358.0" y="431" type="curve" smooth="yes"/>
      <point x="306.0" y="431"/>
      <point x="276.0" y="423"/>
      <point x="276.0" y="397" type="curve" smooth="yes"/>
      <point x="276.0" y="376"/>
      <point x="299.0" y="369"/>
      <point x="346.0" y="369" type="curve" smooth="yes"/>
      <point x="381.0" y="369"/>
      <point x="404.0" y="375"/>
      <point x="435.0" y="383" type="curve"/>
      <point x="467.0" y="361"/>
      <point x="478.0" y="314"/>
      <point x="478.0" y="276" type="curve" smooth="yes"/>
      <point x="478.0" y="208"/>
      <point x="457.0" y="133"/>
      <point x="411.0" y="83" type="curve" smooth="yes"/>
      <point x="373.0" y="42"/>
      <point x="322.0" y="15"/>
      <point x="266.0" y="15" type="curve" smooth="yes"/>
      <point x="191.0" y="15"/>
      <point x="147.0" y="68"/>
      <point x="147.0" y="141" type="curve" smooth="yes"/>
      <point x="147.0" y="151"/>
      <point x="147.0" y="162"/>
      <point x="150.0" y="173" type="curve" smooth="yes"/>
      <point x="218.0" y="446" type="line" smooth="yes"/>
      <point x="241.0" y="531"/>
      <point x="317.0" y="681"/>
      <point x="433.0" y="681" type="curve" smooth="yes"/>
      <point x="481.0" y="681"/>
      <point x="526.0" y="657"/>
    </contour>
  </outline>
</glyph>
<glyph name="gamma" format="2">
  <advance width="530"/>
  <unicode hex="03B3"/>
  <outline>
    <contour>
      <point x="398" y="132" type="curve"/>
      <point x="395" y="205"/>
      <point x="380" y="277"/>
      <point x="350" y="343" type="curve" smooth="yes"/>
      <point x="317" y="414"/>
      <point x="270" y="442"/>
      <point x="217" y="442" type="curve" smooth="yes"/>
      <point x="90" y="442"/>
      <point x="18" y="293"/>
      <point x="18" y="260" type="curve" smooth="yes"/>
      <point x="18" y="249"/>
      <point x="29" y="249"/>
      <point x="32" y="249" type="curve" smooth="yes"/>
      <point x="40" y="249"/>
      <point x="43" y="251"/>
      <point x="46" y="259" type="curve" smooth="yes"/>
      <point x="78" y="352"/>
      <point x="171" y="368"/>
      <point x="204" y="368" type="curve" smooth="yes"/>
      <point x="365" y="368"/>
      <point x="370" y="176"/>
      <point x="370" y="112" type="curve" smooth="yes"/>
      <point x="370" y="52"/>
      <point x="366" y="38"/>
      <point x="361" y="24" type="curve"/>
      <point x="335" y="-64"/>
      <point x="308" y="-167"/>
      <point x="308" y="-194" type="curve" smooth="yes"/>
      <point x="308" y="-201"/>
      <point x="308" y="-216"/>
      <point x="322" y="-216" type="curve" smooth="yes"/>
      <point x="329" y="-216"/>
      <point x="338" y="-216"/>
      <point x="355" y="-155" type="curve" smooth="yes"/>
      <point x="381" y="-63"/>
      <point x="388" y="-9"/>
      <point x="394" y="32" type="curve"/>
      <point x="395" y="43"/>
      <point x="448" y="205"/>
      <point x="538" y="384" type="curve" smooth="yes"/>
      <point x="555" y="416"/>
      <point x="555" y="418"/>
      <point x="555" y="420" type="curve" smooth="yes"/>
      <point x="555" y="427"/>
      <point x="550" y="431"/>
      <point x="542" y="431" type="curve" smooth="yes"/>
      <point x="540" y="431"/>
      <point x="533" y="431"/>
      <point x="529" y="425" type="curve"/>
      <point x="506" y="384"/>
      <point x="482" y="332"/>
      <point x="461" y="285" type="curve" smooth="yes"/>
      <point x="456" y="275"/>
      <point x="429" y="213"/>
    </contour>
  </outline>
</glyph>
<glyph name="delta" format="2">
  <advance width="455"/>
  <unicode hex="03B4"/>
  <outline>
    <contour>
      <point x="268" y="436" type="curve"/>
      <point x="154" y="411"/>
      <point x="43" y="291"/>
      <point x="43" y="159" type="curve" smooth="yes"/>
      <point x="43" y="48"/>
      <point x="121" y="-12"/>
      <point x="208" y="-12" type="curve" smooth="yes"/>
      <point x="324" y="-12"/>
      <point x="411" y="140"/>
      <point x="411" y="282" type="curve" smooth="yes"/>
      <point x="411" y="374"/>
      <point x="367" y="428"/>
      <point x="336" y="466" type="curve" smooth="yes"/>
      <point x="301" y="509"/>
      <point x="236" y="588"/>
      <point x="236" y="633" type="curve" smooth="yes"/>
      <point x="236" y="650"/>
      <point x="249" y="677"/>
      <point x="291" y="677" type="curve" smooth="yes"/>
      <point x="322" y="677"/>
      <point x="342" y="665"/>
      <point x="363" y="651" type="curve"/>
      <point x="377" y="643"/>
      <point x="406" y="625"/>
      <point x="421" y="625" type="curve" smooth="yes"/>
      <point x="442" y="625"/>
      <point x="461" y="644"/>
      <point x="461" y="666" type="curve" smooth="yes"/>
      <point x="461" y="688"/>
      <point x="448" y="691"/>
      <point x="401" y="701" type="curve" smooth="yes"/>
      <point x="352" y="712"/>
      <point x="334" y="712"/>
      <point x="320" y="712" type="curve" smooth="yes"/>
      <point x="220" y="712"/>
      <point x="205" y="641"/>
      <point x="205" y="609" type="curve" smooth="yes"/>
      <point x="205" y="559"/>
      <point x="237" y="491"/>
    </contour>
    <contour>
      <point x="282" y="412" type="curve"/>
      <point x="335" y="319"/>
      <point x="337" y="274"/>
      <point x="337" y="241" type="curve" smooth="yes"/>
      <point x="337" y="165"/>
      <point x="296" y="13"/>
      <point x="207" y="13" type="curve" smooth="yes"/>
      <point x="164" y="13"/>
      <point x="109" y="41"/>
      <point x="109" y="131" type="curve" smooth="yes"/>
      <point x="109" y="195"/>
      <point x="144" y="374"/>
    </contour>
  </outline>
</glyph>
<glyph name="epsilon" format="2">
  <advance width="477"/>
  <unicode hex="03B5"/>
  <outline>
    <contour>
      <point x="144" y="225" type="curve"/>
      <point x="180" y="211"/>
      <point x="205" y="211"/>
      <point x="232" y="211" type="curve" smooth="yes"/>
      <point x="259" y="211"/>
      <point x="315" y="211"/>
      <point x="315" y="244" type="curve" smooth="yes"/>
      <point x="315" y="267"/>
      <point x="289" y="273"/>
      <point x="241" y="273" type="curve" smooth="yes"/>
      <point x="219" y="273"/>
      <point x="185" y="271"/>
      <point x="145" y="254" type="curve"/>
      <point x="107" y="274"/>
      <point x="105" y="301"/>
      <point x="105" y="309" type="curve" smooth="yes"/>
      <point x="105" y="366"/>
      <point x="200" y="403"/>
      <point x="295" y="403" type="curve" smooth="yes"/>
      <point x="316" y="403"/>
      <point x="350" y="402"/>
      <point x="391" y="373" type="curve" smooth="yes"/>
      <point x="397" y="369"/>
      <point x="402" y="366"/>
      <point x="410" y="366" type="curve" smooth="yes"/>
      <point x="420" y="366"/>
      <point x="438" y="377"/>
      <point x="438" y="394" type="curve" smooth="yes"/>
      <point x="438" y="413"/>
      <point x="407" y="427"/>
      <point x="388" y="436" type="curve" smooth="yes"/>
      <point x="374" y="443"/>
      <point x="345" y="453"/>
      <point x="306" y="453" type="curve" smooth="yes"/>
      <point x="184" y="453"/>
      <point x="77" y="382"/>
      <point x="77" y="309" type="curve" smooth="yes"/>
      <point x="77" y="287"/>
      <point x="89" y="259"/>
      <point x="117" y="240" type="curve"/>
      <point x="85" y="221"/>
      <point x="28" y="173"/>
      <point x="28" y="106" type="curve" smooth="yes"/>
      <point x="28" y="31"/>
      <point x="98" y="-22"/>
      <point x="195" y="-22" type="curve" smooth="yes"/>
      <point x="331" y="-22"/>
      <point x="388" y="65"/>
      <point x="388" y="83" type="curve" smooth="yes"/>
      <point x="388" y="89"/>
      <point x="384" y="95"/>
      <point x="376" y="95" type="curve" smooth="yes"/>
      <point x="370" y="95"/>
      <point x="368" y="92"/>
      <point x="361" y="80" type="curve" smooth="yes"/>
      <point x="335" y="39"/>
      <point x="277" y="28"/>
      <point x="206" y="28" type="curve" smooth="yes"/>
      <point x="69" y="28"/>
      <point x="56" y="86"/>
      <point x="56" y="112" type="curve" smooth="yes"/>
      <point x="56" y="147"/>
      <point x="89" y="199"/>
    </contour>
    <contour>
      <point x="182" y="240" type="curve"/>
      <point x="203" y="246"/>
      <point x="220" y="248"/>
      <point x="240" y="248" type="curve" smooth="yes"/>
      <point x="260" y="248"/>
      <point x="265" y="247"/>
      <point x="285" y="243" type="curve"/>
      <point x="270" y="237"/>
      <point x="268" y="236"/>
      <point x="232" y="236" type="curve" smooth="yes"/>
      <point x="215" y="236"/>
      <point x="199" y="236"/>
    </contour>
  </outline>
</glyph>
<glyph name="zeta" format="2">
  <advance width="450"/>
  <unicode hex="03B6"/>
  <outline>
    <contour>
      <point x="328" y="574" type="curve"/>
      <point x="348" y="555"/>
      <point x="371" y="555"/>
      <point x="391" y="555" type="curve" smooth="yes"/>
      <point x="418" y="555"/>
      <point x="483" y="555"/>
      <point x="483" y="588" type="curve" smooth="yes"/>
      <point x="483" y="614"/>
      <point x="445" y="617"/>
      <point x="401" y="617" type="curve" smooth="yes"/>
      <point x="386" y="617"/>
      <point x="363" y="617"/>
      <point x="337" y="607" type="curve"/>
      <point x="332" y="619"/>
      <point x="331" y="637"/>
      <point x="331" y="644" type="curve" smooth="yes"/>
      <point x="331" y="668"/>
      <point x="336" y="677"/>
      <point x="336" y="684" type="curve" smooth="yes"/>
      <point x="336" y="689"/>
      <point x="332" y="697"/>
      <point x="322" y="697" type="curve" smooth="yes"/>
      <point x="303" y="697"/>
      <point x="303" y="656"/>
      <point x="303" y="645" type="curve" smooth="yes"/>
      <point x="303" y="637"/>
      <point x="303" y="616"/>
      <point x="313" y="596" type="curve"/>
      <point x="188" y="528"/>
      <point x="47" y="349"/>
      <point x="47" y="168" type="curve" smooth="yes"/>
      <point x="47" y="149"/>
      <point x="47" y="85"/>
      <point x="91" y="36" type="curve" smooth="yes"/>
      <point x="126" y="-2"/>
      <point x="154" y="-11"/>
      <point x="252" y="-42" type="curve" smooth="yes"/>
      <point x="302" y="-58"/>
      <point x="340" y="-70"/>
      <point x="340" y="-116" type="curve" smooth="yes"/>
      <point x="340" y="-144"/>
      <point x="319" y="-180"/>
      <point x="286" y="-180" type="curve" smooth="yes"/>
      <point x="247" y="-180"/>
      <point x="219" y="-158"/>
      <point x="210" y="-151" type="curve" smooth="yes"/>
      <point x="204" y="-146"/>
      <point x="201" y="-145"/>
      <point x="197" y="-145" type="curve" smooth="yes"/>
      <point x="191" y="-145"/>
      <point x="185" y="-150"/>
      <point x="185" y="-157" type="curve" smooth="yes"/>
      <point x="185" y="-169"/>
      <point x="234" y="-205"/>
      <point x="286" y="-205" type="curve" smooth="yes"/>
      <point x="348" y="-205"/>
      <point x="396" y="-142"/>
      <point x="396" y="-84" type="curve" smooth="yes"/>
      <point x="396" y="-37"/>
      <point x="369" y="-4"/>
      <point x="324" y="13" type="curve"/>
      <point x="317" y="15"/>
      <point x="269" y="31"/>
      <point x="241" y="40" type="curve" smooth="yes"/>
      <point x="176" y="61"/>
      <point x="106" y="83"/>
      <point x="106" y="196" type="curve" smooth="yes"/>
      <point x="106" y="349"/>
      <point x="226" y="515"/>
    </contour>
    <contour>
      <point x="356" y="586" type="curve"/>
      <point x="370" y="592"/>
      <point x="385" y="592"/>
      <point x="400" y="592" type="curve" smooth="yes"/>
      <point x="428" y="592"/>
      <point x="433" y="591"/>
      <point x="452" y="587" type="curve"/>
      <point x="443" y="584"/>
      <point x="432" y="580"/>
      <point x="392" y="580" type="curve" smooth="yes"/>
      <point x="369" y="580"/>
      <point x="367" y="580"/>
    </contour>
  </outline>
</glyph>
<glyph name="eta" format="2">
  <advance width="513"/>
  <unicode hex="03B7"/>
  <outline>
    <contour>
      <point x="503" y="276" type="line" smooth="yes"/>
      <point x="511" y="307"/>
      <point x="511" y="317"/>
      <point x="511" y="332" type="curve" smooth="yes"/>
      <point x="511" y="421"/>
      <point x="445" y="442"/>
      <point x="392" y="442" type="curve" smooth="yes"/>
      <point x="299" y="442"/>
      <point x="250" y="376"/>
      <point x="234" y="355" type="curve"/>
      <point x="228" y="409"/>
      <point x="187" y="442"/>
      <point x="137" y="442" type="curve" smooth="yes"/>
      <point x="95" y="442"/>
      <point x="74" y="411"/>
      <point x="60" y="384" type="curve" smooth="yes"/>
      <point x="43" y="349"/>
      <point x="29" y="292"/>
      <point x="29" y="288" type="curve" smooth="yes"/>
      <point x="29" y="279"/>
      <point x="36" y="276"/>
      <point x="43" y="276" type="curve" smooth="yes"/>
      <point x="54" y="276"/>
      <point x="56" y="281"/>
      <point x="61" y="301" type="curve" smooth="yes"/>
      <point x="80" y="380"/>
      <point x="101" y="417"/>
      <point x="135" y="417" type="curve" smooth="yes"/>
      <point x="165" y="417"/>
      <point x="165" y="385"/>
      <point x="165" y="370" type="curve" smooth="yes"/>
      <point x="165" y="349"/>
      <point x="157" y="318"/>
      <point x="151" y="292" type="curve" smooth="yes"/>
      <point x="144" y="266"/>
      <point x="134" y="223"/>
      <point x="130" y="211" type="curve"/>
      <point x="90" y="47" type="line" smooth="yes"/>
      <point x="83" y="23"/>
      <point x="83" y="21"/>
      <point x="83" y="18" type="curve" smooth="yes"/>
      <point x="83" y="5"/>
      <point x="92" y="-11"/>
      <point x="114" y="-11" type="curve" smooth="yes"/>
      <point x="128" y="-11"/>
      <point x="143" y="-2"/>
      <point x="150" y="10" type="curve"/>
      <point x="153" y="16"/>
      <point x="161" y="48"/>
      <point x="166" y="68" type="curve" smooth="yes"/>
      <point x="189" y="157" type="line" smooth="yes"/>
      <point x="200" y="204"/>
      <point x="219" y="277"/>
      <point x="220" y="285" type="curve"/>
      <point x="222" y="291"/>
      <point x="247" y="339"/>
      <point x="283" y="374" type="curve" smooth="yes"/>
      <point x="312" y="401"/>
      <point x="350" y="417"/>
      <point x="389" y="417" type="curve" smooth="yes"/>
      <point x="443" y="417"/>
      <point x="443" y="364"/>
      <point x="443" y="347" type="curve" smooth="yes"/>
      <point x="443" y="319"/>
      <point x="439" y="305"/>
      <point x="434" y="283" type="curve" smooth="yes"/>
      <point x="321" y="-165" type="line" smooth="yes"/>
      <point x="317" y="-179"/>
      <point x="317" y="-181"/>
      <point x="317" y="-187" type="curve" smooth="yes"/>
      <point x="317" y="-204"/>
      <point x="329" y="-216"/>
      <point x="348" y="-216" type="curve" smooth="yes"/>
      <point x="380" y="-216"/>
      <point x="387" y="-187"/>
      <point x="390" y="-175" type="curve" smooth="yes"/>
    </contour>
  </outline>
</glyph>
<glyph name="theta" format="2">
  <advance width="481"/>
  <unicode hex="03B8"/>
  <outline>
    <contour>
      <point x="466" y="495" type="curve" smooth="yes"/>
      <point x="466" y="598"/>
      <point x="432" y="705"/>
      <point x="340" y="705" type="curve" smooth="yes"/>
      <point x="194" y="705"/>
      <point x="41" y="420"/>
      <point x="41" y="198" type="curve" smooth="yes"/>
      <point x="41" y="126"/>
      <point x="63" y="-11"/>
      <point x="167" y="-11" type="curve" smooth="yes"/>
      <point x="313" y="-11"/>
      <point x="466" y="271"/>
    </contour>
    <contour>
      <point x="150" y="363" type="line"/>
      <point x="170" y="442"/>
      <point x="191" y="515"/>
      <point x="232" y="584" type="curve" smooth="yes"/>
      <point x="256" y="624"/>
      <point x="293" y="680"/>
      <point x="339" y="680" type="curve" smooth="yes"/>
      <point x="393" y="680"/>
      <point x="397" y="594"/>
      <point x="397" y="556" type="curve" smooth="yes"/>
      <point x="397" y="496"/>
      <point x="381" y="426"/>
      <point x="366" y="363" type="curve"/>
    </contour>
    <contour>
      <point x="357" y="331" type="line"/>
      <point x="341" y="268"/>
      <point x="322" y="193"/>
      <point x="282" y="122" type="curve" smooth="yes"/>
      <point x="256" y="75"/>
      <point x="216" y="14"/>
      <point x="168" y="14" type="curve" smooth="yes"/>
      <point x="125" y="14"/>
      <point x="111" y="66"/>
      <point x="111" y="139" type="curve" smooth="yes"/>
      <point x="111" y="203"/>
      <point x="127" y="268"/>
      <point x="142" y="331" type="curve"/>
    </contour>
  </outline>
</glyph>
<glyph name="iota" format="2">
  <advance width="363"/>
  <unicode hex="03B9"/>
  <outline>
    <contour>
      <point x="333" y="143" type="curve" smooth="yes"/>
      <point x="333" y="148"/>
      <point x="330" y="155"/>
      <point x="320" y="155" type="curve" smooth="yes"/>
      <point x="309" y="155"/>
      <point x="307" y="149"/>
      <point x="306" y="144" type="curve"/>
      <point x="273" y="41"/>
      <point x="184" y="14"/>
      <point x="146" y="14" type="curve" smooth="yes"/>
      <point x="137" y="14"/>
      <point x="120" y="14"/>
      <point x="120" y="46" type="curve" smooth="yes"/>
      <point x="120" y="69"/>
      <point x="129" y="93"/>
      <point x="137" y="114" type="curve" smooth="yes"/>
      <point x="186" y="246"/>
      <point x="224" y="408"/>
      <point x="224" y="413" type="curve" smooth="yes"/>
      <point x="224" y="429"/>
      <point x="211" y="442"/>
      <point x="193" y="442" type="curve" smooth="yes"/>
      <point x="185" y="442"/>
      <point x="163" y="439"/>
      <point x="153" y="412" type="curve" smooth="yes"/>
      <point x="146" y="393"/>
      <point x="136" y="342"/>
      <point x="130" y="322" type="curve" smooth="yes"/>
      <point x="123" y="302"/>
      <point x="109" y="249"/>
      <point x="103" y="229" type="curve"/>
      <point x="101" y="219"/>
      <point x="93" y="197"/>
      <point x="90" y="188" type="curve"/>
      <point x="81" y="152"/>
      <point x="56" y="108"/>
      <point x="56" y="73" type="curve" smooth="yes"/>
      <point x="56" y="26"/>
      <point x="89" y="-11"/>
      <point x="144" y="-11" type="curve" smooth="yes"/>
      <point x="260" y="-11"/>
      <point x="333" y="107"/>
    </contour>
  </outline>
</glyph>
<glyph name="kappa" format="2">
  <advance width="592"/>
  <unicode hex="03BA"/>
  <outline>
    <contour>
      <point x="224" y="413" type="line"/>
      <point x="224" y="429"/>
      <point x="211" y="442"/>
      <point x="193" y="442" type="curve" smooth="yes"/>
      <point x="161" y="442"/>
      <point x="153" y="413"/>
      <point x="151" y="403" type="curve"/>
      <point x="58" y="35" type="line"/>
      <point x="57" y="30"/>
      <point x="55" y="24"/>
      <point x="55" y="18" type="curve" smooth="yes"/>
      <point x="55" y="5"/>
      <point x="64" y="-11"/>
      <point x="86" y="-11" type="curve" smooth="yes"/>
      <point x="100" y="-11"/>
      <point x="115" y="-2"/>
      <point x="122" y="10" type="curve" smooth="yes"/>
      <point x="130" y="24"/>
      <point x="170" y="196"/>
      <point x="178" y="229" type="curve"/>
      <point x="215" y="228"/>
      <point x="252" y="225"/>
      <point x="287" y="214" type="curve" smooth="yes"/>
      <point x="347" y="195"/>
      <point x="354" y="168"/>
      <point x="354" y="145" type="curve" smooth="yes"/>
      <point x="354" y="136"/>
      <point x="354" y="134"/>
      <point x="351" y="122" type="curve" smooth="yes"/>
      <point x="349" y="113"/>
      <point x="347" y="100"/>
      <point x="347" y="90" type="curve" smooth="yes"/>
      <point x="347" y="31"/>
      <point x="388" y="-11"/>
      <point x="443" y="-11" type="curve" smooth="yes"/>
      <point x="481" y="-11"/>
      <point x="505" y="12"/>
      <point x="523" y="41" type="curve" smooth="yes"/>
      <point x="548" y="79"/>
      <point x="562" y="139"/>
      <point x="562" y="143" type="curve" smooth="yes"/>
      <point x="562" y="148"/>
      <point x="559" y="155"/>
      <point x="549" y="155" type="curve" smooth="yes"/>
      <point x="538" y="155"/>
      <point x="536" y="150"/>
      <point x="531" y="132" type="curve" smooth="yes"/>
      <point x="518" y="81"/>
      <point x="493" y="14"/>
      <point x="446" y="14" type="curve" smooth="yes"/>
      <point x="417" y="14"/>
      <point x="414" y="40"/>
      <point x="414" y="62" type="curve" smooth="yes"/>
      <point x="414" y="87"/>
      <point x="421" y="113"/>
      <point x="421" y="115" type="curve"/>
      <point x="423" y="122"/>
      <point x="426" y="135"/>
      <point x="426" y="148" type="curve" smooth="yes"/>
      <point x="426" y="208"/>
      <point x="372" y="228"/>
      <point x="355" y="234" type="curve" smooth="yes"/>
      <point x="344" y="238"/>
      <point x="314" y="248"/>
      <point x="231" y="254" type="curve"/>
      <point x="259" y="269"/>
      <point x="282" y="287"/>
      <point x="326" y="323" type="curve" smooth="yes"/>
      <point x="370" y="358"/>
      <point x="400" y="381"/>
      <point x="436" y="396" type="curve"/>
      <point x="436" y="395"/>
      <point x="432" y="384"/>
      <point x="432" y="377" type="curve" smooth="yes"/>
      <point x="432" y="360"/>
      <point x="443" y="341"/>
      <point x="470" y="341" type="curve" smooth="yes"/>
      <point x="503" y="341"/>
      <point x="525" y="371"/>
      <point x="525" y="395" type="curve" smooth="yes"/>
      <point x="525" y="399"/>
      <point x="525" y="431"/>
      <point x="484" y="431" type="curve" smooth="yes"/>
      <point x="422" y="431"/>
      <point x="362" y="382"/>
      <point x="314" y="344" type="curve" smooth="yes"/>
      <point x="255" y="296"/>
      <point x="230" y="276"/>
      <point x="187" y="261" type="curve"/>
    </contour>
  </outline>
</glyph>
<glyph name="lambda" format="2">
  <advance width="599"/>
  <unicode hex="03BB"/>
  <outline>
    <contour>
      <point x="366" y="289" type="line"/>
      <point x="424" y="140"/>
      <point x="462" y="28"/>
      <point x="471" y="15" type="curve"/>
      <point x="491" y="-11"/>
      <point x="499" y="-11"/>
      <point x="529" y="-11" type="curve" smooth="yes"/>
      <point x="552" y="-11" type="line"/>
      <point x="559" y="-10"/>
      <point x="564" y="-7"/>
      <point x="564" y="0" type="curve" smooth="yes"/>
      <point x="564" y="5"/>
      <point x="562" y="7"/>
      <point x="558" y="11" type="curve" smooth="yes"/>
      <point x="546" y="24"/>
      <point x="541" y="37"/>
      <point x="535" y="54" type="curve" smooth="yes"/>
      <point x="322" y="626" type="line" smooth="yes"/>
      <point x="299" y="687"/>
      <point x="233" y="694"/>
      <point x="197" y="694" type="curve" smooth="yes"/>
      <point x="188" y="694"/>
      <point x="175" y="694"/>
      <point x="175" y="681" type="curve" smooth="yes"/>
      <point x="175" y="671"/>
      <point x="183" y="670"/>
      <point x="194" y="669" type="curve"/>
      <point x="224" y="664"/>
      <point x="236" y="636"/>
      <point x="251" y="599" type="curve" smooth="yes"/>
      <point x="354" y="322" type="line"/>
      <point x="72" y="50" type="line" smooth="yes"/>
      <point x="62" y="40"/>
      <point x="54" y="33"/>
      <point x="54" y="18" type="curve" smooth="yes"/>
      <point x="54" y="-3"/>
      <point x="72" y="-13"/>
      <point x="86" y="-13" type="curve" smooth="yes"/>
      <point x="103" y="-13"/>
      <point x="115" y="2"/>
      <point x="119" y="6" type="curve"/>
    </contour>
  </outline>
</glyph>
<glyph name="nu" format="2">
  <advance width="506"/>
  <unicode hex="03BD"/>
  <outline>
    <contour>
      <point x="224" y="408" type="line" smooth="yes"/>
      <point x="228" y="422"/>
      <point x="228" y="424"/>
      <point x="228" y="428" type="curve" smooth="yes"/>
      <point x="228" y="437"/>
      <point x="222" y="442"/>
      <point x="213" y="442" type="curve" smooth="yes"/>
      <point x="196" y="442"/>
      <point x="113" y="434"/>
      <point x="91" y="432" type="curve" smooth="yes"/>
      <point x="83" y="431"/>
      <point x="70" y="430"/>
      <point x="70" y="413" type="curve" smooth="yes"/>
      <point x="70" y="400"/>
      <point x="81" y="400"/>
      <point x="97" y="400" type="curve" smooth="yes"/>
      <point x="144" y="400"/>
      <point x="144" y="393"/>
      <point x="144" y="384" type="curve" smooth="yes"/>
      <point x="144" y="377"/>
      <point x="133" y="335"/>
      <point x="127" y="311" type="curve" smooth="yes"/>
      <point x="120" y="281"/>
      <point x="108" y="234"/>
      <point x="102" y="210" type="curve" smooth="yes"/>
      <point x="62" y="52" type="line" smooth="yes"/>
      <point x="59" y="39"/>
      <point x="53" y="16"/>
      <point x="53" y="13" type="curve" smooth="yes"/>
      <point x="53" y="0"/>
      <point x="67" y="0"/>
      <point x="71" y="0" type="curve" smooth="yes"/>
      <point x="85" y="0" type="line"/>
      <point x="232" y="25"/>
      <point x="386" y="124"/>
      <point x="475" y="264" type="curve" smooth="yes"/>
      <point x="522" y="339"/>
      <point x="537" y="406"/>
      <point x="537" y="413" type="curve" smooth="yes"/>
      <point x="537" y="429"/>
      <point x="524" y="442"/>
      <point x="506" y="442" type="curve" smooth="yes"/>
      <point x="475" y="442"/>
      <point x="467" y="415"/>
      <point x="463" y="401" type="curve" smooth="yes"/>
      <point x="404" y="199"/>
      <point x="262" y="79"/>
      <point x="130" y="36" type="curve"/>
    </contour>
  </outline>
</glyph>
<glyph name="xi" format="2">
  <advance width="450"/>
  <unicode hex="03BE"/>
  <outline>
    <contour>
      <point x="199" y="298" type="curve"/>
      <point x="238" y="285"/>
      <point x="271" y="285"/>
      <point x="291" y="285" type="curve" smooth="yes"/>
      <point x="324" y="285"/>
      <point x="386" y="285"/>
      <point x="386" y="318" type="curve" smooth="yes"/>
      <point x="386" y="344"/>
      <point x="350" y="347"/>
      <point x="302" y="347" type="curve" smooth="yes"/>
      <point x="279" y="347"/>
      <point x="254" y="347"/>
      <point x="216" y="334" type="curve"/>
      <point x="203" y="346"/>
      <point x="186" y="370"/>
      <point x="186" y="412" type="curve" smooth="yes"/>
      <point x="186" y="483"/>
      <point x="238" y="550"/>
      <point x="296" y="577" type="curve"/>
      <point x="316" y="555"/>
      <point x="343" y="555"/>
      <point x="362" y="555" type="curve" smooth="yes"/>
      <point x="389" y="555"/>
      <point x="454" y="555"/>
      <point x="454" y="588" type="curve" smooth="yes"/>
      <point x="454" y="616"/>
      <point x="410" y="617"/>
      <point x="368" y="617" type="curve" smooth="yes"/>
      <point x="345" y="617"/>
      <point x="333" y="617"/>
      <point x="306" y="612" type="curve"/>
      <point x="303" y="620"/>
      <point x="302" y="634"/>
      <point x="302" y="644" type="curve" smooth="yes"/>
      <point x="302" y="668"/>
      <point x="307" y="677"/>
      <point x="307" y="684" type="curve" smooth="yes"/>
      <point x="307" y="689"/>
      <point x="303" y="697"/>
      <point x="293" y="697" type="curve" smooth="yes"/>
      <point x="274" y="697"/>
      <point x="274" y="656"/>
      <point x="274" y="645" type="curve" smooth="yes"/>
      <point x="274" y="639"/>
      <point x="274" y="622"/>
      <point x="280" y="606" type="curve"/>
      <point x="150" y="570"/>
      <point x="103" y="483"/>
      <point x="103" y="419" type="curve" smooth="yes"/>
      <point x="103" y="360"/>
      <point x="141" y="328"/>
      <point x="167" y="313" type="curve"/>
      <point x="46" y="241"/>
      <point x="23" y="135"/>
      <point x="23" y="104" type="curve" smooth="yes"/>
      <point x="23" y="14"/>
      <point x="111" y="-19"/>
      <point x="141" y="-31" type="curve" smooth="yes"/>
      <point x="177" y="-44"/>
      <point x="213" y="-57"/>
      <point x="248" y="-71" type="curve" smooth="yes"/>
      <point x="271" y="-79"/>
      <point x="284" y="-84"/>
      <point x="294" y="-88" type="curve" smooth="yes"/>
      <point x="313" y="-95"/>
      <point x="332" y="-102"/>
      <point x="332" y="-129" type="curve" smooth="yes"/>
      <point x="332" y="-150"/>
      <point x="316" y="-180"/>
      <point x="285" y="-180" type="curve" smooth="yes"/>
      <point x="266" y="-180"/>
      <point x="234" y="-176"/>
      <point x="198" y="-152" type="curve" smooth="yes"/>
      <point x="189" y="-146"/>
      <point x="187" y="-145"/>
      <point x="183" y="-145" type="curve" smooth="yes"/>
      <point x="177" y="-145"/>
      <point x="171" y="-151"/>
      <point x="171" y="-157" type="curve" smooth="yes"/>
      <point x="171" y="-171"/>
      <point x="230" y="-205"/>
      <point x="285" y="-205" type="curve" smooth="yes"/>
      <point x="351" y="-205"/>
      <point x="391" y="-143"/>
      <point x="391" y="-97" type="curve" smooth="yes"/>
      <point x="391" y="-64"/>
      <point x="374" y="-43"/>
      <point x="350" y="-29" type="curve"/>
      <point x="344" y="-26"/>
      <point x="227" y="17"/>
      <point x="205" y="26" type="curve" smooth="yes"/>
      <point x="130" y="54"/>
      <point x="78" y="73"/>
      <point x="78" y="132" type="curve" smooth="yes"/>
      <point x="78" y="171"/>
      <point x="114" y="253"/>
    </contour>
    <contour>
      <point x="421" y="586" type="line"/>
      <point x="414" y="584"/>
      <point x="403" y="580"/>
      <point x="363" y="580" type="curve" smooth="yes"/>
      <point x="346" y="580"/>
      <point x="335" y="580"/>
      <point x="324" y="587" type="curve"/>
      <point x="341" y="592"/>
      <point x="351" y="592"/>
      <point x="370" y="592" type="curve" smooth="yes"/>
      <point x="399" y="592"/>
      <point x="403" y="591"/>
      <point x="421" y="587" type="curve"/>
    </contour>
    <contour>
      <point x="247" y="316" type="curve"/>
      <point x="270" y="322"/>
      <point x="279" y="322"/>
      <point x="301" y="322" type="curve" smooth="yes"/>
      <point x="306" y="322"/>
      <point x="353" y="322"/>
      <point x="353" y="317" type="curve" smooth="yes"/>
      <point x="353" y="311"/>
      <point x="296" y="310"/>
      <point x="294" y="310" type="curve" smooth="yes"/>
      <point x="275" y="310"/>
      <point x="264" y="310"/>
    </contour>
  </outline>
</glyph>
<glyph name="pi" format="2">
  <advance width="588"/>
  <unicode hex="03C0"/>
  <outline>
    <contour>
      <point x="273" y="369" type="line"/>
      <point x="387" y="369" type="line"/>
      <point x="372" y="306"/>
      <point x="346" y="202"/>
      <point x="346" y="119" type="curve" smooth="yes"/>
      <point x="346" y="112"/>
      <point x="346" y="75"/>
      <point x="355" y="39" type="curve" smooth="yes"/>
      <point x="365" y="1"/>
      <point x="374" y="-11"/>
      <point x="394" y="-11" type="curve" smooth="yes"/>
      <point x="415" y="-11"/>
      <point x="437" y="7"/>
      <point x="437" y="30" type="curve" smooth="yes"/>
      <point x="437" y="37"/>
      <point x="436" y="40"/>
      <point x="430" y="53" type="curve" smooth="yes"/>
      <point x="399" y="123"/>
      <point x="399" y="197"/>
      <point x="399" y="220" type="curve" smooth="yes"/>
      <point x="399" y="245"/>
      <point x="399" y="289"/>
      <point x="416" y="369" type="curve"/>
      <point x="533" y="369" type="line" smooth="yes"/>
      <point x="546" y="369"/>
      <point x="583" y="369"/>
      <point x="583" y="405" type="curve" smooth="yes"/>
      <point x="583" y="431"/>
      <point x="561" y="431"/>
      <point x="542" y="431" type="curve" smooth="yes"/>
      <point x="196" y="431" type="line" smooth="yes"/>
      <point x="172" y="431"/>
      <point x="137" y="431"/>
      <point x="90" y="384" type="curve" smooth="yes"/>
      <point x="63" y="357"/>
      <point x="27" y="302"/>
      <point x="27" y="294" type="curve" smooth="yes"/>
      <point x="27" y="283"/>
      <point x="38" y="283"/>
      <point x="41" y="283" type="curve" smooth="yes"/>
      <point x="49" y="283"/>
      <point x="51" y="285"/>
      <point x="57" y="295" type="curve" smooth="yes"/>
      <point x="106" y="369"/>
      <point x="167" y="369"/>
      <point x="187" y="369" type="curve" smooth="yes"/>
      <point x="244" y="369" type="line"/>
      <point x="201" y="218"/>
      <point x="132" y="76"/>
      <point x="125" y="61" type="curve" smooth="yes"/>
      <point x="118" y="47"/>
      <point x="108" y="26"/>
      <point x="108" y="18" type="curve" smooth="yes"/>
      <point x="108" y="5"/>
      <point x="117" y="-11"/>
      <point x="139" y="-11" type="curve" smooth="yes"/>
      <point x="175" y="-11"/>
      <point x="184" y="25"/>
      <point x="205" y="106" type="curve" smooth="yes"/>
    </contour>
  </outline>
</glyph>
<glyph name="rho" format="2">
  <advance width="529"/>
  <unicode hex="03C1"/>
  <outline>
    <contour>
      <point x="35" y="-165" type="line" smooth="yes"/>
      <point x="31" y="-179"/>
      <point x="31" y="-181"/>
      <point x="31" y="-187" type="curve" smooth="yes"/>
      <point x="31" y="-204"/>
      <point x="43" y="-216"/>
      <point x="62" y="-216" type="curve" smooth="yes"/>
      <point x="78" y="-216"/>
      <point x="92" y="-206"/>
      <point x="100" y="-191" type="curve" smooth="yes"/>
      <point x="102" y="-187"/>
      <point x="137" y="-44"/>
      <point x="142" y="-25" type="curve" smooth="yes"/>
      <point x="152" y="15"/>
      <point x="152" y="17"/>
      <point x="163" y="53" type="curve"/>
      <point x="178" y="23"/>
      <point x="210" y="-11"/>
      <point x="264" y="-11" type="curve" smooth="yes"/>
      <point x="386" y="-11"/>
      <point x="516" y="131"/>
      <point x="516" y="277" type="curve" smooth="yes"/>
      <point x="516" y="374"/>
      <point x="456" y="442"/>
      <point x="370" y="442" type="curve" smooth="yes"/>
      <point x="273" y="442"/>
      <point x="164" y="348"/>
      <point x="132" y="220" type="curve" smooth="yes"/>
    </contour>
    <contour>
      <point x="263" y="14" type="curve" smooth="yes"/>
      <point x="191" y="14"/>
      <point x="174" y="94"/>
      <point x="174" y="102" type="curve" smooth="yes"/>
      <point x="174" y="108"/>
      <point x="199" y="203"/>
      <point x="203" y="217" type="curve" smooth="yes"/>
      <point x="251" y="403"/>
      <point x="346" y="417"/>
      <point x="369" y="417" type="curve" smooth="yes"/>
      <point x="415" y="417"/>
      <point x="441" y="375"/>
      <point x="441" y="319" type="curve" smooth="yes"/>
      <point x="441" y="286"/>
      <point x="421" y="168"/>
      <point x="378" y="96" type="curve" smooth="yes"/>
      <point x="354" y="55"/>
      <point x="308" y="14"/>
    </contour>
  </outline>
</glyph>
<glyph name="sigma1" format="2">
  <advance width="374"/>
  <unicode hex="03C2"/>
  <outline>
    <contour>
      <point x="338" y="2" type="curve" smooth="yes"/>
      <point x="338" y="52"/>
      <point x="304" y="71"/>
      <point x="280" y="83" type="curve" smooth="yes"/>
      <point x="147" y="154" type="line" smooth="yes"/>
      <point x="120" y="169"/>
      <point x="88" y="199"/>
      <point x="88" y="247" type="curve" smooth="yes"/>
      <point x="88" y="335"/>
      <point x="194" y="417"/>
      <point x="308" y="417" type="curve" smooth="yes"/>
      <point x="336" y="417"/>
      <point x="357" y="411"/>
      <point x="390" y="395" type="curve"/>
      <point x="393" y="394"/>
      <point x="397" y="392"/>
      <point x="401" y="392" type="curve" smooth="yes"/>
      <point x="412" y="392"/>
      <point x="419" y="403"/>
      <point x="419" y="411" type="curve" smooth="yes"/>
      <point x="419" y="435"/>
      <point x="350" y="442"/>
      <point x="314" y="442" type="curve" smooth="yes"/>
      <point x="159" y="442"/>
      <point x="33" y="329"/>
      <point x="33" y="215" type="curve" smooth="yes"/>
      <point x="33" y="129"/>
      <point x="101" y="93"/>
      <point x="134" y="75" type="curve" smooth="yes"/>
      <point x="231" y="23" type="line" smooth="yes"/>
      <point x="262" y="7"/>
      <point x="279" y="-3"/>
      <point x="279" y="-32" type="curve" smooth="yes"/>
      <point x="279" y="-50"/>
      <point x="265" y="-83"/>
      <point x="234" y="-83" type="curve" smooth="yes"/>
      <point x="223" y="-83"/>
      <point x="206" y="-80"/>
      <point x="194" y="-75" type="curve" smooth="yes"/>
      <point x="189" y="-73"/>
      <point x="185" y="-72"/>
      <point x="183" y="-72" type="curve" smooth="yes"/>
      <point x="175" y="-72"/>
      <point x="170" y="-77"/>
      <point x="170" y="-84" type="curve" smooth="yes"/>
      <point x="170" y="-100"/>
      <point x="217" y="-108"/>
      <point x="234" y="-108" type="curve" smooth="yes"/>
      <point x="293" y="-108"/>
      <point x="338" y="-52"/>
    </contour>
  </outline>
</glyph>
<glyph name="sigma" format="2">
  <advance width="587"/>
  <unicode hex="03C3"/>
  <outline>
    <contour>
      <point x="532" y="369" type="line" smooth="yes"/>
      <point x="545" y="369"/>
      <point x="582" y="369"/>
      <point x="582" y="405" type="curve" smooth="yes"/>
      <point x="582" y="431"/>
      <point x="560" y="431"/>
      <point x="541" y="431" type="curve" smooth="yes"/>
      <point x="306" y="431" type="line" smooth="yes"/>
      <point x="155" y="431"/>
      <point x="39" y="274"/>
      <point x="39" y="149" type="curve" smooth="yes"/>
      <point x="39" y="48"/>
      <point x="110" y="-11"/>
      <point x="195" y="-11" type="curve" smooth="yes"/>
      <point x="317" y="-11"/>
      <point x="452" y="110"/>
      <point x="452" y="262" type="curve" smooth="yes"/>
      <point x="452" y="325"/>
      <point x="425" y="364"/>
      <point x="422" y="369" type="curve"/>
    </contour>
    <contour>
      <point x="196" y="14" type="curve" smooth="yes"/>
      <point x="159" y="14"/>
      <point x="105" y="35"/>
      <point x="105" y="122" type="curve" smooth="yes"/>
      <point x="105" y="191"/>
      <point x="144" y="369"/>
      <point x="289" y="369" type="curve" smooth="yes"/>
      <point x="338" y="369"/>
      <point x="384" y="347"/>
      <point x="384" y="273" type="curve" smooth="yes"/>
      <point x="384" y="248"/>
      <point x="372" y="157"/>
      <point x="326" y="93" type="curve" smooth="yes"/>
      <point x="293" y="46"/>
      <point x="242" y="14"/>
    </contour>
  </outline>
</glyph>
<glyph name="tau" format="2">
  <advance width="452"/>
  <unicode hex="03C4"/>
  <outline>
    <contour>
      <point x="303" y="369" type="line"/>
      <point x="476" y="369" type="line" smooth="yes"/>
      <point x="489" y="369"/>
      <point x="526" y="369"/>
      <point x="526" y="405" type="curve" smooth="yes"/>
      <point x="526" y="431"/>
      <point x="504" y="431"/>
      <point x="485" y="431" type="curve" smooth="yes"/>
      <point x="196" y="431" type="line" smooth="yes"/>
      <point x="172" y="431"/>
      <point x="137" y="431"/>
      <point x="90" y="384" type="curve" smooth="yes"/>
      <point x="63" y="357"/>
      <point x="27" y="302"/>
      <point x="27" y="294" type="curve" smooth="yes"/>
      <point x="27" y="283"/>
      <point x="38" y="283"/>
      <point x="41" y="283" type="curve" smooth="yes"/>
      <point x="49" y="283"/>
      <point x="51" y="285"/>
      <point x="57" y="295" type="curve" smooth="yes"/>
      <point x="106" y="369"/>
      <point x="167" y="369"/>
      <point x="187" y="369" type="curve" smooth="yes"/>
      <point x="271" y="369" type="line"/>
      <point x="169" y="38" type="line" smooth="yes"/>
      <point x="164" y="23"/>
      <point x="164" y="21"/>
      <point x="164" y="16" type="curve" smooth="yes"/>
      <point x="164" y="1"/>
      <point x="173" y="-12"/>
      <point x="195" y="-12" type="curve" smooth="yes"/>
      <point x="224" y="-12"/>
      <point x="234" y="12"/>
      <point x="238" y="31" type="curve" smooth="yes"/>
    </contour>
  </outline>
</glyph>
<glyph name="upsilon" format="2">
  <advance width="556"/>
  <unicode hex="03C5"/>
  <outline>
    <contour>
      <point x="538" y="369" type="curve" smooth="yes"/>
      <point x="538" y="439"/>
      <point x="501" y="443"/>
      <point x="492" y="443" type="curve" smooth="yes"/>
      <point x="467" y="443"/>
      <point x="441" y="416"/>
      <point x="441" y="393" type="curve" smooth="yes"/>
      <point x="441" y="378"/>
      <point x="450" y="370"/>
      <point x="457" y="364" type="curve" smooth="yes"/>
      <point x="484" y="339"/>
      <point x="493" y="307"/>
      <point x="493" y="281" type="curve" smooth="yes"/>
      <point x="493" y="215"/>
      <point x="409" y="14"/>
      <point x="284" y="14" type="curve" smooth="yes"/>
      <point x="184" y="14"/>
      <point x="184" y="91"/>
      <point x="184" y="112" type="curve" smooth="yes"/>
      <point x="184" y="140"/>
      <point x="186" y="172"/>
      <point x="237" y="302" type="curve" smooth="yes"/>
      <point x="245" y="324"/>
      <point x="251" y="339"/>
      <point x="251" y="358" type="curve" smooth="yes"/>
      <point x="251" y="407"/>
      <point x="214" y="442"/>
      <point x="165" y="442" type="curve" smooth="yes"/>
      <point x="69" y="442"/>
      <point x="29" y="300"/>
      <point x="29" y="288" type="curve" smooth="yes"/>
      <point x="29" y="279"/>
      <point x="36" y="276"/>
      <point x="43" y="276" type="curve" smooth="yes"/>
      <point x="54" y="276"/>
      <point x="55" y="282"/>
      <point x="59" y="295" type="curve" smooth="yes"/>
      <point x="80" y="368"/>
      <point x="120" y="417"/>
      <point x="162" y="417" type="curve" smooth="yes"/>
      <point x="182" y="417"/>
      <point x="186" y="404"/>
      <point x="186" y="384" type="curve" smooth="yes"/>
      <point x="186" y="367"/>
      <point x="182" y="349"/>
      <point x="173" y="325" type="curve" smooth="yes"/>
      <point x="115" y="173"/>
      <point x="115" y="153"/>
      <point x="115" y="124" type="curve" smooth="yes"/>
      <point x="115" y="84"/>
      <point x="125" y="48"/>
      <point x="163" y="21" type="curve" smooth="yes"/>
      <point x="206" y="-11"/>
      <point x="269" y="-11"/>
      <point x="281" y="-11" type="curve" smooth="yes"/>
      <point x="362" y="-11"/>
      <point x="422" y="52"/>
      <point x="461" y="113" type="curve" smooth="yes"/>
      <point x="519" y="205"/>
      <point x="538" y="331"/>
    </contour>
  </outline>
</glyph>
<glyph name="phi" format="2">
  <advance width="611"/>
  <unicode hex="03C6"/>
  <outline>
    <contour>
      <point x="447" y="667" type="line" smooth="yes"/>
      <point x="448" y="671"/>
      <point x="450" y="678"/>
      <point x="450" y="682" type="curve" smooth="yes"/>
      <point x="450" y="692"/>
      <point x="442" y="694"/>
      <point x="436" y="694" type="curve" smooth="yes"/>
      <point x="425" y="694"/>
      <point x="425" y="691"/>
      <point x="420" y="673" type="curve" smooth="yes"/>
      <point x="362" y="443" type="line"/>
      <point x="189" y="436"/>
      <point x="50" y="299"/>
      <point x="50" y="171" type="curve" smooth="yes"/>
      <point x="50" y="79"/>
      <point x="119" y="-4"/>
      <point x="248" y="-12" type="curve"/>
      <point x="240" y="-43"/>
      <point x="233" y="-75"/>
      <point x="225" y="-106" type="curve" smooth="yes"/>
      <point x="211" y="-161"/>
      <point x="203" y="-190"/>
      <point x="203" y="-194" type="curve" smooth="yes"/>
      <point x="203" y="-198"/>
      <point x="205" y="-205"/>
      <point x="217" y="-205" type="curve" smooth="yes"/>
      <point x="228" y="-205"/>
      <point x="229" y="-202"/>
      <point x="235" y="-179" type="curve" smooth="yes"/>
      <point x="277" y="-12" type="line"/>
      <point x="449" y="-5"/>
      <point x="589" y="132"/>
      <point x="589" y="261" type="curve" smooth="yes"/>
      <point x="589" y="341"/>
      <point x="531" y="433"/>
      <point x="391" y="443" type="curve"/>
    </contour>
    <contour>
      <point x="254" y="13" type="line"/>
      <point x="182" y="17"/>
      <point x="118" y="60"/>
      <point x="118" y="151" type="curve" smooth="yes"/>
      <point x="118" y="262"/>
      <point x="200" y="404"/>
      <point x="356" y="418" type="curve"/>
    </contour>
    <contour>
      <point x="384" y="418" type="line"/>
      <point x="456" y="413"/>
      <point x="520" y="374"/>
      <point x="520" y="280" type="curve" smooth="yes"/>
      <point x="520" y="152"/>
      <point x="424" y="25"/>
      <point x="283" y="13" type="curve"/>
    </contour>
  </outline>
</glyph>
<glyph name="chi" format="2">
  <advance width="640"/>
  <unicode hex="03C7"/>
  <outline>
    <contour>
      <point x="598" y="400" type="line" smooth="yes"/>
      <point x="608" y="410"/>
      <point x="608" y="416"/>
      <point x="608" y="417" type="curve" smooth="yes"/>
      <point x="608" y="429"/>
      <point x="598" y="431"/>
      <point x="595" y="431" type="curve" smooth="yes"/>
      <point x="589" y="431"/>
      <point x="586" y="428"/>
      <point x="578" y="419" type="curve" smooth="yes"/>
      <point x="346" y="166" type="line"/>
      <point x="298" y="309"/>
      <point x="294" y="319"/>
      <point x="271" y="369" type="curve" smooth="yes"/>
      <point x="261" y="391"/>
      <point x="237" y="442"/>
      <point x="146" y="442" type="curve" smooth="yes"/>
      <point x="85" y="442"/>
      <point x="57" y="391"/>
      <point x="57" y="375" type="curve" smooth="yes"/>
      <point x="57" y="364"/>
      <point x="66" y="363"/>
      <point x="71" y="363" type="curve" smooth="yes"/>
      <point x="81" y="363"/>
      <point x="83" y="368"/>
      <point x="86" y="376" type="curve" smooth="yes"/>
      <point x="95" y="402"/>
      <point x="121" y="417"/>
      <point x="139" y="417" type="curve" smooth="yes"/>
      <point x="170" y="417"/>
      <point x="205" y="331"/>
      <point x="222" y="289" type="curve" smooth="yes"/>
      <point x="253" y="215"/>
      <point x="285" y="106"/>
      <point x="285" y="103" type="curve" smooth="yes"/>
      <point x="285" y="100"/>
      <point x="279" y="93"/>
      <point x="277" y="91" type="curve" smooth="yes"/>
      <point x="43" y="-163" type="line" smooth="yes"/>
      <point x="35" y="-172"/>
      <point x="32" y="-175"/>
      <point x="32" y="-181" type="curve" smooth="yes"/>
      <point x="32" y="-187"/>
      <point x="37" y="-194"/>
      <point x="46" y="-194" type="curve" smooth="yes"/>
      <point x="50" y="-194"/>
      <point x="53" y="-192"/>
      <point x="56" y="-190" type="curve"/>
      <point x="60" y="-186"/>
      <point x="69" y="-175"/>
      <point x="73" y="-170" type="curve"/>
      <point x="241" y="13" type="line"/>
      <point x="296" y="71" type="line"/>
      <point x="308" y="29"/>
      <point x="336" y="-59"/>
      <point x="366" y="-125" type="curve" smooth="yes"/>
      <point x="379" y="-154"/>
      <point x="402" y="-205"/>
      <point x="494" y="-205" type="curve" smooth="yes"/>
      <point x="558" y="-205"/>
      <point x="583" y="-151"/>
      <point x="583" y="-137" type="curve" smooth="yes"/>
      <point x="583" y="-134"/>
      <point x="581" y="-126"/>
      <point x="570" y="-126" type="curve" smooth="yes"/>
      <point x="559" y="-126"/>
      <point x="557" y="-132"/>
      <point x="556" y="-136" type="curve"/>
      <point x="543" y="-172"/>
      <point x="513" y="-180"/>
      <point x="501" y="-180" type="curve" smooth="yes"/>
      <point x="451" y="-180"/>
      <point x="381" y="48"/>
      <point x="354" y="135" type="curve"/>
    </contour>
  </outline>
</glyph>
<glyph name="psi" format="2">
  <advance width="670"/>
  <unicode hex="03C8"/>
  <outline>
    <contour>
      <point x="497" y="683" type="line"/>
      <point x="497" y="684"/>
      <point x="497" y="694"/>
      <point x="484" y="694" type="curve" smooth="yes"/>
      <point x="472" y="694"/>
      <point x="471" y="689"/>
      <point x="467" y="673" type="curve" smooth="yes"/>
      <point x="303" y="16" type="line"/>
      <point x="231" y="25"/>
      <point x="186" y="58"/>
      <point x="186" y="127" type="curve" smooth="yes"/>
      <point x="186" y="148"/>
      <point x="189" y="178"/>
      <point x="237" y="302" type="curve" smooth="yes"/>
      <point x="245" y="324"/>
      <point x="251" y="339"/>
      <point x="251" y="358" type="curve" smooth="yes"/>
      <point x="251" y="407"/>
      <point x="214" y="442"/>
      <point x="165" y="442" type="curve" smooth="yes"/>
      <point x="69" y="442"/>
      <point x="29" y="300"/>
      <point x="29" y="288" type="curve" smooth="yes"/>
      <point x="29" y="279"/>
      <point x="36" y="276"/>
      <point x="43" y="276" type="curve" smooth="yes"/>
      <point x="54" y="276"/>
      <point x="55" y="282"/>
      <point x="59" y="295" type="curve" smooth="yes"/>
      <point x="80" y="368"/>
      <point x="120" y="417"/>
      <point x="162" y="417" type="curve" smooth="yes"/>
      <point x="182" y="417"/>
      <point x="186" y="404"/>
      <point x="186" y="384" type="curve" smooth="yes"/>
      <point x="186" y="361"/>
      <point x="179" y="340"/>
      <point x="171" y="318" type="curve" smooth="yes"/>
      <point x="122" y="193"/>
      <point x="116" y="159"/>
      <point x="116" y="134" type="curve" smooth="yes"/>
      <point x="116" y="62"/>
      <point x="165" y="0"/>
      <point x="296" y="-9" type="curve"/>
      <point x="251" y="-194" type="line"/>
      <point x="251" y="-195"/>
      <point x="251" y="-205"/>
      <point x="264" y="-205" type="curve" smooth="yes"/>
      <point x="276" y="-205"/>
      <point x="277" y="-202"/>
      <point x="282" y="-180" type="curve" smooth="yes"/>
      <point x="296" y="-124"/>
      <point x="311" y="-68"/>
      <point x="324" y="-11" type="curve"/>
      <point x="360" y="-11"/>
      <point x="464" y="-11"/>
      <point x="564" y="114" type="curve" smooth="yes"/>
      <point x="612" y="174"/>
      <point x="629" y="224"/>
      <point x="647" y="315" type="curve" smooth="yes"/>
      <point x="652" y="344"/>
      <point x="652" y="359"/>
      <point x="652" y="369" type="curve" smooth="yes"/>
      <point x="652" y="439"/>
      <point x="615" y="443"/>
      <point x="606" y="443" type="curve" smooth="yes"/>
      <point x="581" y="443"/>
      <point x="555" y="416"/>
      <point x="555" y="393" type="curve" smooth="yes"/>
      <point x="555" y="378"/>
      <point x="564" y="370"/>
      <point x="571" y="364" type="curve" smooth="yes"/>
      <point x="598" y="339"/>
      <point x="607" y="307"/>
      <point x="607" y="281" type="curve" smooth="yes"/>
      <point x="607" y="239"/>
      <point x="579" y="162"/>
      <point x="512" y="96" type="curve" smooth="yes"/>
      <point x="433" y="17"/>
      <point x="367" y="14"/>
      <point x="331" y="14" type="curve"/>
    </contour>
  </outline>
</glyph>
<glyph name="omega" format="2">
  <advance width="639"/>
  <unicode hex="03C9"/>
  <outline>
    <contour>
      <point x="622" y="370" type="curve" smooth="yes"/>
      <point x="622" y="399"/>
      <point x="612" y="442"/>
      <point x="576" y="442" type="curve" smooth="yes"/>
      <point x="550" y="442"/>
      <point x="525" y="417"/>
      <point x="525" y="392" type="curve" smooth="yes"/>
      <point x="525" y="376"/>
      <point x="530" y="374"/>
      <point x="538" y="366" type="curve" smooth="yes"/>
      <point x="551" y="353"/>
      <point x="575" y="328"/>
      <point x="575" y="278" type="curve" smooth="yes"/>
      <point x="575" y="217"/>
      <point x="511" y="63"/>
      <point x="409" y="63" type="curve" smooth="yes"/>
      <point x="353" y="63"/>
      <point x="321" y="103"/>
      <point x="311" y="145" type="curve"/>
      <point x="311" y="158"/>
      <point x="346" y="230"/>
      <point x="346" y="267" type="curve" smooth="yes"/>
      <point x="346" y="280"/>
      <point x="339" y="292"/>
      <point x="324" y="292" type="curve" smooth="yes"/>
      <point x="316" y="292"/>
      <point x="307" y="288"/>
      <point x="301" y="281" type="curve" smooth="yes"/>
      <point x="282" y="257"/>
      <point x="273" y="176"/>
      <point x="273" y="151" type="curve"/>
      <point x="240" y="105"/>
      <point x="198" y="64"/>
      <point x="138" y="64" type="curve" smooth="yes"/>
      <point x="73" y="64"/>
      <point x="50" y="119"/>
      <point x="50" y="176" type="curve" smooth="yes"/>
      <point x="50" y="252"/>
      <point x="81" y="319"/>
      <point x="144" y="403" type="curve" smooth="yes"/>
      <point x="150" y="411"/>
      <point x="150" y="415"/>
      <point x="150" y="420" type="curve" smooth="yes"/>
      <point x="150" y="429"/>
      <point x="141" y="437"/>
      <point x="132" y="437" type="curve" smooth="yes"/>
      <point x="122" y="437"/>
      <point x="114" y="429"/>
      <point x="109" y="421" type="curve"/>
      <point x="54" y="344"/>
      <point x="14" y="233"/>
      <point x="14" y="137" type="curve" smooth="yes"/>
      <point x="14" y="60"/>
      <point x="41" y="-11"/>
      <point x="129" y="-11" type="curve" smooth="yes"/>
      <point x="192" y="-11"/>
      <point x="249" y="43"/>
      <point x="279" y="89" type="curve"/>
      <point x="292" y="48"/>
      <point x="316" y="-11"/>
      <point x="396" y="-11" type="curve" smooth="yes"/>
      <point x="473" y="-11"/>
      <point x="524" y="52"/>
      <point x="562" y="131" type="curve" smooth="yes"/>
      <point x="581" y="170"/>
      <point x="593" y="213"/>
      <point x="603" y="254" type="curve" smooth="yes"/>
      <point x="613" y="298"/>
      <point x="622" y="339"/>
    </contour>
  </outline>
</glyph>
